<svg width="22" height="26" fill="none" xmlns="http://www.w3.org/2000/svg">
  <path fill-rule="evenodd" clip-rule="evenodd" d="M21.116 7.966a3.41 3.41 0 0 0-3.409-3.41h-9.09a3.41 3.41 0 0 0-3.41 3.41v13.636a3.41 3.41 0 0 0 3.41 3.41h9.09a3.41 3.41 0 0 0 3.41-3.41V7.966Zm-2.273 0c0-.628-.508-1.137-1.136-1.137h-9.09c-.629 0-1.137.51-1.137 1.137v13.636c0 .628.508 1.137 1.136 1.137h9.091c.628 0 1.136-.51 1.136-1.137V7.966Z" fill="#fff"/>
  <path d="M4.07 2.284h11.364a1.136 1.136 0 0 0 0-2.273H4.072a3.41 3.41 0 0 0-3.41 3.41V19.33a1.136 1.136 0 0 0 2.273 0V3.42c0-.627.51-1.136 1.137-1.136Z" fill="#fff"/>
</svg>
