<svg width="43" height="42" fill="none" xmlns="http://www.w3.org/2000/svg">
  <path d="M21.763.001C10.03.001.52 9.511.52 21.243c0 9.328 6.013 17.253 14.375 20.107l.15.044c1.062.2 1.452-.456 1.452-1.021 0-.505-.017-1.842-.027-3.611-5.908 1.282-7.155-2.85-7.155-2.85a5.659 5.659 0 0 0-2.341-3.094l-.023-.012c-1.924-1.318.149-1.29.149-1.29a4.464 4.464 0 0 1 3.242 2.166l.011.022a4.532 4.532 0 0 0 6.209 1.753l-.023.012a4.524 4.524 0 0 1 1.344-2.84l.002-.002c-4.717-.531-9.676-2.358-9.676-10.496l-.002-.126c0-2.154.832-4.115 2.192-5.578l-.005.005a7.415 7.415 0 0 1-.454-2.579c0-1.1.235-2.147.658-3.09l-.02.047s1.78-.569 5.842 2.178c1.592-.455 3.421-.717 5.31-.717 1.89 0 3.719.262 5.453.75l-.142-.033c4.035-2.747 5.815-2.178 5.815-2.178.403.91.638 1.97.638 3.084 0 .91-.155 1.782-.443 2.592l.017-.054a8.196 8.196 0 0 1 2.179 5.577c0 .044 0 .087-.002.13v-.008c0 8.16-4.965 9.956-9.691 10.48a5.07 5.07 0 0 1 1.432 3.947l.001-.017c0 2.843-.027 5.126-.027 5.816 0 .558.371 1.22 1.46 1.008C36.962 38.491 43 30.56 43 21.215 43 9.498 33.501 0 21.785 0h-.026l.004.001Z" fill="#FAE5D1"/>
</svg>
