<svg width="584" height="292" fill="none" xmlns="http://www.w3.org/2000/svg">
  <g clip-path="url(#a)">
    <g clip-path="url(#b)" stroke="#F6B17A" stroke-width="10">
      <circle cx="584" cy="292" r="232" transform="rotate(90 584 292)"/>
      <circle cx="584" cy="292" r="163.053" transform="rotate(90 584 292)"/>
      <circle cx="584" cy="292" r="50.088" transform="rotate(90 584 292)"/>
      <circle cx="583.999" cy="292" r="104.548" transform="rotate(90 583.999 292)"/>
    </g>
    <path d="M51.365 106.167c-8.4 0-15.727-1.027-21.98-3.08-6.254-2.054-11.06-4.947-14.42-8.68-3.267-3.827-4.9-8.26-4.9-13.3 0-7.654 5.18-11.48 15.54-11.48.373 7.093 2.753 12.46 7.14 16.1 4.48 3.64 10.733 5.46 18.76 5.46 6.626 0 11.76-1.12 15.4-3.36 3.64-2.334 5.46-5.554 5.46-9.66 0-2.707-.7-4.9-2.1-6.58-1.4-1.774-3.78-3.314-7.14-4.62-3.36-1.4-8.26-2.8-14.7-4.2-9.147-2.147-16.38-4.527-21.7-7.14-5.227-2.614-9.007-5.74-11.34-9.38-2.334-3.734-3.5-8.354-3.5-13.86 0-5.32 1.54-9.987 4.62-14 3.173-4.014 7.606-7.14 13.3-9.38 5.786-2.24 12.413-3.36 19.88-3.36 7.186 0 13.58.98 19.18 2.94 5.693 1.866 10.126 4.526 13.3 7.98 3.266 3.453 4.9 7.42 4.9 11.9 0 6.906-4.994 10.5-14.98 10.78-.56-6.44-2.614-11.154-6.16-14.14-3.547-2.987-8.96-4.48-16.24-4.48-6.254 0-11.06 1.026-14.42 3.08-3.36 2.053-5.04 4.946-5.04 8.68 0 2.613.653 4.806 1.96 6.58 1.306 1.68 3.5 3.173 6.58 4.48 3.08 1.213 7.466 2.473 13.16 3.78 9.613 2.146 17.22 4.573 22.82 7.28 5.6 2.613 9.66 5.833 12.18 9.66 2.52 3.733 3.78 8.353 3.78 13.86 0 5.693-1.634 10.686-4.9 14.98-3.174 4.2-7.747 7.466-13.72 9.8-5.88 2.24-12.787 3.36-20.72 3.36Zm54.228-87.08c0-4.294 1.493-7.607 4.48-9.94 2.986-2.334 7.28-3.5 12.88-3.5v36.4c-1.214 1.306-2.334 2.8-3.36 4.48l.84.56c6.44-8.96 14.653-13.44 24.64-13.44 4.76 0 8.96 1.073 12.6 3.22 3.64 2.146 6.44 5.086 8.4 8.82 2.053 3.733 3.08 7.933 3.08 12.6v37.24c0 3.733-1.447 6.44-4.34 8.12-2.894 1.68-7.28 2.52-13.16 2.52v-45.36c0-3.547-1.074-6.44-3.22-8.68-2.054-2.24-5.087-3.36-9.1-3.36-4.76 0-8.68 1.493-11.76 4.48-3.08 2.893-4.62 6.533-4.62 10.92v31.36c0 3.733-1.447 6.44-4.34 8.12-2.894 1.68-7.234 2.52-13.02 2.52v-87.08Zm103.253 87.08c-4.76 0-9.147-.934-13.16-2.8-3.92-1.867-7.093-4.527-9.52-7.98-2.333-3.547-3.5-7.747-3.5-12.6 0-4.854 1.26-9.054 3.78-12.6 2.52-3.64 5.927-6.394 10.22-8.26 4.387-1.96 9.193-2.94 14.42-2.94 4.293 0 8.12.7 11.48 2.1 3.453 1.306 6.627 3.313 9.52 6.02l.7-.7c-.84-.84-2.287-2.1-4.34-3.78v-2.8c0-3.827-1.353-6.86-4.06-9.1-2.707-2.24-6.487-3.36-11.34-3.36-8.68 0-15.073 3.173-19.18 9.52-2.053-.654-3.78-1.68-5.18-3.08-1.4-1.494-2.1-3.08-2.1-4.76 0-2.8 1.26-5.367 3.78-7.7 2.52-2.334 5.927-4.2 10.22-5.6 4.293-1.4 8.96-2.1 14-2.1 9.893 0 17.547 2.333 22.96 7 5.413 4.573 8.12 10.826 8.12 18.76v35c0 4.106-1.307 7.093-3.92 8.96-2.613 1.866-6.72 2.8-12.32 2.8v-5.74c1.587-1.587 2.66-2.754 3.22-3.5l-.56-.7c-3.08 3.266-6.393 5.74-9.94 7.42-3.453 1.68-7.887 2.52-13.3 2.52Zm4.48-12.74c4.853 0 8.633-.934 11.34-2.8 2.707-1.867 4.06-4.527 4.06-7.98 0-3.36-1.4-6.02-4.2-7.98-2.707-1.96-6.393-2.94-11.06-2.94-4.293 0-7.7.98-10.22 2.94-2.427 1.866-3.64 4.526-3.64 7.98 0 3.546 1.213 6.253 3.64 8.12 2.427 1.773 5.787 2.66 10.08 2.66Zm85.402-44.66c-5.506 0-9.986 1.493-13.44 4.48-3.453 2.893-5.18 6.533-5.18 10.92v31.36c0 3.733-1.4 6.44-4.2 8.12-2.8 1.68-7.186 2.52-13.16 2.52v-59.08c0-4.294 1.354-7.607 4.06-9.94 2.8-2.334 7-3.5 12.6-3.5v8.26c-1.4 1.586-2.52 3.126-3.36 4.62l.84.56c5.88-8.96 13.254-13.44 22.12-13.44 4.014 0 7.047 1.073 9.1 3.22 2.054 2.053 3.08 4.666 3.08 7.84 0 2.426-.653 4.48-1.96 6.16-2.52-1.4-6.02-2.1-10.5-2.1Zm50.081 57.4c-5.787 0-11.06-1.12-15.82-3.36-4.76-2.334-8.54-5.46-11.34-9.38-2.8-4.014-4.2-8.494-4.2-13.44v-18.62c0-5.227 1.447-9.94 4.34-14.14 2.893-4.2 6.72-7.514 11.48-9.94 4.853-2.427 10.08-3.64 15.68-3.64 5.507 0 10.547 1.166 15.12 3.5 4.667 2.24 8.353 5.413 11.06 9.52 2.707 4.013 4.06 8.633 4.06 13.86v7.84c0 2.053-.793 3.78-2.38 5.18-1.493 1.4-3.407 2.1-5.74 2.1h-36.68v3.08c0 4.013 1.213 7.28 3.64 9.8 2.427 2.52 6.067 3.78 10.92 3.78 4.667 0 8.12-1.027 10.36-3.08 2.333-2.054 3.5-4.714 3.5-7.98 1.68-.187 2.847-.28 3.5-.28 3.453 0 6.16.793 8.12 2.38 1.96 1.493 2.94 3.64 2.94 6.44 0 2.706-1.26 5.32-3.78 7.84-2.52 2.52-5.973 4.573-10.36 6.16-4.387 1.586-9.193 2.38-14.42 2.38Zm14.56-42.98v-2.66c0-3.92-1.353-7.094-4.06-9.52-2.707-2.427-6.207-3.64-10.5-3.64s-7.793 1.213-10.5 3.64c-2.613 2.333-3.92 5.506-3.92 9.52v2.66h28.98ZM51.505 275.167c-7.654 0-14.654-1.494-21-4.48-6.347-3.08-11.387-7.234-15.12-12.46-3.64-5.227-5.46-10.92-5.46-17.08v-32.62c0-6.16 1.82-11.807 5.46-16.94 3.733-5.227 8.773-9.334 15.12-12.32 6.346-3.08 13.346-4.62 21-4.62 7.653 0 14.653 1.54 21 4.62 6.44 2.986 11.48 7.093 15.12 12.32 3.733 5.133 5.6 10.78 5.6 16.94v32.62c0 6.16-1.867 11.853-5.6 17.08-3.64 5.226-8.68 9.38-15.12 12.46-6.347 2.986-13.347 4.48-21 4.48Zm0-16.38c7 0 12.6-1.634 16.8-4.9 4.2-3.36 6.3-7.7 6.3-13.02v-31.92c0-5.414-2.1-9.754-6.3-13.02-4.2-3.36-9.8-5.04-16.8-5.04-6.907 0-12.46 1.68-16.66 5.04-4.2 3.266-6.3 7.606-6.3 13.02v31.92c0 5.32 2.1 9.66 6.3 13.02 4.2 3.266 9.753 4.9 16.66 4.9Zm118.705 2.8c0 4.386-1.4 7.746-4.2 10.08-2.706 2.333-6.86 3.5-12.46 3.5v-8.4a34.396 34.396 0 0 0 3.36-4.62l-.84-.56c-5.973 9.053-14 13.58-24.08 13.58-4.76 0-9.053-1.074-12.88-3.22-3.733-2.24-6.72-5.32-8.96-9.24-2.146-3.92-3.22-8.354-3.22-13.3v-36.12c0-3.827 1.4-6.534 4.2-8.12 2.894-1.68 7.28-2.52 13.16-2.52v45.5c0 3.64 1.12 6.533 3.36 8.68 2.24 2.146 5.46 3.22 9.66 3.22 4.667 0 8.4-1.447 11.2-4.34 2.894-2.987 4.34-6.674 4.34-11.06v-31.36c0-3.827 1.4-6.534 4.2-8.12 2.8-1.68 7.187-2.52 13.16-2.52v58.94Zm48.579 13.58c-7.56 0-13.16-2.194-16.8-6.58-3.64-4.387-5.46-10.034-5.46-16.94v-34.72h-14.42c0-4.387.84-7.654 2.52-9.8 1.68-2.147 3.92-3.22 6.72-3.22h5.46v-11.62c0-3.827 1.4-6.534 4.2-8.12 2.8-1.68 7.047-2.52 12.74-2.52v22.26h18.62c0 4.666-.886 8.026-2.66 10.08-1.773 1.96-4.62 2.94-8.54 2.94h-7.14v34.02c0 3.266.607 5.6 1.82 7 1.307 1.4 3.5 2.1 6.58 2.1 3.267 0 6.534-.887 9.8-2.66.934.84 1.68 1.913 2.24 3.22a8.92 8.92 0 0 1 .84 3.78c0 2.8-1.446 5.32-4.34 7.56-2.893 2.146-6.953 3.22-12.18 3.22Z" fill="#fff"/>
  </g>
  <defs>
    <clipPath id="a">
      <path fill="#fff" d="M0 0h584v292H0z"/>
    </clipPath>
    <clipPath id="b">
      <path fill="#fff" transform="rotate(90 264.5 319.5)" d="M0 0h237v237H0z"/>
    </clipPath>
  </defs>
</svg>
