<svg width="47" height="35" fill="none" xmlns="http://www.w3.org/2000/svg">
  <path fill-rule="evenodd" clip-rule="evenodd" d="M40.596.821a6.335 6.335 0 0 1 6.335 6.335v21.118a6.335 6.335 0 0 1-6.335 6.335H6.807a6.335 6.335 0 0 1-6.335-6.335V7.156A6.335 6.335 0 0 1 6.807.821h33.789Zm-1.578 4.224H8.385l14.008 11.058c.767.606 1.85.606 2.617 0L39.018 5.045ZM4.696 7.513v20.761c0 1.166.945 2.112 2.111 2.112h33.789a2.112 2.112 0 0 0 2.112-2.112V7.513l-15.08 11.905a6.335 6.335 0 0 1-7.852 0L4.696 7.513Z" fill="#FAE5D1"/>
</svg>
