<svg width="32" height="32" fill="none" xmlns="http://www.w3.org/2000/svg">
  <g clip-path="url(#a)" fill="#F6B17A">
    <path d="M32 16c0-8.816-7.184-16-16-16C7.184 0 0 7.184 0 16c0 4.64 2 8.816 5.168 11.744 0 .016 0 .016-.016.032.16.16.352.288.512.432.096.08.176.16.272.224.288.24.608.464.912.688.112.08.208.144.32.224.304.208.624.4.96.576.112.064.24.144.352.208.32.176.656.336 1.008.48.128.064.256.128.384.176.352.144.704.272 1.056.384a3.6 3.6 0 0 0 .384.128c.384.112.768.208 1.152.304.112.032.224.064.352.08.448.096.896.16 1.36.208.064 0 .128.016.192.032.544.048 1.088.08 1.632.08.544 0 1.088-.032 1.616-.08.064 0 .128-.016.192-.032.464-.048.912-.112 1.36-.208.112-.016.224-.064.352-.08.384-.096.784-.176 1.152-.304.128-.048.256-.096.384-.128.352-.128.72-.24 1.056-.384.128-.048.256-.112.384-.176.336-.144.672-.304 1.008-.48.128-.064.24-.144.352-.208.32-.192.64-.368.96-.576.112-.064.208-.144.32-.224.32-.224.624-.448.912-.688.096-.08.176-.16.272-.224.176-.144.352-.288.512-.432 0-.016 0-.016-.016-.032C30 24.816 32 20.64 32 16Zm-8.096 7.952c-4.336-2.912-11.44-2.912-15.808 0a7.726 7.726 0 0 0-1.76 1.6C3.904 23.088 2.4 19.712 2.4 16 2.4 8.496 8.496 2.4 16 2.4S29.6 8.496 29.6 16c0 3.712-1.504 7.088-3.936 9.552a7.404 7.404 0 0 0-1.76-1.6Z"/>
    <path d="M16 7.887c-3.312 0-6 2.688-6 6 0 3.248 2.544 5.888 5.92 5.984H16.208A5.989 5.989 0 0 0 22 13.888c0-3.313-2.688-6-6-6Z"/>
  </g>
  <defs>
    <clipPath id="a">
      <path fill="#fff" d="M0 0h32v32H0z"/>
    </clipPath>
  </defs>
</svg>
