<svg width="28" height="28" fill="none" xmlns="http://www.w3.org/2000/svg">
  <path d="M13.117 2.68c.32-.965.48-1.448.716-1.582a.663.663 0 0 1 .657 0c.236.134.397.617.717 1.583l2.116 6.385c.091.274.137.412.22.514.072.09.164.161.268.205.119.05.257.054.535.06l6.445.137c.975.021 1.462.032 1.657.226a.747.747 0 0 1 .202.655c-.048.277-.436.586-1.213 1.204L20.3 16.151c-.221.175-.332.263-.4.377a.75.75 0 0 0-.102.332c-.01.133.03.273.111.551l1.867 6.47c.282.979.424 1.468.307 1.722-.1.22-.3.372-.531.405-.267.038-.667-.254-1.467-.838l-5.291-3.861c-.228-.167-.342-.25-.466-.282a.661.661 0 0 0-.333 0c-.124.032-.238.115-.465.282l-5.292 3.86c-.8.585-1.2.877-1.467.839a.695.695 0 0 1-.53-.405c-.117-.254.024-.743.306-1.722l1.867-6.47c.08-.278.12-.418.112-.551a.75.75 0 0 0-.103-.332c-.068-.114-.178-.201-.4-.377l-5.136-4.084c-.777-.618-1.166-.927-1.214-1.204a.747.747 0 0 1 .203-.655c.194-.194.682-.205 1.657-.226l6.444-.137c.278-.006.417-.01.535-.06a.694.694 0 0 0 .27-.205c.081-.102.127-.24.218-.514l2.117-6.385Z" stroke="#fff" stroke-width="2" stroke-linecap="round" stroke-linejoin="round"/>
</svg>
