<svg width="25" height="28" fill="none" xmlns="http://www.w3.org/2000/svg">
  <path d="m20.56 5.178-1.112 16.684c-.097 1.462-.146 2.192-.461 2.747a2.78 2.78 0 0 1-1.203 1.124c-.573.278-1.306.278-2.77.278H9.44c-1.465 0-2.197 0-2.77-.278a2.779 2.779 0 0 1-1.203-1.125c-.316-.554-.364-1.284-.462-2.745L3.894 5.178m-2.778 0h22.222m-5.555 0-.376-1.128c-.364-1.093-.547-1.639-.884-2.043a2.778 2.778 0 0 0-1.114-.803c-.49-.193-1.067-.193-2.218-.193h-1.927c-1.152 0-1.728 0-2.218.193-.433.17-.816.446-1.114.803-.338.404-.52.95-.884 2.043l-.376 1.128" stroke="#fff" stroke-width="2" stroke-linecap="round" stroke-linejoin="round"/>
</svg>
