<svg width="130" height="130" fill="none" xmlns="http://www.w3.org/2000/svg">
  <path d="M115.876 30.1495 59.0898 12.6768c-.664-.1966-1.3848-.0786-1.9394.3319-.5592.4106-.8868 1.0615-.8868 1.756v26.2655L14.0195 56.3931a2.1835 2.1835 0 0 0-1.4372 2.0531v56.7858c0 1.205.9785 2.184 2.1841 2.184H115.234c1.205 0 2.184-.979 2.184-2.184V32.2374c0-.9609-.625-1.8084-1.542-2.0879ZM60.6318 113.048H16.9503V59.9751l42.2398-15.3584h.0043l1.4372-.5241v68.9554h.0002Zm52.4172 0H64.9999V40.9737c0-.3581-.0874-.7033-.2447-1.009-.1572-.3057-.3931-.5766-.6857-.782-.5854-.4062-1.3324-.5111-2.0007-.2621l-1.4372.5199V17.722l52.4174 16.1272v79.1988Z" fill="#F6B17A"/>
  <path d="M81.7035 40H74v16.3066h7.7035V40ZM103.407 40h-7.7034v16.3066h7.7034V40ZM81.7035 64.3066H74v16.3066h7.7035V64.3066ZM103.407 64.3066h-7.7034v16.3066h7.7034V64.3066ZM81.7035 88.6133H74V104.92h7.7035V88.6133ZM103.407 88.6133h-7.7034V104.92h7.7034V88.6133ZM32.7035 64.3066H25v16.3066h7.7035V64.3066ZM51.4071 64.3066h-7.7035v16.3066h7.7035V64.3066ZM32.7035 88.6133H25V104.92h7.7035V88.6133ZM51.4071 88.6133h-7.7035V104.92h7.7035V88.6133Z" stroke="#F6B17A" stroke-width="2" stroke-linejoin="round"/>
</svg>
