<svg width="130" height="130" fill="none" xmlns="http://www.w3.org/2000/svg">
  <path d="M60.3527 17.1609c1.4724-3.3034 2.209-4.9551 3.2342-5.4637a3.1782 3.1782 0 0 1 2.8265 0c1.0253.5086 1.7618 2.1603 3.2342 5.4637l11.7284 26.312c.4357.9765.6532 1.4648.9903 1.8387a3.1777 3.1777 0 0 0 1.0685.7767c.4598.2048.9916.2609 2.055.3731l28.6482 3.0237c3.597.3796 5.395.5694 6.196 1.3872a3.1814 3.1814 0 0 1 .873 2.6887c-.166 1.1322-1.51 2.3425-4.196 4.7639L95.6103 77.6105c-.7938.7155-1.1913 1.0736-1.4426 1.5093a3.1795 3.1795 0 0 0-.4083 1.2568c-.0528.5005.0579 1.0233.2799 2.0696l5.9777 28.1808c.75 3.538 1.125 5.307.595 6.32a3.1787 3.1787 0 0 1-2.2872 1.662c-1.1283.191-2.6948-.712-5.8279-2.519l-24.9545-14.393c-.9261-.534-1.3891-.801-1.8814-.906a3.1987 3.1987 0 0 0-1.3216 0c-.4923.105-.9554.372-1.8814.906L37.5036 116.09c-3.1329 1.807-4.6994 2.71-5.8278 2.519a3.178 3.178 0 0 1-2.2871-1.662c-.5304-1.013-.1552-2.782.5953-6.32l5.9771-28.1808c.2219-1.0463.3328-1.5691.2801-2.0696a3.1827 3.1827 0 0 0-.4083-1.2568c-.2516-.4357-.6487-.7938-1.4429-1.5093L12.9901 58.3249c-2.6866-2.4214-4.03-3.6317-4.197-4.7639a3.1804 3.1804 0 0 1 .8736-2.6887c.8006-.8178 2.599-1.0076 6.1957-1.3872l28.6485-3.0237c1.0633-.1122 1.5949-.1683 2.0546-.3731a3.1806 3.1806 0 0 0 1.069-.7767c.3368-.3739.5544-.8622.9898-1.8387l11.7284-26.312Z" stroke="#F6B17A" stroke-width="5" stroke-linecap="round" stroke-linejoin="round"/>
  <path d="M65.8779 87.0923c-.56 0-1.05-.21-1.47-.63-.42-.42-.63-.924-.63-1.512v-25.62l-3.066 1.302c-.476.196-.924.294-1.344.294-.616 0-1.134-.196-1.554-.588-.392-.392-.588-.896-.588-1.512 0-.448.112-.854.336-1.218.224-.364.574-.63 1.05-.798l6.552-2.352c.14-.056.28-.098.42-.126.14-.028.266-.042.378-.042.644 0 1.148.21 1.512.63.392.392.588.91.588 1.554v28.476c0 .588-.21 1.092-.63 1.512-.42.42-.938.63-1.554.63Z" fill="#F6B17A"/>
</svg>
