<svg width="130" height="130" fill="none" xmlns="http://www.w3.org/2000/svg">
  <path d="M60.3527 17.1609c1.4724-3.3034 2.209-4.9551 3.2342-5.4637a3.1782 3.1782 0 0 1 2.8265 0c1.0253.5086 1.7618 2.1603 3.2342 5.4637l11.7284 26.312c.4357.9765.6532 1.4648.9903 1.8387a3.1777 3.1777 0 0 0 1.0685.7767c.4598.2048.9916.2609 2.055.3731l28.6482 3.0237c3.597.3796 5.395.5694 6.196 1.3872a3.1814 3.1814 0 0 1 .873 2.6887c-.166 1.1322-1.51 2.3425-4.196 4.7639L95.6103 77.6105c-.7938.7155-1.1913 1.0736-1.4426 1.5093a3.1795 3.1795 0 0 0-.4083 1.2568c-.0528.5005.0579 1.0233.2799 2.0696l5.9777 28.1808c.75 3.538 1.125 5.307.595 6.32a3.1787 3.1787 0 0 1-2.2872 1.662c-1.1283.191-2.6948-.712-5.8279-2.519l-24.9545-14.393c-.9261-.534-1.3891-.801-1.8814-.906a3.1987 3.1987 0 0 0-1.3216 0c-.4923.105-.9554.372-1.8814.906L37.5036 116.09c-3.1329 1.807-4.6994 2.71-5.8278 2.519a3.178 3.178 0 0 1-2.2871-1.662c-.5304-1.013-.1552-2.782.5953-6.32l5.9771-28.1808c.2219-1.0463.3328-1.5691.2801-2.0696a3.1827 3.1827 0 0 0-.4083-1.2568c-.2516-.4357-.6487-.7938-1.4429-1.5093L12.9901 58.3249c-2.6866-2.4214-4.03-3.6317-4.197-4.7639a3.1804 3.1804 0 0 1 .8736-2.6887c.8006-.8178 2.599-1.0076 6.1957-1.3872l28.6485-3.0237c1.0633-.1122 1.5949-.1683 2.0546-.3731a3.1806 3.1806 0 0 0 1.069-.7767c.3368-.3739.5544-.8622.9898-1.8387l11.7284-26.312Z" stroke="#F6B17A" stroke-width="5" stroke-linecap="round" stroke-linejoin="round"/>
  <path d="M64.5327 87.0923c-2.1 0-3.962-.434-5.586-1.302-1.624-.896-2.898-2.1-3.822-3.612-.924-1.54-1.386-3.262-1.386-5.166 0-.644.182-1.162.546-1.554.392-.42.854-.63 1.386-.63.56 0 1.022.21 1.386.63.364.392.546.91.546 1.554 0 1.148.294 2.212.882 3.192.588.952 1.386 1.722 2.394 2.31 1.008.56 2.142.84 3.402.84 1.848 0 3.332-.504 4.452-1.512 1.148-1.036 1.722-2.478 1.722-4.326 0-1.176-.252-2.226-.756-3.15-.504-.952-1.19-1.708-2.058-2.268-.868-.56-1.848-.84-2.94-.84-.616 0-1.134-.21-1.554-.63-.392-.42-.588-.938-.588-1.554 0-.616.196-1.12.588-1.512.42-.42.938-.63 1.554-.63.784 0 1.54-.196 2.268-.588.728-.42 1.33-.966 1.806-1.638.476-.7.714-1.484.714-2.352 0-1.232-.448-2.268-1.344-3.108-.896-.84-2.044-1.26-3.444-1.26-1.064 0-2.044.21-2.94.63-.868.42-1.568.98-2.1 1.68-.504.7-.756 1.484-.756 2.352 0 .644-.182 1.19-.546 1.638-.364.42-.826.63-1.386.63-.532 0-.994-.196-1.386-.588-.364-.42-.546-.938-.546-1.554 0-1.624.42-3.08 1.26-4.368.84-1.288 1.988-2.296 3.444-3.024 1.456-.756 3.08-1.134 4.872-1.134 1.652 0 3.136.364 4.452 1.092 1.344.7 2.394 1.666 3.15 2.898.784 1.204 1.176 2.576 1.176 4.116 0 1.092-.252 2.058-.756 2.898-.476.84-1.092 1.568-1.848 2.184-.756.588-1.554 1.078-2.394 1.47 1.484.504 2.688 1.19 3.612 2.058.924.84 1.596 1.82 2.016 2.94.448 1.12.672 2.338.672 3.654 0 1.82-.462 3.458-1.386 4.914-.924 1.428-2.156 2.562-3.696 3.402-1.54.812-3.234 1.218-5.082 1.218Z" fill="#F6B17A"/>
</svg>
