<svg width="130" height="130" fill="none" xmlns="http://www.w3.org/2000/svg">
  <g clip-path="url(#a)" stroke="#F6B17A">
    <path d="m107.368 78.4932 19.893 19.8933m0-19.8933-19.893 19.8933M91.4532 70.5359c-15.3815 0-27.8507 12.4691-27.8507 27.8506h27.8507m15.9148-55.7013c0 8.7894-7.126 15.9147-15.9148 15.9147-8.7894 0-15.9147-7.1253-15.9147-15.9147 0-8.7895 7.1253-15.9147 15.9147-15.9147 8.7888 0 15.9148 7.1252 15.9148 15.9147Z" stroke-width="5" stroke-linecap="round" stroke-linejoin="round"/>
    <path d="M47.1566 53.2517 17.2531 104.499c-.8297 1.422-2.2093-.221-1.6713-1.99l10.645-35.0075c.3504-1.1519-.1517-2.514-.9266-2.514H2.9081c-.9222 0-1.3872-1.8537-.7394-2.9479l27.7335-46.8307c.8044-1.3587 2.1427.1347 1.6957 1.8922l-7.9536 31.256c-.2926 1.1503.2195 2.4228.9692 2.4072l21.7855-.4507c.9249-.019 1.4024 1.8335.7576 2.9381Z" stroke-width="4"/>
  </g>
  <defs>
    <clipPath id="a">
      <path fill="#fff" d="M0 0h130v130H0z"/>
    </clipPath>
  </defs>
</svg>
