<svg width="485" height="300" viewBox="0 0 485 300" fill="none" xmlns="http://www.w3.org/2000/svg">
<g clip-path="url(#clip0_655_468)">
<g clip-path="url(#clip1_655_468)">
<path d="M61.1402 207.094C60.9591 206.423 60.6928 205.832 60.3412 205.32C59.9897 204.798 59.5582 204.356 59.0468 203.994C58.5355 203.632 57.9495 203.36 57.289 203.179C56.6285 202.987 55.9041 202.892 55.1157 202.892C53.5284 202.892 52.1541 203.275 50.9929 204.042C49.8423 204.809 48.9527 205.928 48.3242 207.398C47.6956 208.857 47.3813 210.631 47.3813 212.719C47.3813 214.818 47.685 216.608 48.2922 218.089C48.8995 219.569 49.7784 220.699 50.9289 221.476C52.0795 222.254 53.4751 222.643 55.1157 222.643C56.5646 222.643 57.7897 222.409 58.7911 221.94C59.8032 221.46 60.5703 220.784 61.0923 219.91C61.6143 219.037 61.8753 218.009 61.8753 216.826L63.3455 217.002H55.3874V211.233H69.4978V215.564C69.4978 218.493 68.8746 221.002 67.6282 223.09C66.3924 225.178 64.6878 226.782 62.5145 227.9C60.3519 229.019 57.8643 229.578 55.0518 229.578C51.9304 229.578 49.1871 228.902 46.822 227.549C44.457 226.196 42.6139 224.268 41.2929 221.764C39.9719 219.25 39.3114 216.267 39.3114 212.815C39.3114 210.131 39.7109 207.749 40.5099 205.672C41.3089 203.584 42.4222 201.816 43.8497 200.367C45.288 198.918 46.9499 197.82 48.8355 197.075C50.7318 196.329 52.772 195.956 54.9559 195.956C56.8522 195.956 58.6154 196.228 60.2453 196.771C61.886 197.314 63.3348 198.081 64.5919 199.072C65.8597 200.063 66.8877 201.24 67.6761 202.604C68.4644 203.968 68.9545 205.464 69.1463 207.094H61.1402ZM111.745 229.578C109.252 229.578 107.041 229.152 105.113 228.3C103.195 227.437 101.682 226.249 100.575 224.736C99.4666 223.224 98.9019 221.482 98.8806 219.511H106.839C106.871 220.225 107.1 220.858 107.526 221.412C107.952 221.956 108.533 222.382 109.268 222.691C110.003 223 110.839 223.154 111.777 223.154C112.714 223.154 113.54 222.989 114.253 222.659C114.978 222.318 115.543 221.855 115.947 221.269C116.352 220.672 116.549 219.99 116.539 219.223C116.549 218.456 116.331 217.774 115.883 217.178C115.436 216.581 114.802 216.118 113.982 215.787C113.172 215.457 112.213 215.292 111.105 215.292H107.925V209.667H111.105C112.075 209.667 112.927 209.507 113.662 209.188C114.408 208.868 114.989 208.421 115.404 207.845C115.82 207.259 116.022 206.588 116.011 205.832C116.022 205.097 115.846 204.452 115.484 203.898C115.132 203.334 114.637 202.897 113.998 202.588C113.369 202.279 112.639 202.124 111.809 202.124C110.935 202.124 110.141 202.279 109.427 202.588C108.724 202.897 108.165 203.334 107.75 203.898C107.334 204.463 107.116 205.118 107.094 205.864H99.5358C99.5571 203.914 100.1 202.199 101.166 200.718C102.231 199.227 103.68 198.06 105.512 197.219C107.355 196.377 109.454 195.956 111.809 195.956C114.152 195.956 116.214 196.366 117.993 197.187C119.772 198.007 121.157 199.126 122.148 200.542C123.138 201.949 123.634 203.541 123.634 205.32C123.644 207.164 123.043 208.682 121.828 209.875C120.624 211.068 119.074 211.803 117.178 212.08V212.336C119.713 212.634 121.626 213.454 122.915 214.797C124.214 216.139 124.859 217.817 124.848 219.83C124.848 221.727 124.289 223.41 123.17 224.88C122.062 226.34 120.518 227.49 118.536 228.332C116.565 229.163 114.301 229.578 111.745 229.578ZM167.039 229.578C164.653 229.578 162.533 229.147 160.679 228.284C158.825 227.421 157.361 226.233 156.285 224.72C155.219 223.208 154.665 221.471 154.623 219.511H162.293C162.357 220.715 162.847 221.684 163.763 222.419C164.679 223.144 165.771 223.506 167.039 223.506C168.03 223.506 168.909 223.287 169.676 222.851C170.443 222.414 171.045 221.801 171.482 221.013C171.918 220.214 172.131 219.298 172.121 218.264C172.131 217.21 171.913 216.288 171.466 215.5C171.029 214.711 170.422 214.099 169.644 213.662C168.877 213.215 167.993 212.991 166.991 212.991C166.043 212.98 165.143 213.188 164.291 213.614C163.449 214.04 162.81 214.621 162.373 215.356L155.39 214.046L156.812 196.404H177.81V202.78H163.316L162.565 210.498H162.756C163.3 209.593 164.173 208.847 165.377 208.261C166.592 207.664 167.971 207.366 169.516 207.366C171.476 207.366 173.223 207.824 174.758 208.74C176.302 209.646 177.517 210.903 178.401 212.512C179.296 214.12 179.743 215.963 179.743 218.041C179.743 220.289 179.211 222.281 178.145 224.017C177.091 225.754 175.61 227.117 173.703 228.108C171.807 229.088 169.585 229.578 167.039 229.578ZM222.645 196.404H230.444V219.031C230.433 221.151 229.927 223.005 228.926 224.593C227.924 226.169 226.539 227.394 224.771 228.268C223.013 229.142 220.978 229.578 218.666 229.578C216.621 229.578 214.762 229.221 213.089 228.508C211.427 227.794 210.101 226.686 209.11 225.184C208.13 223.682 207.645 221.759 207.656 219.415H215.534C215.566 220.257 215.726 220.976 216.014 221.572C216.312 222.158 216.722 222.6 217.244 222.899C217.766 223.197 218.389 223.346 219.114 223.346C219.87 223.346 220.509 223.186 221.031 222.867C221.553 222.536 221.948 222.052 222.214 221.412C222.491 220.773 222.635 219.98 222.645 219.031V196.404ZM275.679 196.404V229.131H267.784V203.786H267.593L260.274 208.261V201.421L268.344 196.404H275.679ZM323.247 196.404V229.131H315.353V203.786H315.161L307.842 208.261V201.421L315.912 196.404H323.247Z" fill="#F6B17A"/>
</g>
<rect x="16.1274" y="155.27" width="334" height="122" rx="19" stroke="#F6B17A" stroke-width="2"/>
<path d="M127.786 142.131V129.04H132.58C133.509 129.04 134.278 129.193 134.887 129.5C135.497 129.803 135.953 130.214 136.255 130.734C136.558 131.249 136.709 131.831 136.709 132.479C136.709 133.024 136.609 133.485 136.409 133.86C136.208 134.23 135.94 134.529 135.603 134.754C135.271 134.976 134.904 135.138 134.504 135.24V135.368C134.938 135.389 135.362 135.53 135.776 135.79C136.193 136.046 136.539 136.41 136.811 136.883C137.084 137.356 137.22 137.931 137.22 138.609C137.22 139.278 137.063 139.879 136.747 140.411C136.436 140.94 135.955 141.36 135.303 141.671C134.651 141.977 133.818 142.131 132.804 142.131H127.786ZM129.761 140.437H132.612C133.558 140.437 134.235 140.254 134.644 139.887C135.054 139.521 135.258 139.063 135.258 138.513C135.258 138.1 135.154 137.72 134.945 137.375C134.736 137.03 134.438 136.755 134.05 136.551C133.666 136.346 133.21 136.244 132.682 136.244H129.761V140.437ZM129.761 134.703H132.407C132.85 134.703 133.249 134.618 133.603 134.448C133.96 134.277 134.244 134.039 134.453 133.732C134.666 133.421 134.772 133.054 134.772 132.632C134.772 132.091 134.583 131.637 134.203 131.271C133.824 130.904 133.242 130.721 132.458 130.721H129.761V134.703ZM139.59 142.131V132.313H143.661C144.769 132.313 145.647 132.549 146.295 133.022C146.943 133.491 147.267 134.128 147.267 134.933C147.267 135.509 147.083 135.965 146.717 136.301C146.35 136.638 145.865 136.864 145.259 136.979C145.698 137.03 146.101 137.162 146.468 137.375C146.834 137.584 147.128 137.865 147.35 138.219C147.575 138.573 147.688 138.994 147.688 139.485C147.688 140.004 147.554 140.465 147.286 140.865C147.017 141.262 146.627 141.573 146.116 141.798C145.609 142.02 144.997 142.131 144.281 142.131H139.59ZM141.386 140.533H144.281C144.754 140.533 145.125 140.42 145.394 140.194C145.662 139.968 145.796 139.661 145.796 139.274C145.796 138.818 145.662 138.46 145.394 138.2C145.125 137.936 144.754 137.803 144.281 137.803H141.386V140.533ZM141.386 136.404H143.681C144.039 136.404 144.345 136.352 144.601 136.25C144.861 136.148 145.059 136.003 145.196 135.816C145.336 135.624 145.406 135.398 145.406 135.138C145.406 134.759 145.251 134.463 144.94 134.249C144.629 134.036 144.203 133.93 143.661 133.93H141.386V136.404ZM154.197 142.329C153.229 142.329 152.396 142.122 151.697 141.709C151.003 141.291 150.466 140.705 150.086 139.951C149.711 139.193 149.524 138.304 149.524 137.286C149.524 136.28 149.711 135.394 150.086 134.627C150.466 133.86 150.994 133.261 151.672 132.83C152.354 132.4 153.15 132.185 154.062 132.185C154.616 132.185 155.153 132.276 155.673 132.46C156.193 132.643 156.66 132.931 157.073 133.323C157.486 133.715 157.812 134.224 158.051 134.85C158.29 135.472 158.409 136.229 158.409 137.119V137.797H150.604V136.365H156.536C156.536 135.862 156.434 135.417 156.229 135.029C156.025 134.637 155.737 134.328 155.366 134.102C155 133.877 154.569 133.764 154.075 133.764C153.538 133.764 153.069 133.896 152.669 134.16C152.273 134.42 151.966 134.761 151.748 135.183C151.535 135.6 151.429 136.054 151.429 136.544V137.663C151.429 138.319 151.544 138.877 151.774 139.338C152.008 139.798 152.334 140.149 152.752 140.392C153.17 140.631 153.657 140.75 154.216 140.75C154.578 140.75 154.908 140.699 155.206 140.597C155.505 140.49 155.763 140.333 155.98 140.124C156.197 139.915 156.363 139.657 156.479 139.35L158.287 139.676C158.143 140.209 157.883 140.676 157.508 141.076C157.137 141.472 156.67 141.781 156.108 142.003C155.55 142.22 154.912 142.329 154.197 142.329ZM159.751 144.963V140.475H160.55C160.754 140.288 160.927 140.064 161.067 139.804C161.212 139.544 161.334 139.235 161.432 138.877C161.534 138.519 161.619 138.102 161.687 137.624C161.756 137.143 161.815 136.593 161.866 135.975L162.173 132.313H168.847V140.475H170.355V144.963H168.489V142.131H161.643V144.963H159.751ZM162.595 140.475H166.98V133.949H163.886L163.682 135.975C163.584 137.007 163.46 137.901 163.311 138.66C163.162 139.414 162.923 140.019 162.595 140.475ZM174.276 139.453L178.603 132.313H180.662V142.131H178.789V134.985L174.481 142.131H172.403V132.313H174.276V139.453ZM182.194 133.962V132.313H190.478V133.962H187.275V142.131H185.409V133.962H182.194ZM196.454 142.329C195.486 142.329 194.653 142.122 193.954 141.709C193.26 141.291 192.723 140.705 192.344 139.951C191.969 139.193 191.781 138.304 191.781 137.286C191.781 136.28 191.969 135.394 192.344 134.627C192.723 133.86 193.251 133.261 193.929 132.83C194.611 132.4 195.407 132.185 196.319 132.185C196.873 132.185 197.41 132.276 197.93 132.46C198.45 132.643 198.917 132.931 199.33 133.323C199.743 133.715 200.069 134.224 200.308 134.85C200.547 135.472 200.666 136.229 200.666 137.119V137.797H192.861V136.365H198.793C198.793 135.862 198.691 135.417 198.486 135.029C198.282 134.637 197.994 134.328 197.623 134.102C197.257 133.877 196.827 133.764 196.332 133.764C195.795 133.764 195.327 133.896 194.926 134.16C194.53 134.42 194.223 134.761 194.006 135.183C193.792 135.6 193.686 136.054 193.686 136.544V137.663C193.686 138.319 193.801 138.877 194.031 139.338C194.265 139.798 194.591 140.149 195.009 140.392C195.427 140.631 195.915 140.75 196.473 140.75C196.835 140.75 197.165 140.699 197.464 140.597C197.762 140.49 198.02 140.333 198.237 140.124C198.454 139.915 198.621 139.657 198.736 139.35L200.545 139.676C200.4 140.209 200.14 140.676 199.765 141.076C199.394 141.472 198.927 141.781 198.365 142.003C197.807 142.22 197.17 142.329 196.454 142.329ZM207.91 142.131V132.313H209.821V136.429H210.742L213.983 132.313H216.348L212.544 137.088L216.392 142.131H214.021L211.062 138.206H209.821V142.131H207.91ZM221.788 142.329C220.868 142.329 220.065 142.118 219.379 141.696C218.693 141.274 218.16 140.684 217.781 139.926C217.401 139.167 217.212 138.281 217.212 137.267C217.212 136.248 217.401 135.357 217.781 134.595C218.16 133.832 218.693 133.24 219.379 132.818C220.065 132.396 220.868 132.185 221.788 132.185C222.709 132.185 223.512 132.396 224.198 132.818C224.884 133.24 225.417 133.832 225.796 134.595C226.175 135.357 226.365 136.248 226.365 137.267C226.365 138.281 226.175 139.167 225.796 139.926C225.417 140.684 224.884 141.274 224.198 141.696C223.512 142.118 222.709 142.329 221.788 142.329ZM221.795 140.725C222.391 140.725 222.886 140.567 223.278 140.252C223.67 139.936 223.96 139.517 224.147 138.992C224.339 138.468 224.435 137.891 224.435 137.26C224.435 136.634 224.339 136.058 224.147 135.534C223.96 135.006 223.67 134.582 223.278 134.262C222.886 133.943 222.391 133.783 221.795 133.783C221.194 133.783 220.695 133.943 220.299 134.262C219.907 134.582 219.615 135.006 219.423 135.534C219.236 136.058 219.142 136.634 219.142 137.26C219.142 137.891 219.236 138.468 219.423 138.992C219.615 139.517 219.907 139.936 220.299 140.252C220.695 140.567 221.194 140.725 221.795 140.725ZM227.72 144.963V140.475H228.519C228.723 140.288 228.896 140.064 229.036 139.804C229.181 139.544 229.303 139.235 229.401 138.877C229.503 138.519 229.588 138.102 229.656 137.624C229.725 137.143 229.784 136.593 229.835 135.975L230.142 132.313H236.816V140.475H238.324V144.963H236.458V142.131H229.612V144.963H227.72ZM230.564 140.475H234.949V133.949H231.855L231.651 135.975C231.553 137.007 231.429 137.901 231.28 138.66C231.131 139.414 230.892 140.019 230.564 140.475Z" fill="#FAE5D1"/>
<path d="M7.79102 45.9342C49.0593 43.3928 129.924 45.3705 146.819 110.5M146.819 110.5L154.686 85.0161M146.819 110.5L123.644 97.6514" stroke="#FAE5D1" stroke-width="5" stroke-linecap="round" stroke-linejoin="round"/>
<path d="M388.529 14.2534C388.785 14.2534 388.977 14.3574 389.105 14.5654C389.233 14.7734 389.241 14.9974 389.129 15.2374C388.873 15.8454 388.713 16.3574 388.649 16.7734C388.585 17.1894 388.577 17.5414 388.625 17.8294C388.673 18.1174 388.729 18.3974 388.793 18.6694C388.873 18.9414 388.913 19.2454 388.913 19.5814C388.913 19.9814 388.777 20.3174 388.505 20.5894C388.249 20.8454 387.929 20.9734 387.545 20.9734C387.081 20.9734 386.721 20.7814 386.465 20.3974C386.209 19.9974 386.081 19.4934 386.081 18.8854C386.081 18.4854 386.161 18.0294 386.321 17.5174C386.481 16.9894 386.689 16.4774 386.945 15.9814C387.201 15.4854 387.465 15.0774 387.737 14.7574C388.025 14.4214 388.289 14.2534 388.529 14.2534ZM392.153 14.2534C392.393 14.2534 392.577 14.3574 392.705 14.5654C392.849 14.7734 392.865 14.9974 392.753 15.2374C392.481 15.8454 392.313 16.3574 392.249 16.7734C392.201 17.1894 392.201 17.5414 392.249 17.8294C392.297 18.1174 392.353 18.3974 392.417 18.6694C392.497 18.9414 392.537 19.2454 392.537 19.5814C392.537 19.9814 392.401 20.3174 392.129 20.5894C391.857 20.8454 391.537 20.9734 391.169 20.9734C390.705 20.9734 390.337 20.7814 390.065 20.3974C389.809 19.9974 389.681 19.4934 389.681 18.8854C389.681 18.4854 389.761 18.0294 389.921 17.5174C390.097 16.9894 390.305 16.4774 390.545 15.9814C390.801 15.4854 391.073 15.0774 391.361 14.7574C391.649 14.4214 391.913 14.2534 392.153 14.2534ZM396.595 34.1494C396.275 34.1494 396.003 34.0454 395.779 33.8374C395.571 33.6134 395.467 33.3414 395.467 33.0214V16.5334C395.467 16.1974 395.571 15.9254 395.779 15.7174C396.003 15.5094 396.275 15.4054 396.595 15.4054C396.931 15.4054 397.203 15.5094 397.411 15.7174C397.619 15.9254 397.723 16.1974 397.723 16.5334V23.6614H409.075V16.5334C409.075 16.1974 409.179 15.9254 409.387 15.7174C409.611 15.5094 409.883 15.4054 410.203 15.4054C410.539 15.4054 410.811 15.5094 411.019 15.7174C411.227 15.9254 411.331 16.1974 411.331 16.5334V33.0214C411.331 33.3414 411.227 33.6134 411.019 33.8374C410.811 34.0454 410.539 34.1494 410.203 34.1494C409.883 34.1494 409.611 34.0454 409.387 33.8374C409.179 33.6134 409.075 33.3414 409.075 33.0214V25.6534H397.723V33.0214C397.723 33.3414 397.619 33.6134 397.411 33.8374C397.203 34.0454 396.931 34.1494 396.595 34.1494ZM422.235 34.2454C420.907 34.2454 419.731 33.9654 418.707 33.4054C417.699 32.8294 416.907 32.0454 416.331 31.0534C415.755 30.0454 415.467 28.8934 415.467 27.5974C415.467 26.2854 415.739 25.1334 416.283 24.1414C416.827 23.1334 417.579 22.3494 418.539 21.7894C419.499 21.2134 420.611 20.9254 421.875 20.9254C423.107 20.9254 424.171 21.2054 425.067 21.7654C425.963 22.3094 426.651 23.0694 427.131 24.0454C427.611 25.0054 427.851 26.1174 427.851 27.3814C427.851 27.6534 427.755 27.8854 427.563 28.0774C427.387 28.2534 427.147 28.3414 426.843 28.3414H416.979V26.5654H426.867L425.883 27.2614C425.867 26.4134 425.699 25.6534 425.379 24.9814C425.059 24.3094 424.603 23.7814 424.011 23.3974C423.419 23.0134 422.707 22.8214 421.875 22.8214C420.963 22.8214 420.171 23.0294 419.499 23.4454C418.843 23.8614 418.339 24.4294 417.987 25.1494C417.635 25.8694 417.459 26.6854 417.459 27.5974C417.459 28.5094 417.659 29.3254 418.059 30.0454C418.475 30.7494 419.035 31.3094 419.739 31.7254C420.459 32.1414 421.291 32.3494 422.235 32.3494C422.747 32.3494 423.275 32.2534 423.819 32.0614C424.379 31.8694 424.819 31.6454 425.139 31.3894C425.363 31.2134 425.603 31.1254 425.859 31.1254C426.115 31.1094 426.339 31.1814 426.531 31.3414C426.771 31.5654 426.899 31.8134 426.915 32.0854C426.931 32.3414 426.819 32.5654 426.579 32.7574C426.035 33.1894 425.355 33.5494 424.539 33.8374C423.739 34.1094 422.971 34.2454 422.235 34.2454ZM434.215 34.1494C433.543 34.1494 432.943 33.9654 432.415 33.5974C431.887 33.2294 431.471 32.7254 431.167 32.0854C430.879 31.4294 430.735 30.6774 430.735 29.8294V16.4854C430.735 16.1654 430.831 15.9094 431.023 15.7174C431.231 15.5094 431.495 15.4054 431.815 15.4054C432.151 15.4054 432.415 15.5094 432.607 15.7174C432.815 15.9094 432.919 16.1654 432.919 16.4854V29.8294C432.919 30.4534 433.039 30.9654 433.279 31.3654C433.535 31.7654 433.847 31.9654 434.215 31.9654H434.815C435.119 31.9654 435.359 32.0694 435.535 32.2774C435.711 32.4694 435.799 32.7334 435.799 33.0694C435.799 33.3894 435.663 33.6534 435.391 33.8614C435.135 34.0534 434.799 34.1494 434.383 34.1494H434.215ZM441.487 34.1494C440.815 34.1494 440.215 33.9654 439.687 33.5974C439.159 33.2294 438.743 32.7254 438.439 32.0854C438.151 31.4294 438.007 30.6774 438.007 29.8294V16.4854C438.007 16.1654 438.103 15.9094 438.295 15.7174C438.503 15.5094 438.767 15.4054 439.087 15.4054C439.423 15.4054 439.687 15.5094 439.879 15.7174C440.087 15.9094 440.191 16.1654 440.191 16.4854V29.8294C440.191 30.4534 440.311 30.9654 440.551 31.3654C440.807 31.7654 441.119 31.9654 441.487 31.9654H442.087C442.391 31.9654 442.631 32.0694 442.807 32.2774C442.983 32.4694 443.071 32.7334 443.071 33.0694C443.071 33.3894 442.935 33.6534 442.663 33.8614C442.407 34.0534 442.071 34.1494 441.655 34.1494H441.487ZM450.983 34.2454C449.703 34.2454 448.559 33.9654 447.551 33.4054C446.559 32.8294 445.775 32.0454 445.199 31.0534C444.639 30.0454 444.359 28.8934 444.359 27.5974C444.359 26.2854 444.639 25.1334 445.199 24.1414C445.775 23.1334 446.559 22.3494 447.551 21.7894C448.559 21.2134 449.703 20.9254 450.983 20.9254C452.263 20.9254 453.399 21.2134 454.391 21.7894C455.399 22.3494 456.183 23.1334 456.743 24.1414C457.319 25.1334 457.615 26.2854 457.631 27.5974C457.631 28.8934 457.343 30.0454 456.767 31.0534C456.191 32.0454 455.407 32.8294 454.415 33.4054C453.423 33.9654 452.279 34.2454 450.983 34.2454ZM450.983 32.2774C451.863 32.2774 452.639 32.0774 453.311 31.6774C453.983 31.2774 454.511 30.7254 454.895 30.0214C455.279 29.3174 455.471 28.5094 455.471 27.5974C455.471 26.6854 455.279 25.8774 454.895 25.1734C454.511 24.4534 453.983 23.8934 453.311 23.4934C452.639 23.0934 451.863 22.8934 450.983 22.8934C450.119 22.8934 449.343 23.0934 448.655 23.4934C447.983 23.8934 447.455 24.4534 447.071 25.1734C446.687 25.8774 446.495 26.6854 446.495 27.5974C446.495 28.5094 446.687 29.3174 447.071 30.0214C447.455 30.7254 447.983 31.2774 448.655 31.6774C449.343 32.0774 450.119 32.2774 450.983 32.2774ZM386.292 61.1494C386.052 61.1494 385.836 61.0854 385.644 60.9574C385.452 60.8134 385.316 60.6374 385.236 60.4294L381.612 49.5574C381.5 49.0934 381.508 48.7254 381.636 48.4534C381.764 48.1654 382.036 48.0214 382.452 48.0214C382.724 48.0214 382.948 48.0934 383.124 48.2374C383.316 48.3814 383.468 48.6214 383.58 48.9574L386.724 58.7014H386.004L388.932 48.8614C389.012 48.6054 389.14 48.4054 389.316 48.2614C389.492 48.1014 389.732 48.0214 390.036 48.0214C390.324 48.0214 390.556 48.1014 390.732 48.2614C390.924 48.4054 391.052 48.6054 391.116 48.8614L393.684 58.2694H393.3L396.3 48.9574C396.492 48.3334 396.86 48.0214 397.404 48.0214C397.82 48.0214 398.1 48.1734 398.244 48.4774C398.388 48.7654 398.38 49.1254 398.22 49.5574L394.596 60.4294C394.532 60.6374 394.404 60.8134 394.212 60.9574C394.036 61.0854 393.82 61.1494 393.564 61.1494C393.34 61.1494 393.124 61.0854 392.916 60.9574C392.708 60.8134 392.58 60.6374 392.532 60.4294L389.844 50.9494H390.108L387.348 60.4294C387.284 60.6374 387.148 60.8134 386.94 60.9574C386.748 61.0854 386.532 61.1494 386.292 61.1494ZM406.617 61.2454C405.337 61.2454 404.193 60.9654 403.185 60.4054C402.193 59.8294 401.409 59.0454 400.833 58.0534C400.273 57.0454 399.993 55.8934 399.993 54.5974C399.993 53.2854 400.273 52.1334 400.833 51.1414C401.409 50.1334 402.193 49.3494 403.185 48.7894C404.193 48.2134 405.337 47.9254 406.617 47.9254C407.897 47.9254 409.033 48.2134 410.025 48.7894C411.033 49.3494 411.817 50.1334 412.377 51.1414C412.953 52.1334 413.249 53.2854 413.265 54.5974C413.265 55.8934 412.977 57.0454 412.401 58.0534C411.825 59.0454 411.041 59.8294 410.049 60.4054C409.057 60.9654 407.913 61.2454 406.617 61.2454ZM406.617 59.2774C407.497 59.2774 408.273 59.0774 408.945 58.6774C409.617 58.2774 410.145 57.7254 410.529 57.0214C410.913 56.3174 411.105 55.5094 411.105 54.5974C411.105 53.6854 410.913 52.8774 410.529 52.1734C410.145 51.4534 409.617 50.8934 408.945 50.4934C408.273 50.0934 407.497 49.8934 406.617 49.8934C405.753 49.8934 404.977 50.0934 404.289 50.4934C403.617 50.8934 403.089 51.4534 402.705 52.1734C402.321 52.8774 402.129 53.6854 402.129 54.5974C402.129 55.5094 402.321 56.3174 402.705 57.0214C403.089 57.7254 403.617 58.2774 404.289 58.6774C404.977 59.0774 405.753 59.2774 406.617 59.2774ZM418.132 52.9894C418.164 52.0134 418.412 51.1414 418.876 50.3734C419.356 49.6054 419.988 48.9974 420.772 48.5494C421.556 48.1014 422.42 47.8774 423.364 47.8774C424.244 47.8774 424.9 48.0134 425.332 48.2854C425.78 48.5574 425.948 48.9014 425.836 49.3174C425.788 49.5574 425.692 49.7334 425.548 49.8454C425.404 49.9414 425.236 49.9974 425.044 50.0134C424.852 50.0134 424.644 49.9974 424.42 49.9654C423.444 49.8054 422.572 49.8294 421.804 50.0374C421.036 50.2454 420.428 50.6054 419.98 51.1174C419.532 51.6294 419.308 52.2534 419.308 52.9894H418.132ZM418.204 61.1494C417.868 61.1494 417.604 61.0614 417.412 60.8854C417.22 60.6934 417.124 60.4214 417.124 60.0694V49.1014C417.124 48.7654 417.22 48.5014 417.412 48.3094C417.604 48.1174 417.868 48.0214 418.204 48.0214C418.572 48.0214 418.844 48.1174 419.02 48.3094C419.212 48.4854 419.308 48.7494 419.308 49.1014V60.0694C419.308 60.4054 419.212 60.6694 419.02 60.8614C418.844 61.0534 418.572 61.1494 418.204 61.1494ZM431.754 61.1494C431.082 61.1494 430.482 60.9654 429.954 60.5974C429.426 60.2294 429.01 59.7254 428.706 59.0854C428.418 58.4294 428.274 57.6774 428.274 56.8294V43.4854C428.274 43.1654 428.37 42.9094 428.562 42.7174C428.77 42.5094 429.034 42.4054 429.354 42.4054C429.69 42.4054 429.954 42.5094 430.146 42.7174C430.354 42.9094 430.458 43.1654 430.458 43.4854V56.8294C430.458 57.4534 430.578 57.9654 430.818 58.3654C431.074 58.7654 431.386 58.9654 431.754 58.9654H432.354C432.658 58.9654 432.898 59.0694 433.074 59.2774C433.25 59.4694 433.338 59.7334 433.338 60.0694C433.338 60.3894 433.202 60.6534 432.93 60.8614C432.674 61.0534 432.338 61.1494 431.922 61.1494H431.754ZM441.251 61.2454C440.003 61.2454 438.875 60.9574 437.867 60.3814C436.875 59.7894 436.083 58.9894 435.491 57.9814C434.915 56.9734 434.627 55.8374 434.627 54.5734C434.627 53.3094 434.899 52.1814 435.443 51.1894C435.987 50.1814 436.731 49.3894 437.675 48.8134C438.619 48.2214 439.691 47.9254 440.891 47.9254C441.883 47.9254 442.787 48.1334 443.603 48.5494C444.435 48.9654 445.123 49.5254 445.667 50.2294V43.5094C445.667 43.1734 445.771 42.9094 445.979 42.7174C446.187 42.5094 446.451 42.4054 446.771 42.4054C447.107 42.4054 447.379 42.5094 447.587 42.7174C447.795 42.9094 447.899 43.1734 447.899 43.5094V54.6214C447.883 55.8694 447.579 56.9974 446.987 58.0054C446.411 59.0134 445.619 59.8054 444.611 60.3814C443.619 60.9574 442.499 61.2454 441.251 61.2454ZM441.251 59.2774C442.115 59.2774 442.883 59.0774 443.555 58.6774C444.227 58.2614 444.755 57.7014 445.139 56.9974C445.539 56.2774 445.739 55.4694 445.739 54.5734C445.739 53.6774 445.539 52.8774 445.139 52.1734C444.755 51.4694 444.227 50.9174 443.555 50.5174C442.883 50.1014 442.115 49.8934 441.251 49.8934C440.419 49.8934 439.659 50.1014 438.971 50.5174C438.283 50.9174 437.739 51.4694 437.339 52.1734C436.955 52.8774 436.763 53.6774 436.763 54.5734C436.763 55.4694 436.955 56.2774 437.339 56.9974C437.739 57.7014 438.283 58.2614 438.971 58.6774C439.659 59.0774 440.419 59.2774 441.251 59.2774ZM453.061 56.7814C452.741 56.7814 452.469 56.6694 452.245 56.4454C452.037 56.2214 451.933 55.9654 451.933 55.6774V43.5334C451.933 43.2134 452.037 42.9494 452.245 42.7414C452.469 42.5174 452.741 42.4054 453.061 42.4054C453.381 42.4054 453.645 42.5174 453.853 42.7414C454.061 42.9494 454.165 43.2134 454.165 43.5334V55.6774C454.165 55.9814 454.053 56.2454 453.829 56.4694C453.605 56.6774 453.349 56.7814 453.061 56.7814ZM453.061 61.1494C452.629 61.1494 452.261 60.9974 451.957 60.6934C451.653 60.3894 451.501 60.0214 451.501 59.5894C451.501 59.1414 451.653 58.7654 451.957 58.4614C452.261 58.1574 452.629 58.0054 453.061 58.0054C453.493 58.0054 453.861 58.1654 454.165 58.4854C454.469 58.7894 454.621 59.1574 454.621 59.5894C454.621 60.0214 454.461 60.3894 454.141 60.6934C453.837 60.9974 453.477 61.1494 453.061 61.1494ZM462.451 47.9734C462.083 47.9734 461.763 47.8454 461.491 47.5894C461.219 47.3174 461.083 46.9814 461.083 46.5814C461.083 46.2454 461.115 45.9494 461.179 45.6934C461.259 45.4214 461.323 45.1414 461.371 44.8534C461.419 44.5494 461.411 44.1894 461.347 43.7734C461.299 43.3574 461.147 42.8454 460.891 42.2374C460.779 41.9974 460.787 41.7734 460.915 41.5654C461.043 41.3574 461.227 41.2534 461.467 41.2534C461.723 41.2534 461.987 41.4214 462.259 41.7574C462.547 42.0774 462.811 42.4854 463.051 42.9814C463.307 43.4774 463.515 43.9894 463.675 44.5174C463.851 45.0294 463.939 45.4854 463.939 45.8854C463.939 46.4934 463.803 46.9974 463.531 47.3974C463.275 47.7814 462.915 47.9734 462.451 47.9734ZM458.923 47.9734C458.539 47.9734 458.211 47.8454 457.939 47.5894C457.683 47.3174 457.555 46.9814 457.555 46.5814C457.555 46.2454 457.587 45.9494 457.651 45.6934C457.715 45.4214 457.771 45.1414 457.819 44.8534C457.883 44.5494 457.883 44.1894 457.819 43.7734C457.755 43.3574 457.595 42.8454 457.339 42.2374C457.227 41.9974 457.235 41.7734 457.363 41.5654C457.507 41.3574 457.691 41.2534 457.915 41.2534C458.171 41.2534 458.435 41.4214 458.707 41.7574C458.995 42.0774 459.259 42.4854 459.499 42.9814C459.755 43.4774 459.963 43.9894 460.123 44.5174C460.299 45.0294 460.387 45.4854 460.387 45.8854C460.387 46.4934 460.259 46.9974 460.003 47.3974C459.747 47.7814 459.387 47.9734 458.923 47.9734Z" fill="#F6B17A"/>
<path d="M346.349 69.8433C285.172 69.8433 224.278 67.7721 204.593 112.361M346.349 69.8433L327.184 85.1342M346.349 69.8433L327.184 52.1494" stroke="#FAE5D1" stroke-width="5" stroke-linecap="round" stroke-linejoin="round"/>
<path d="M438.716 138.417L446.091 145.861L460.841 130.972M431.341 78.8613H413.641C409.511 78.8613 407.445 78.8613 405.868 79.6727C404.48 80.3864 403.352 81.5253 402.645 82.9261C401.841 84.5185 401.841 86.6032 401.841 90.7724V133.95C401.841 138.119 401.841 140.204 402.645 141.797C403.352 143.197 404.48 144.336 405.868 145.05C407.445 145.861 409.511 145.861 413.641 145.861H428.8M431.341 78.8613L453.466 101.195M431.341 78.8613V95.2391C431.341 97.3237 431.341 98.3661 431.743 99.1623C432.097 99.8627 432.66 100.432 433.354 100.789C434.143 101.195 435.176 101.195 437.241 101.195H453.466M453.466 101.195V117.572M416.591 130.972H425.81M416.591 116.084H438.716M416.591 101.195H420.279" stroke="#F6B17A" stroke-width="3" stroke-linecap="round" stroke-linejoin="round"/>
</g>
<defs>
<clipPath id="clip0_655_468">
<rect width="485" height="300" fill="white"/>
</clipPath>
<clipPath id="clip1_655_468">
<rect x="15.1274" y="154.27" width="336" height="124" rx="20" fill="white"/>
</clipPath>
</defs>
</svg>
