<svg width="485" height="300" fill="none" xmlns="http://www.w3.org/2000/svg">
  <g clip-path="url(#a)">
    <g clip-path="url(#b)">
      <path d="M61.1402 207.094c-.1811-.671-.4474-1.262-.799-1.774a5.1028 5.1028 0 0 0-1.2944-1.326c-.5113-.362-1.0973-.634-1.7578-.815-.6605-.192-1.3849-.287-2.1733-.287-1.5873 0-2.9616.383-4.1228 1.15-1.1506.767-2.0402 1.886-2.6687 3.356-.6286 1.459-.9429 3.233-.9429 5.321 0 2.099.3037 3.889.9109 5.37.6073 1.48 1.4862 2.61 2.6367 3.387 1.1506.778 2.5462 1.167 4.1868 1.167 1.4489 0 2.674-.234 3.6754-.703 1.0121-.48 1.7792-1.156 2.3012-2.03.522-.873.783-1.901.783-3.084l1.4702.176h-7.9581v-5.769h14.1104v4.331c0 2.929-.6232 5.438-1.8696 7.526-1.2358 2.088-2.9404 3.692-5.1137 4.81-2.1626 1.119-4.6502 1.678-7.4627 1.678-3.1214 0-5.8647-.676-8.2298-2.029-2.365-1.353-4.2081-3.281-5.5291-5.785-1.321-2.514-1.9815-5.497-1.9815-8.949 0-2.684.3995-5.066 1.1985-7.143.799-2.088 1.9123-3.856 3.3398-5.305 1.4383-1.449 3.1002-2.547 4.9858-3.292 1.8963-.746 3.9365-1.119 6.1204-1.119 1.8963 0 3.6595.272 5.2894.815 1.6407.543 3.0895 1.31 4.3466 2.301 1.2678.991 2.2958 2.168 3.0842 3.532.7883 1.364 1.2784 2.86 1.4702 4.49h-8.0061Zm50.6048 22.484c-2.493 0-4.704-.426-6.632-1.278-1.918-.863-3.431-2.051-4.538-3.564-1.1084-1.512-1.6731-3.254-1.6944-5.225h7.9584c.032.714.261 1.347.687 1.901.426.544 1.007.97 1.742 1.279.735.309 1.571.463 2.509.463.937 0 1.763-.165 2.476-.495.725-.341 1.29-.804 1.694-1.39.405-.597.602-1.279.592-2.046.01-.767-.208-1.449-.656-2.045-.447-.597-1.081-1.06-1.901-1.391-.81-.33-1.769-.495-2.877-.495h-3.18v-5.625h3.18c.97 0 1.822-.16 2.557-.479.746-.32 1.327-.767 1.742-1.343.416-.586.618-1.257.607-2.013.011-.735-.165-1.38-.527-1.934-.352-.564-.847-1.001-1.486-1.31-.629-.309-1.359-.464-2.189-.464-.874 0-1.668.155-2.382.464-.703.309-1.262.746-1.677 1.31-.416.565-.634 1.22-.656 1.966h-7.5582c.0213-1.95.5642-3.665 1.6302-5.146 1.065-1.491 2.514-2.658 4.346-3.499 1.843-.842 3.942-1.263 6.297-1.263 2.343 0 4.405.41 6.184 1.231 1.779.82 3.164 1.939 4.155 3.355.99 1.407 1.486 2.999 1.486 4.778.01 1.844-.591 3.362-1.806 4.555-1.204 1.193-2.754 1.928-4.65 2.205v.256c2.535.298 4.448 1.118 5.737 2.461 1.299 1.342 1.944 3.02 1.933 5.033 0 1.897-.559 3.58-1.678 5.05-1.108 1.46-2.652 2.61-4.634 3.452-1.971.831-4.235 1.246-6.791 1.246Zm55.294 0c-2.386 0-4.506-.431-6.36-1.294s-3.318-2.051-4.394-3.564c-1.066-1.512-1.62-3.249-1.662-5.209h7.67c.064 1.204.554 2.173 1.47 2.908.916.725 2.008 1.087 3.276 1.087.991 0 1.87-.219 2.637-.655.767-.437 1.369-1.05 1.806-1.838.436-.799.649-1.715.639-2.749.01-1.054-.208-1.976-.655-2.764-.437-.789-1.044-1.401-1.822-1.838-.767-.447-1.651-.671-2.653-.671-.948-.011-1.848.197-2.7.623-.842.426-1.481 1.007-1.918 1.742l-6.983-1.31 1.422-17.642h20.998v6.376h-14.494l-.751 7.718h.191c.544-.905 1.417-1.651 2.621-2.237 1.215-.597 2.594-.895 4.139-.895 1.96 0 3.707.458 5.242 1.374 1.544.906 2.759 2.163 3.643 3.772.895 1.608 1.342 3.451 1.342 5.529 0 2.248-.532 4.24-1.598 5.976-1.054 1.737-2.535 3.1-4.442 4.091-1.896.98-4.118 1.47-6.664 1.47Zm55.606-33.174h7.799v22.627c-.011 2.12-.517 3.974-1.518 5.562-1.002 1.576-2.387 2.801-4.155 3.675-1.758.874-3.793 1.31-6.105 1.31-2.045 0-3.904-.357-5.577-1.07-1.662-.714-2.988-1.822-3.979-3.324-.98-1.502-1.465-3.425-1.454-5.769h7.878c.032.842.192 1.561.48 2.157.298.586.708 1.028 1.23 1.327.522.298 1.145.447 1.87.447.756 0 1.395-.16 1.917-.479.522-.331.917-.815 1.183-1.455.277-.639.421-1.432.431-2.381v-22.627Zm53.034 0v32.727h-7.895v-25.345h-.191l-7.319 4.475v-6.84l8.07-5.017h7.335Zm47.568 0v32.727h-7.894v-25.345h-.192l-7.319 4.475v-6.84l8.07-5.017h7.335Z" fill="#F6B17A"/>
    </g>
    <rect x="16.1274" y="155.27" width="334" height="122" rx="19" stroke="#F6B17A" stroke-width="2"/>
    <path d="M127.786 142.131V129.04h4.794c.929 0 1.698.153 2.307.46.61.303 1.066.714 1.368 1.234.303.515.454 1.097.454 1.745 0 .545-.1 1.006-.3 1.381-.201.37-.469.669-.806.894-.332.222-.699.384-1.099.486v.128c.434.021.858.162 1.272.422.417.256.763.62 1.035 1.093.273.473.409 1.048.409 1.726 0 .669-.157 1.27-.473 1.802-.311.529-.792.949-1.444 1.26-.652.306-1.485.46-2.499.46h-5.018Zm1.975-1.694h2.851c.946 0 1.623-.183 2.032-.55.41-.366.614-.824.614-1.374 0-.413-.104-.793-.313-1.138-.209-.345-.507-.62-.895-.824-.384-.205-.84-.307-1.368-.307h-2.921v4.193Zm0-5.734h2.646c.443 0 .842-.085 1.196-.255.357-.171.641-.409.85-.716.213-.311.319-.678.319-1.1 0-.541-.189-.995-.569-1.361-.379-.367-.961-.55-1.745-.55h-2.697v3.982Zm9.829 7.428v-9.818h4.071c1.108 0 1.986.236 2.634.709.648.469.972 1.106.972 1.911 0 .576-.184 1.032-.55 1.368-.367.337-.852.563-1.458.678.439.051.842.183 1.209.396.366.209.66.49.882.844.225.354.338.775.338 1.266 0 .519-.134.98-.402 1.38-.269.397-.659.708-1.17.933-.507.222-1.119.333-1.835.333h-4.691Zm1.796-1.598h2.895c.473 0 .844-.113 1.113-.339.268-.226.402-.533.402-.92 0-.456-.134-.814-.402-1.074-.269-.264-.64-.397-1.113-.397h-2.895v2.73Zm0-4.129h2.295c.358 0 .664-.052.92-.154.26-.102.458-.247.595-.434.14-.192.21-.418.21-.678 0-.379-.155-.675-.466-.889-.311-.213-.737-.319-1.279-.319h-2.275v2.474Zm12.811 5.925c-.968 0-1.801-.207-2.5-.62-.694-.418-1.231-1.004-1.611-1.758-.375-.758-.562-1.647-.562-2.665 0-1.006.187-1.892.562-2.659.38-.767.908-1.366 1.586-1.797.682-.43 1.478-.645 2.39-.645.554 0 1.091.091 1.611.275.52.183.987.471 1.4.863.413.392.739.901.978 1.527.239.622.358 1.379.358 2.269v.678h-7.805v-1.432h5.932c0-.503-.102-.948-.307-1.336-.204-.392-.492-.701-.863-.927-.366-.225-.797-.338-1.291-.338-.537 0-1.006.132-1.406.396-.396.26-.703.601-.921 1.023-.213.417-.319.871-.319 1.361v1.119c0 .656.115 1.214.345 1.675.234.46.56.811.978 1.054.418.239.905.358 1.464.358.362 0 .692-.051.99-.153.299-.107.557-.264.774-.473.217-.209.383-.467.499-.774l1.808.326c-.144.533-.404 1-.779 1.4-.371.396-.838.705-1.4.927-.558.217-1.196.326-1.911.326Zm5.554 2.634v-4.488h.799c.204-.187.377-.411.517-.671.145-.26.267-.569.365-.927.102-.358.187-.775.255-1.253.069-.481.128-1.031.179-1.649l.307-3.662h6.674v8.162h1.508v4.488h-1.866v-2.832h-6.846v2.832h-1.892Zm2.844-4.488h4.385v-6.526h-3.094l-.204 2.026c-.098 1.032-.222 1.926-.371 2.685-.149.754-.388 1.359-.716 1.815Zm11.681-1.022 4.327-7.14h2.059v9.818h-1.873v-7.146l-4.308 7.146h-2.078v-9.818h1.873v7.14Zm7.918-5.491v-1.649h8.284v1.649h-3.203v8.169h-1.866v-8.169h-3.215Zm14.26 8.367c-.968 0-1.801-.207-2.5-.62-.694-.418-1.231-1.004-1.61-1.758-.375-.758-.563-1.647-.563-2.665 0-1.006.188-1.892.563-2.659.379-.767.907-1.366 1.585-1.797.682-.43 1.478-.645 2.39-.645.554 0 1.091.091 1.611.275.52.183.987.471 1.4.863.413.392.739.901.978 1.527.239.622.358 1.379.358 2.269v.678h-7.805v-1.432h5.932c0-.503-.102-.948-.307-1.336-.204-.392-.492-.701-.863-.927-.366-.225-.796-.338-1.291-.338-.537 0-1.005.132-1.406.396-.396.26-.703.601-.92 1.023-.214.417-.32.871-.32 1.361v1.119c0 .656.115 1.214.345 1.675.234.46.56.811.978 1.054.418.239.906.358 1.464.358.362 0 .692-.051.991-.153.298-.107.556-.264.773-.473.217-.209.384-.467.499-.774l1.809.326c-.145.533-.405 1-.78 1.4-.371.396-.838.705-1.4.927-.558.217-1.195.326-1.911.326Zm11.456-.198v-9.818h1.911v4.116h.921l3.241-4.116h2.365l-3.804 4.775 3.848 5.043h-2.371l-2.959-3.925h-1.241v3.925h-1.911Zm13.878.198c-.92 0-1.723-.211-2.409-.633-.686-.422-1.219-1.012-1.598-1.77-.38-.759-.569-1.645-.569-2.659 0-1.019.189-1.91.569-2.672.379-.763.912-1.355 1.598-1.777.686-.422 1.489-.633 2.409-.633.921 0 1.724.211 2.41.633.686.422 1.219 1.014 1.598 1.777.379.762.569 1.653.569 2.672 0 1.014-.19 1.9-.569 2.659-.379.758-.912 1.348-1.598 1.77-.686.422-1.489.633-2.41.633Zm.007-1.604c.596 0 1.091-.158 1.483-.473.392-.316.682-.735.869-1.26.192-.524.288-1.101.288-1.732 0-.626-.096-1.202-.288-1.726-.187-.528-.477-.952-.869-1.272-.392-.319-.887-.479-1.483-.479-.601 0-1.1.16-1.496.479-.392.32-.684.744-.876 1.272-.187.524-.281 1.1-.281 1.726 0 .631.094 1.208.281 1.732.192.525.484.944.876 1.26.396.315.895.473 1.496.473Zm5.925 4.238v-4.488h.799c.204-.187.377-.411.517-.671.145-.26.267-.569.365-.927.102-.358.187-.775.255-1.253.069-.481.128-1.031.179-1.649l.307-3.662h6.674v8.162h1.508v4.488h-1.866v-2.832h-6.846v2.832h-1.892Zm2.844-4.488h4.385v-6.526h-3.094l-.204 2.026c-.098 1.032-.222 1.926-.371 2.685-.149.754-.388 1.359-.716 1.815Z" fill="#FAE5D1"/>
    <path d="M7.791 45.9342c41.2683-2.5414 122.133-.5637 139.028 64.5658m0 0 7.867-25.4839M146.819 110.5l-23.175-12.8486" stroke="#FAE5D1" stroke-width="5" stroke-linecap="round" stroke-linejoin="round"/>
    <path d="M388.529 14.2534c.256 0 .448.104.576.312.128.208.136.432.024.672-.256.608-.416 1.12-.48 1.536-.064.416-.072.768-.024 1.056.048.288.104.568.168.84.08.272.12.576.12.912 0 .4-.136.736-.408 1.008-.256.256-.576.384-.96.384-.464 0-.824-.192-1.08-.576-.256-.4-.384-.904-.384-1.512 0-.4.08-.856.24-1.368.16-.528.368-1.04.624-1.536s.52-.904.792-1.224c.288-.336.552-.504.792-.504Zm3.624 0c.24 0 .424.104.552.312.144.208.16.432.048.672-.272.608-.44 1.12-.504 1.536-.048.416-.048.768 0 1.056.048.288.104.568.168.84.08.272.12.576.12.912 0 .4-.136.736-.408 1.008-.272.256-.592.384-.96.384-.464 0-.832-.192-1.104-.576-.256-.4-.384-.904-.384-1.512 0-.4.08-.856.24-1.368.176-.528.384-1.04.624-1.536.256-.496.528-.904.816-1.224.288-.336.552-.504.792-.504Zm4.442 19.896c-.32 0-.592-.104-.816-.312-.208-.224-.312-.496-.312-.816v-16.488c0-.336.104-.608.312-.816.224-.208.496-.312.816-.312.336 0 .608.104.816.312.208.208.312.48.312.816v7.128h11.352v-7.128c0-.336.104-.608.312-.816.224-.208.496-.312.816-.312.336 0 .608.104.816.312.208.208.312.48.312.816v16.488c0 .32-.104.592-.312.816-.208.208-.48.312-.816.312-.32 0-.592-.104-.816-.312-.208-.224-.312-.496-.312-.816v-7.368h-11.352v7.368c0 .32-.104.592-.312.816-.208.208-.48.312-.816.312Zm25.64.096c-1.328 0-2.504-.28-3.528-.84-1.008-.576-1.8-1.36-2.376-2.352-.576-1.008-.864-2.16-.864-3.456 0-1.312.272-2.464.816-3.456.544-1.008 1.296-1.792 2.256-2.352.96-.576 2.072-.864 3.336-.864 1.232 0 2.296.28 3.192.84.896.544 1.584 1.304 2.064 2.28.48.96.72 2.072.72 3.336 0 .272-.096.504-.288.696-.176.176-.416.264-.72.264h-9.864v-1.776h9.888l-.984.696c-.016-.848-.184-1.608-.504-2.28-.32-.672-.776-1.2-1.368-1.584-.592-.384-1.304-.576-2.136-.576-.912 0-1.704.208-2.376.624-.656.416-1.16.984-1.512 1.704-.352.72-.528 1.536-.528 2.448 0 .912.2 1.728.6 2.448.416.704.976 1.264 1.68 1.68.72.416 1.552.624 2.496.624.512 0 1.04-.096 1.584-.288.56-.192 1-.416 1.32-.672.224-.176.464-.264.72-.264.256-.016.48.056.672.216.24.224.368.472.384.744.016.256-.096.48-.336.672-.544.432-1.224.792-2.04 1.08-.8.272-1.568.408-2.304.408Zm11.98-.096c-.672 0-1.272-.184-1.8-.552-.528-.368-.944-.872-1.248-1.512-.288-.656-.432-1.408-.432-2.256v-13.344c0-.32.096-.576.288-.768.208-.208.472-.312.792-.312.336 0 .6.104.792.312.208.192.312.448.312.768v13.344c0 .624.12 1.136.36 1.536.256.4.568.6.936.6h.6c.304 0 .544.104.72.312.176.192.264.456.264.792 0 .32-.136.584-.408.792-.256.192-.592.288-1.008.288h-.168Zm7.272 0c-.672 0-1.272-.184-1.8-.552-.528-.368-.944-.872-1.248-1.512-.288-.656-.432-1.408-.432-2.256v-13.344c0-.32.096-.576.288-.768.208-.208.472-.312.792-.312.336 0 .6.104.792.312.208.192.312.448.312.768v13.344c0 .624.12 1.136.36 1.536.256.4.568.6.936.6h.6c.304 0 .544.104.72.312.176.192.264.456.264.792 0 .32-.136.584-.408.792-.256.192-.592.288-1.008.288h-.168Zm9.496.096c-1.28 0-2.424-.28-3.432-.84-.992-.576-1.776-1.36-2.352-2.352-.56-1.008-.84-2.16-.84-3.456 0-1.312.28-2.464.84-3.456.576-1.008 1.36-1.792 2.352-2.352 1.008-.576 2.152-.864 3.432-.864 1.28 0 2.416.288 3.408.864 1.008.56 1.792 1.344 2.352 2.352.576.992.872 2.144.888 3.456 0 1.296-.288 2.448-.864 3.456-.576.992-1.36 1.776-2.352 2.352-.992.56-2.136.84-3.432.84Zm0-1.968c.88 0 1.656-.2 2.328-.6.672-.4 1.2-.952 1.584-1.656.384-.704.576-1.512.576-2.424 0-.912-.192-1.72-.576-2.424-.384-.72-.912-1.28-1.584-1.68-.672-.4-1.448-.6-2.328-.6-.864 0-1.64.2-2.328.6-.672.4-1.2.96-1.584 1.68-.384.704-.576 1.512-.576 2.424 0 .912.192 1.72.576 2.424.384.704.912 1.256 1.584 1.656.688.4 1.464.6 2.328.6Zm-64.691 28.872c-.24 0-.456-.064-.648-.192-.192-.144-.328-.32-.408-.528l-3.624-10.872c-.112-.464-.104-.832.024-1.104.128-.288.4-.432.816-.432.272 0 .496.072.672.216.192.144.344.384.456.72l3.144 9.744h-.72l2.928-9.84c.08-.256.208-.456.384-.6.176-.16.416-.24.72-.24.288 0 .52.08.696.24.192.144.32.344.384.6l2.568 9.408h-.384l3-9.312c.192-.624.56-.936 1.104-.936.416 0 .696.152.84.456.144.288.136.648-.024 1.08l-3.624 10.872c-.064.208-.192.384-.384.528-.176.128-.392.192-.648.192-.224 0-.44-.064-.648-.192-.208-.144-.336-.32-.384-.528l-2.688-9.48h.264l-2.76 9.48c-.064.208-.2.384-.408.528-.192.128-.408.192-.648.192Zm20.325.096c-1.28 0-2.424-.28-3.432-.84-.992-.576-1.776-1.36-2.352-2.352-.56-1.008-.84-2.16-.84-3.456 0-1.312.28-2.464.84-3.456.576-1.008 1.36-1.792 2.352-2.352 1.008-.576 2.152-.864 3.432-.864 1.28 0 2.416.288 3.408.864 1.008.56 1.792 1.344 2.352 2.352.576.992.872 2.144.888 3.456 0 1.296-.288 2.448-.864 3.456-.576.992-1.36 1.776-2.352 2.352-.992.56-2.136.84-3.432.84Zm0-1.968c.88 0 1.656-.2 2.328-.6.672-.4 1.2-.952 1.584-1.656.384-.704.576-1.512.576-2.424 0-.912-.192-1.72-.576-2.424-.384-.72-.912-1.28-1.584-1.68-.672-.4-1.448-.6-2.328-.6-.864 0-1.64.2-2.328.6-.672.4-1.2.96-1.584 1.68-.384.704-.576 1.512-.576 2.424 0 .912.192 1.72.576 2.424.384.704.912 1.256 1.584 1.656.688.4 1.464.6 2.328.6Zm11.515-6.288c.032-.976.28-1.848.744-2.616.48-.768 1.112-1.376 1.896-1.824.784-.448 1.648-.672 2.592-.672.88 0 1.536.136 1.968.408.448.272.616.616.504 1.032-.048.24-.144.416-.288.528-.144.096-.312.152-.504.168-.192 0-.4-.016-.624-.048-.976-.16-1.848-.136-2.616.072-.768.208-1.376.568-1.824 1.08-.448.512-.672 1.136-.672 1.872h-1.176Zm.072 8.16c-.336 0-.6-.088-.792-.264-.192-.192-.288-.464-.288-.816v-10.968c0-.336.096-.6.288-.792.192-.192.456-.288.792-.288.368 0 .64.096.816.288.192.176.288.44.288.792v10.968c0 .336-.096.6-.288.792-.176.192-.448.288-.816.288Zm13.55 0c-.672 0-1.272-.184-1.8-.552-.528-.368-.944-.872-1.248-1.512-.288-.656-.432-1.408-.432-2.256v-13.344c0-.32.096-.576.288-.768.208-.208.472-.312.792-.312.336 0 .6.104.792.312.208.192.312.448.312.768v13.344c0 .624.12 1.136.36 1.536.256.4.568.6.936.6h.6c.304 0 .544.104.72.312.176.192.264.456.264.792 0 .32-.136.584-.408.792-.256.192-.592.288-1.008.288h-.168Zm9.497.096c-1.248 0-2.376-.288-3.384-.864-.992-.592-1.784-1.392-2.376-2.4-.576-1.008-.864-2.144-.864-3.408 0-1.264.272-2.392.816-3.384.544-1.008 1.288-1.8 2.232-2.376.944-.592 2.016-.888 3.216-.888.992 0 1.896.208 2.712.624.832.416 1.52.976 2.064 1.68v-6.72c0-.336.104-.6.312-.792.208-.208.472-.312.792-.312.336 0 .608.104.816.312.208.192.312.456.312.792v11.112c-.016 1.248-.32 2.376-.912 3.384-.576 1.008-1.368 1.8-2.376 2.376-.992.576-2.112.864-3.36.864Zm0-1.968c.864 0 1.632-.2 2.304-.6.672-.416 1.2-.976 1.584-1.68.4-.72.6-1.528.6-2.424 0-.896-.2-1.696-.6-2.4-.384-.704-.912-1.256-1.584-1.656-.672-.416-1.44-.624-2.304-.624-.832 0-1.592.208-2.28.624-.688.4-1.232.952-1.632 1.656-.384.704-.576 1.504-.576 2.4 0 .896.192 1.704.576 2.424.4.704.944 1.264 1.632 1.68.688.4 1.448.6 2.28.6Zm11.81-2.496c-.32 0-.592-.112-.816-.336-.208-.224-.312-.48-.312-.768v-12.144c0-.32.104-.584.312-.792.224-.224.496-.336.816-.336.32 0 .584.112.792.336.208.208.312.472.312.792v12.144c0 .304-.112.568-.336.792-.224.208-.48.312-.768.312Zm0 4.368c-.432 0-.8-.152-1.104-.456-.304-.304-.456-.672-.456-1.104 0-.448.152-.824.456-1.128.304-.304.672-.456 1.104-.456.432 0 .8.16 1.104.48.304.304.456.672.456 1.104 0 .432-.16.8-.48 1.104-.304.304-.664.456-1.08.456Zm9.39-13.176c-.368 0-.688-.128-.96-.384-.272-.272-.408-.608-.408-1.008 0-.336.032-.632.096-.888.08-.272.144-.552.192-.84.048-.304.04-.664-.024-1.08-.048-.416-.2-.928-.456-1.536-.112-.24-.104-.464.024-.672.128-.208.312-.312.552-.312.256 0 .52.168.792.504.288.32.552.728.792 1.224.256.496.464 1.008.624 1.536.176.512.264.968.264 1.368 0 .608-.136 1.112-.408 1.512-.256.384-.616.576-1.08.576Zm-3.528 0c-.384 0-.712-.128-.984-.384-.256-.272-.384-.608-.384-1.008 0-.336.032-.632.096-.888.064-.272.12-.552.168-.84.064-.304.064-.664 0-1.08-.064-.416-.224-.928-.48-1.536-.112-.24-.104-.464.024-.672.144-.208.328-.312.552-.312.256 0 .52.168.792.504.288.32.552.728.792 1.224.256.496.464 1.008.624 1.536.176.512.264.968.264 1.368 0 .608-.128 1.112-.384 1.512-.256.384-.616.576-1.08.576Z" fill="#F6B17A"/>
    <path d="M346.349 69.8433c-61.177 0-122.071-2.0712-141.756 42.5177m141.756-42.5177-19.165 15.2909m19.165-15.2909-19.165-17.6939" stroke="#FAE5D1" stroke-width="5" stroke-linecap="round" stroke-linejoin="round"/>
    <path d="m438.716 138.417 7.375 7.444 14.75-14.889m-29.5-52.1107h-17.7c-4.13 0-6.196 0-7.773.8114-1.388.7137-2.516 1.8526-3.223 3.2534-.804 1.5924-.804 3.6771-.804 7.8463V133.95c0 4.169 0 6.254.804 7.847.707 1.4 1.835 2.539 3.223 3.253 1.577.811 3.643.811 7.773.811H428.8m2.541-66.9997 22.125 22.3337m-22.125-22.3337v16.3778c0 2.0846 0 3.127.402 3.9232.354.7004.917 1.2697 1.611 1.6267.789.406 1.822.406 3.887.406h16.225m0 0v16.377m-36.875 13.4h9.219m-9.219-14.888h22.125m-22.125-14.889h3.688" stroke="#F6B17A" stroke-width="3" stroke-linecap="round" stroke-linejoin="round"/>
  </g>
  <defs>
    <clipPath id="a">
      <path fill="#fff" d="M0 0h485v300H0z"/>
    </clipPath>
    <clipPath id="b">
      <rect x="15.1274" y="154.27" width="336" height="124" rx="20" fill="#fff"/>
    </clipPath>
  </defs>
</svg>
