<svg width="485" height="338" fill="none" xmlns="http://www.w3.org/2000/svg">
  <g clip-path="url(#a)">
    <path d="M387.732 271.021v26.547M407.732 271.021v26.547M427.732 271.021v26.547M242.458 167.031v26.547" stroke="#F6B17A" stroke-width="9" stroke-linecap="round" stroke-linejoin="round"/>
    <path d="M8.2307 334.51V193.219H123.494m30.137 141.291V135.04h177.125v196.825m32.781-92.179h113.148v92.179" stroke="#F6B17A" stroke-width="5" stroke-linecap="round" stroke-linejoin="round"/>
    <path d="M78.5 173c18.5014 0 33.5-14.775 33.5-33s-14.9986-33-33.5-33C59.9985 107 45 121.775 45 140s14.9985 33 33.5 33Z" stroke="#F6B17A" stroke-width="4" stroke-linejoin="round"/>
    <path d="M79.7004 131.362c-3.2582 1.336-9.7704 4.099-19.5363 8.29-1.5858.621-2.4166 1.229-2.4922 1.823-.1278 1.005 1.1489 1.4 2.8875 1.939h.0025c.2357.073.4798.149.7301.229 1.7105.548 4.0114 1.189 5.2075 1.214 1.085.023 2.296-.417 3.6329-1.322 9.1245-6.067 13.8349-9.134 14.1304-9.2.2087-.047.4978-.106.6938.066.1959.172.1765.496.1557.583-.1263.532-5.1379 5.121-7.7314 7.496l-.066.061c-.7735.708-1.3191 1.208-1.4332 1.325-.2626.269-.5303.523-.7875.767-1.5889 1.509-2.7809 2.641.066 4.489 1.3678.888 2.4625 1.622 3.5546 2.355 1.1926.8 2.3822 1.598 3.9216 2.592.3899.251.7625.513 1.1256.768l.0056.004c1.3879.975 2.6348 1.85 4.1755 1.711.8951-.081 1.8197-.911 2.2894-3.384 1.1098-5.844 3.2913-18.507 3.7955-23.725.0442-.457-.0114-1.042-.0563-1.299-.0445-.257-.1376-.623-.4767-.894-.4013-.321-1.021-.388-1.2981-.384-1.2599.023-3.1932.685-12.4965 4.496Z" fill="#F6B17A"/>
    <g clip-path="url(#b)">
      <path fill="#1F233C" d="M161.5 42h162v76h-162z"/>
      <g clip-path="url(#c)" stroke="#F6B17A" stroke-width="5">
        <circle cx="323.5" cy="117" r="69.5" transform="rotate(90 323.5 117)"/>
        <circle cx="323.5" cy="117" r="48.5539" transform="rotate(90 323.5 117)"/>
        <circle cx="323.5" cy="117" r="14.2356" transform="rotate(90 323.5 117)"/>
        <circle cx="323.5" cy="117" r="30.7803" transform="rotate(90 323.5 117)"/>
      </g>
      <path d="M172.856 76.306c-2.04 0-3.819-.2493-5.338-.748-1.519-.4987-2.686-1.2013-3.502-2.108-.793-.9293-1.19-2.006-1.19-3.23 0-1.8587 1.258-2.788 3.774-2.788.091 1.7227.669 3.026 1.734 3.91 1.088.884 2.607 1.326 4.556 1.326 1.609 0 2.856-.272 3.74-.816.884-.5667 1.326-1.3487 1.326-2.346 0-.6573-.17-1.19-.51-1.598-.34-.4307-.918-.8047-1.734-1.122-.816-.34-2.006-.68-3.57-1.02-2.221-.5213-3.978-1.0993-5.27-1.734-1.269-.6347-2.187-1.394-2.754-2.278-.567-.9067-.85-2.0287-.85-3.366 0-1.292.374-2.4253 1.122-3.4.771-.9747 1.847-1.734 3.23-2.278 1.405-.544 3.015-.816 4.828-.816 1.745 0 3.298.238 4.658.714 1.383.4533 2.459 1.0993 3.23 1.938.793.8387 1.19 1.802 1.19 2.89 0 1.6773-1.213 2.55-3.638 2.618-.136-1.564-.635-2.7087-1.496-3.434-.861-.7253-2.176-1.088-3.944-1.088-1.519 0-2.686.2493-3.502.748-.816.4987-1.224 1.2013-1.224 2.108 0 .6347.159 1.1673.476 1.598.317.408.85.7707 1.598 1.088.748.2947 1.813.6007 3.196.918 2.335.5213 4.182 1.1107 5.542 1.768 1.36.6347 2.346 1.4167 2.958 2.346.612.9067.918 2.0287.918 3.366 0 1.3827-.397 2.5953-1.19 3.638-.771 1.02-1.881 1.8133-3.332 2.38-1.428.544-3.105.816-5.032.816Zm13.17-21.148c0-1.0427.362-1.8473 1.088-2.414.725-.5667 1.768-.85 3.128-.85v8.84c-.295.3173-.567.68-.816 1.088l.204.136c1.564-2.176 3.558-3.264 5.984-3.264 1.156 0 2.176.2607 3.06.782.884.5213 1.564 1.2353 2.04 2.142.498.9067.748 1.9267.748 3.06v9.044c0 .9067-.352 1.564-1.054 1.972-.703.408-1.768.612-3.196.612V65.29c0-.8613-.261-1.564-.782-2.108-.499-.544-1.236-.816-2.21-.816-1.156 0-2.108.3627-2.856 1.088-.748.7027-1.122 1.5867-1.122 2.652v7.616c0 .9067-.352 1.564-1.054 1.972-.703.408-1.757.612-3.162.612V55.158Zm25.075 21.148c-1.156 0-2.221-.2267-3.196-.68-.952-.4533-1.722-1.0993-2.312-1.938-.566-.8613-.85-1.8813-.85-3.06s.306-2.1987.918-3.06c.612-.884 1.44-1.5527 2.482-2.006 1.066-.476 2.233-.714 3.502-.714 1.043 0 1.972.17 2.788.51.839.3173 1.61.8047 2.312 1.462l.17-.17c-.204-.204-.555-.51-1.054-.918v-.68c0-.9293-.328-1.666-.986-2.21-.657-.544-1.575-.816-2.754-.816-2.108 0-3.66.7707-4.658 2.312-.498-.1587-.918-.408-1.258-.748-.34-.3627-.51-.748-.51-1.156 0-.68.306-1.3033.918-1.87.612-.5667 1.44-1.02 2.482-1.36 1.043-.34 2.176-.51 3.4-.51 2.403 0 4.262.5667 5.576 1.7 1.315 1.1107 1.972 2.6293 1.972 4.556v8.5c0 .9973-.317 1.7227-.952 2.176-.634.4533-1.632.68-2.992.68v-1.394c.386-.3853.646-.6687.782-.85l-.136-.17c-.748.7933-1.552 1.394-2.414 1.802-.838.408-1.915.612-3.23.612Zm1.088-3.094c1.179 0 2.097-.2267 2.754-.68.658-.4533.986-1.0993.986-1.938 0-.816-.34-1.462-1.02-1.938-.657-.476-1.552-.714-2.686-.714-1.042 0-1.87.238-2.482.714-.589.4533-.884 1.0993-.884 1.938 0 .8613.295 1.5187.884 1.972.59.4307 1.406.646 2.448.646Zm20.741-10.846c-1.337 0-2.425.3627-3.264 1.088-.839.7027-1.258 1.5867-1.258 2.652v7.616c0 .9067-.34 1.564-1.02 1.972-.68.408-1.745.612-3.196.612V61.958c0-1.0427.329-1.8473.986-2.414.68-.5667 1.7-.85 3.06-.85V60.7c-.34.3853-.612.7593-.816 1.122l.204.136c1.428-2.176 3.219-3.264 5.372-3.264.975 0 1.711.2607 2.21.782.499.4987.748 1.1333.748 1.904 0 .5893-.159 1.088-.476 1.496-.612-.34-1.462-.51-2.55-.51Zm12.162 13.94c-1.405 0-2.686-.272-3.842-.816-1.156-.5667-2.074-1.326-2.754-2.278-.68-.9747-1.02-2.0627-1.02-3.264v-4.522c0-1.2693.352-2.414 1.054-3.434.703-1.02 1.632-1.8247 2.788-2.414 1.179-.5893 2.448-.884 3.808-.884 1.338 0 2.562.2833 3.672.85 1.134.544 2.029 1.3147 2.686 2.312.658.9747.986 2.0967.986 3.366v1.904c0 .4987-.192.918-.578 1.258-.362.34-.827.51-1.394.51h-8.908v.748c0 .9747.295 1.768.884 2.38.59.612 1.474.918 2.652.918 1.134 0 1.972-.2493 2.516-.748.567-.4987.85-1.1447.85-1.938.408-.0453.692-.068.85-.068.839 0 1.496.1927 1.972.578.476.3627.714.884.714 1.564 0 .6573-.306 1.292-.918 1.904-.612.612-1.45 1.1107-2.516 1.496-1.065.3853-2.232.578-3.502.578Zm3.536-10.438v-.646c0-.952-.328-1.7227-.986-2.312-.657-.5893-1.507-.884-2.55-.884-1.042 0-1.892.2947-2.55.884-.634.5667-.952 1.3373-.952 2.312v.646h7.038Zm-75.738 51.438c-1.859 0-3.559-.363-5.1-1.088-1.541-.748-2.765-1.757-3.672-3.026-.884-1.269-1.326-2.652-1.326-4.148v-7.922c0-1.496.442-2.8673 1.326-4.114.907-1.2693 2.131-2.2667 3.672-2.992 1.541-.748 3.241-1.122 5.1-1.122 1.859 0 3.559.374 5.1 1.122 1.564.7253 2.788 1.7227 3.672 2.992.907 1.2467 1.36 2.618 1.36 4.114v7.922c0 1.496-.453 2.879-1.36 4.148-.884 1.269-2.108 2.278-3.672 3.026-1.541.725-3.241 1.088-5.1 1.088Zm0-3.978c1.7 0 3.06-.397 4.08-1.19 1.02-.816 1.53-1.87 1.53-3.162v-7.752c0-1.3147-.51-2.3687-1.53-3.162-1.02-.816-2.38-1.224-4.08-1.224-1.677 0-3.026.408-4.046 1.224-1.02.7933-1.53 1.8473-1.53 3.162v7.752c0 1.292.51 2.346 1.53 3.162 1.02.793 2.369 1.19 4.046 1.19Zm28.829.68c0 1.065-.34 1.881-1.02 2.448-.658.567-1.666.85-3.026.85v-2.04c.294-.34.566-.714.816-1.122l-.204-.136c-1.451 2.199-3.4 3.298-5.848 3.298-1.156 0-2.199-.261-3.128-.782-.907-.544-1.632-1.292-2.176-2.244-.522-.952-.782-2.029-.782-3.23v-8.772c0-.929.34-1.587 1.02-1.972.702-.408 1.768-.612 3.196-.612v11.05c0 .884.272 1.587.816 2.108.544.521 1.326.782 2.346.782 1.133 0 2.04-.351 2.72-1.054.702-.725 1.054-1.621 1.054-2.686v-7.616c0-.929.34-1.587 1.02-1.972.68-.408 1.745-.612 3.196-.612v14.314Zm11.797 3.298c-1.836 0-3.196-.533-4.08-1.598-.884-1.065-1.326-2.437-1.326-4.114v-8.432h-3.502c0-1.065.204-1.859.612-2.38.408-.521.952-.782 1.632-.782h1.326v-2.822c0-.9293.34-1.5867 1.02-1.972.68-.408 1.712-.612 3.094-.612V100h4.522c0 1.133-.215 1.949-.646 2.448-.43.476-1.122.714-2.074.714h-1.734v8.262c0 .793.148 1.36.442 1.7.318.34.85.51 1.598.51.794 0 1.587-.215 2.38-.646.227.204.408.465.544.782.136.295.204.601.204.918 0 .68-.351 1.292-1.054 1.836-.702.521-1.688.782-2.958.782Z" fill="#fff"/>
    </g>
    <path d="M68.5 226.126v26.547M88.5 226.126v26.547" stroke="#F6B17A" stroke-width="9" stroke-linecap="round" stroke-linejoin="round"/>
    <path d="M374.807 174.163v37.702c0 2.458 1.992 4.45 4.449 4.45h10.679v-25.337l17.797 13.472 17.798-13.472v25.337h10.679c2.457 0 4.449-1.992 4.449-4.45v-37.702c0-5.888-6.741-9.231-11.428-5.667l-21.498 16.346-21.497-16.345c-4.687-3.565-11.428-.222-11.428 5.666Z" stroke="#F6B17A" stroke-width="4" stroke-linejoin="round"/>
  </g>
  <defs>
    <clipPath id="a">
      <path fill="#fff" d="M0 0h485v338H0z"/>
    </clipPath>
    <clipPath id="b">
      <path fill="#fff" transform="translate(161.5 42)" d="M0 0h162v76H0z"/>
    </clipPath>
    <clipPath id="c">
      <path fill="#fff" transform="rotate(90 139.25 184.25)" d="M0 0h72v72H0z"/>
    </clipPath>
  </defs>
</svg>
