<svg width="485" height="300" viewBox="0 0 485 300" fill="none" xmlns="http://www.w3.org/2000/svg">
<g clip-path="url(#clip0_655_477)">
<path d="M311.259 57.1703C311.138 56.7228 310.96 56.3287 310.726 55.9877C310.491 55.6397 310.204 55.345 309.863 55.1035C309.522 54.862 309.131 54.6809 308.691 54.5602C308.251 54.4324 307.768 54.3684 307.242 54.3684C306.184 54.3684 305.268 54.6241 304.494 55.1355C303.727 55.6468 303.134 56.3926 302.714 57.3727C302.295 58.3457 302.086 59.5282 302.086 60.9203C302.086 62.3194 302.288 63.5126 302.693 64.4998C303.098 65.487 303.684 66.2399 304.451 66.7583C305.218 67.2768 306.148 67.536 307.242 67.536C308.208 67.536 309.025 67.3798 309.692 67.0673C310.367 66.7477 310.879 66.2967 311.227 65.7143C311.575 65.1319 311.749 64.4466 311.749 63.6582L312.729 63.7754H307.423V59.9295H316.83V62.8166C316.83 64.7697 316.415 66.4423 315.584 67.8343C314.76 69.2264 313.624 70.2953 312.175 71.041C310.733 71.7868 309.075 72.1596 307.2 72.1596C305.119 72.1596 303.29 71.7086 301.713 70.8066C300.136 69.9047 298.908 68.6191 298.027 66.9501C297.146 65.274 296.706 63.2853 296.706 60.9842C296.706 59.1944 296.972 57.6071 297.505 56.2221C298.038 54.8301 298.78 53.6511 299.732 52.6852C300.69 51.7193 301.798 50.9877 303.055 50.4906C304.32 49.9934 305.68 49.7449 307.136 49.7449C308.4 49.7449 309.575 49.926 310.662 50.2882C311.756 50.6504 312.722 51.1618 313.56 51.8223C314.405 52.4828 315.09 53.2676 315.616 54.1767C316.141 55.0858 316.468 56.0836 316.596 57.1703H311.259ZM336.295 72.1596C334.633 72.1596 333.159 71.8755 331.874 71.3074C330.595 70.7321 329.587 69.9402 328.848 68.9316C328.109 67.9231 327.733 66.7619 327.719 65.448H333.024C333.045 65.9238 333.198 66.3464 333.482 66.7157C333.766 67.0779 334.153 67.362 334.644 67.568C335.134 67.774 335.691 67.877 336.316 67.877C336.941 67.877 337.492 67.7669 337.967 67.5467C338.45 67.3194 338.827 67.0105 339.097 66.6199C339.367 66.2221 339.498 65.7676 339.491 65.2562C339.498 64.7449 339.352 64.2903 339.054 63.8926C338.756 63.4949 338.333 63.1859 337.786 62.9657C337.246 62.7456 336.607 62.6355 335.869 62.6355H333.749V58.8855H335.869C336.515 58.8855 337.083 58.7789 337.573 58.5659C338.07 58.3528 338.457 58.0545 338.734 57.671C339.011 57.2804 339.146 56.8329 339.139 56.3287C339.146 55.8386 339.029 55.4089 338.788 55.0396C338.553 54.6632 338.223 54.372 337.797 54.166C337.378 53.96 336.891 53.8571 336.337 53.8571C335.755 53.8571 335.226 53.96 334.75 54.166C334.281 54.372 333.908 54.6632 333.631 55.0396C333.354 55.416 333.209 55.8528 333.195 56.35H328.156C328.17 55.0502 328.532 53.9068 329.242 52.9196C329.952 51.9252 330.918 51.1475 332.14 50.5865C333.369 50.0254 334.768 49.7449 336.337 49.7449C337.9 49.7449 339.274 50.0183 340.46 50.5652C341.646 51.112 342.57 51.8578 343.23 52.8024C343.891 53.7399 344.221 54.8017 344.221 55.9877C344.228 57.2164 343.827 58.2285 343.017 59.024C342.215 59.8194 341.181 60.3095 339.917 60.4941V60.6646C341.607 60.8635 342.882 61.4103 343.742 62.3052C344.608 63.2001 345.038 64.3187 345.031 65.661C345.031 66.9252 344.658 68.0474 343.912 69.0275C343.173 70.0005 342.144 70.7676 340.822 71.3287C339.509 71.8826 337.999 72.1596 336.295 72.1596ZM364.458 72.1596C362.867 72.1596 361.454 71.872 360.218 71.2967C358.982 70.7214 358.005 69.9295 357.288 68.921C356.578 67.9125 356.209 66.7548 356.18 65.448H361.294C361.336 66.2505 361.663 66.8968 362.274 67.3869C362.885 67.8699 363.613 68.1113 364.458 68.1113C365.118 68.1113 365.704 67.9657 366.216 67.6745C366.727 67.3833 367.128 66.975 367.419 66.4494C367.711 65.9167 367.853 65.3059 367.846 64.617C367.853 63.9139 367.707 63.2995 367.409 62.774C367.118 62.2484 366.713 61.84 366.194 61.5488C365.683 61.2505 365.093 61.1014 364.426 61.1014C363.794 61.0943 363.194 61.2328 362.625 61.5169C362.064 61.801 361.638 62.188 361.347 62.6781L356.691 61.8045L357.64 50.0431H371.638V54.2939H361.976L361.475 59.4395H361.603C361.965 58.8358 362.547 58.3386 363.35 57.948C364.16 57.5502 365.079 57.3514 366.109 57.3514C367.416 57.3514 368.581 57.6568 369.603 58.2676C370.633 58.8713 371.443 59.7093 372.032 60.7818C372.629 61.8542 372.927 63.0829 372.927 64.4679C372.927 65.9664 372.572 67.2946 371.862 68.4522C371.159 69.6099 370.172 70.519 368.9 71.1795C367.636 71.8329 366.155 72.1596 364.458 72.1596ZM392.829 50.0431H398.027V65.1284C398.02 66.5417 397.683 67.7775 397.015 68.8358C396.348 69.8869 395.424 70.7037 394.245 71.286C393.074 71.8684 391.717 72.1596 390.176 72.1596C388.812 72.1596 387.573 71.9217 386.458 71.4458C385.35 70.97 384.466 70.2314 383.805 69.2299C383.152 68.2285 382.829 66.9466 382.836 65.3841H388.088C388.109 65.9451 388.216 66.4245 388.407 66.8223C388.606 67.2129 388.88 67.5076 389.228 67.7065C389.576 67.9054 389.991 68.0048 390.474 68.0048C390.978 68.0048 391.405 67.8983 391.753 67.6852C392.101 67.465 392.363 67.1419 392.541 66.7157C392.726 66.2896 392.821 65.7605 392.829 65.1284V50.0431ZM419.484 50.0431V71.8613H414.221V54.965H414.094L409.214 57.948V53.3883L414.594 50.0431H419.484ZM442.496 50.0431V71.8613H437.233V54.965H437.106L432.226 57.948V53.3883L437.606 50.0431H442.496Z" fill="#F6B17A"/>
</g>
<rect x="257" y="29" width="227" height="69" rx="19" stroke="#FAE5D1" stroke-width="2"/>
<path d="M334.563 20.2988V7.20792H339.357C340.286 7.20792 341.055 7.36133 341.665 7.66815C342.274 7.9707 342.73 8.38192 343.033 8.90181C343.335 9.41744 343.487 9.99911 343.487 10.6468C343.487 11.1923 343.386 11.6525 343.186 12.0275C342.986 12.3983 342.717 12.6966 342.381 12.9224C342.048 13.144 341.682 13.3059 341.281 13.4082V13.536C341.716 13.5574 342.14 13.698 342.553 13.9579C342.971 14.2136 343.316 14.5779 343.589 15.051C343.862 15.524 343.998 16.0993 343.998 16.7768C343.998 17.4458 343.84 18.0467 343.525 18.5794C343.214 19.1078 342.732 19.5275 342.08 19.8386C341.428 20.1454 340.595 20.2988 339.581 20.2988H334.563ZM336.538 18.6049H339.389C340.335 18.6049 341.013 18.4217 341.422 18.0552C341.831 17.6887 342.036 17.2306 342.036 16.6809C342.036 16.2676 341.931 15.8883 341.722 15.5431C341.514 15.198 341.215 14.9231 340.827 14.7186C340.444 14.514 339.988 14.4118 339.46 14.4118H336.538V18.6049ZM336.538 12.8713H339.185C339.628 12.8713 340.026 12.786 340.38 12.6156C340.738 12.4451 341.021 12.2065 341.23 11.8997C341.443 11.5886 341.55 11.2221 341.55 10.8002C341.55 10.2591 341.36 9.80522 340.981 9.43874C340.602 9.07227 340.02 8.88903 339.236 8.88903H336.538V12.8713ZM349.224 20.5162C348.602 20.5162 348.04 20.4011 347.537 20.171C347.034 19.9366 346.636 19.5978 346.342 19.1547C346.052 18.7115 345.907 18.1681 345.907 17.5247C345.907 16.9707 346.013 16.5147 346.227 16.1568C346.44 15.7988 346.727 15.5154 347.089 15.3066C347.452 15.0978 347.857 14.9402 348.304 14.8336C348.751 14.7271 349.207 14.6461 349.672 14.5907C350.26 14.5225 350.737 14.4672 351.104 14.4245C351.47 14.3777 351.737 14.3031 351.903 14.2008C352.069 14.0985 352.152 13.9324 352.152 13.7022V13.6575C352.152 13.0993 351.994 12.6667 351.679 12.3599C351.368 12.0531 350.903 11.8997 350.286 11.8997C349.642 11.8997 349.135 12.0424 348.764 12.3279C348.398 12.6092 348.144 12.9224 348.004 13.2676L346.207 12.8585C346.42 12.2619 346.732 11.7804 347.141 11.4139C347.554 11.0431 348.029 10.7747 348.566 10.6085C349.103 10.438 349.668 10.3528 350.26 10.3528C350.652 10.3528 351.067 10.3997 351.506 10.4934C351.95 10.5829 352.363 10.7491 352.746 10.992C353.134 11.2349 353.452 11.5822 353.699 12.0339C353.946 12.4814 354.07 13.063 354.07 13.7789V20.2988H352.203V18.9565H352.126C352.003 19.2037 351.817 19.4466 351.57 19.6852C351.323 19.9238 351.006 20.122 350.618 20.2797C350.23 20.4373 349.766 20.5162 349.224 20.5162ZM349.64 18.9821C350.168 18.9821 350.62 18.8777 350.995 18.6689C351.374 18.46 351.662 18.1873 351.858 17.8507C352.058 17.5098 352.158 17.1454 352.158 16.7576V15.492C352.09 15.5602 351.958 15.6241 351.762 15.6838C351.57 15.7392 351.351 15.7882 351.104 15.8308C350.857 15.8691 350.616 15.9054 350.381 15.9395C350.147 15.9693 349.951 15.9949 349.793 16.0162C349.423 16.063 349.084 16.1419 348.777 16.2527C348.474 16.3635 348.232 16.5233 348.048 16.7321C347.869 16.9366 347.78 17.2093 347.78 17.5502C347.78 18.0233 347.955 18.3812 348.304 18.6241C348.653 18.8627 349.099 18.9821 349.64 18.9821ZM356.795 10.4806H358.668V18.6433H362.062V10.4806H363.935V18.6433H367.329V10.4806H369.202V20.2988H356.795V10.4806ZM376.878 20.2988V10.4806H378.789V14.5971H379.71L382.95 10.4806H385.315L381.512 15.2555L385.36 20.2988H382.989L380.029 16.3741H378.789V20.2988H376.878ZM390.756 20.497C389.836 20.497 389.032 20.286 388.346 19.8642C387.66 19.4423 387.127 18.8521 386.748 18.0936C386.369 17.335 386.179 16.4487 386.179 15.4345C386.179 14.416 386.369 13.5254 386.748 12.7626C387.127 11.9998 387.66 11.4075 388.346 10.9856C389.032 10.5637 389.836 10.3528 390.756 10.3528C391.676 10.3528 392.48 10.5637 393.166 10.9856C393.852 11.4075 394.385 11.9998 394.764 12.7626C395.143 13.5254 395.333 14.416 395.333 15.4345C395.333 16.4487 395.143 17.335 394.764 18.0936C394.385 18.8521 393.852 19.4423 393.166 19.8642C392.48 20.286 391.676 20.497 390.756 20.497ZM390.762 18.8926C391.359 18.8926 391.853 18.7349 392.245 18.4196C392.637 18.1042 392.927 17.6845 393.115 17.1603C393.306 16.6362 393.402 16.0588 393.402 15.4281C393.402 14.8017 393.306 14.2264 393.115 13.7022C392.927 13.1738 392.637 12.7498 392.245 12.4302C391.853 12.1106 391.359 11.9508 390.762 11.9508C390.162 11.9508 389.663 12.1106 389.267 12.4302C388.875 12.7498 388.583 13.1738 388.391 13.7022C388.203 14.2264 388.11 14.8017 388.11 15.4281C388.11 16.0588 388.203 16.6362 388.391 17.1603C388.583 17.6845 388.875 18.1042 389.267 18.4196C389.663 18.7349 390.162 18.8926 390.762 18.8926ZM396.687 23.1305V18.6433H397.486C397.691 18.4558 397.863 18.2321 398.004 17.9721C398.149 17.7122 398.27 17.4032 398.368 17.0453C398.471 16.6873 398.556 16.2697 398.624 15.7924C398.692 15.3109 398.752 14.7612 398.803 14.1433L399.11 10.4806H405.783V18.6433H407.292V23.1305H405.425V20.2988H398.579V23.1305H396.687ZM399.532 18.6433H403.917V12.117H400.823L400.618 14.1433C400.52 15.1745 400.397 16.0694 400.248 16.8279C400.099 17.5822 399.86 18.1873 399.532 18.6433Z" fill="#FAE5D1"/>
<path d="M74.3999 116.978C74.3998 156.559 73.6475 224.474 133.577 243.353M133.577 243.353L104.881 251.509M133.577 243.353L120.386 218.884" stroke="#FAE5D1" stroke-width="5" stroke-linecap="round" stroke-linejoin="round"/>
<path d="M99.9076 41.4575C100.164 41.4575 100.356 41.5615 100.484 41.7695C100.612 41.9775 100.62 42.2015 100.508 42.4415C100.252 43.0495 100.092 43.5615 100.028 43.9775C99.9636 44.3935 99.9556 44.7455 100.004 45.0335C100.052 45.3215 100.108 45.6015 100.172 45.8735C100.252 46.1455 100.292 46.4495 100.292 46.7855C100.292 47.1855 100.156 47.5215 99.8836 47.7935C99.6276 48.0495 99.3076 48.1775 98.9236 48.1775C98.4596 48.1775 98.0996 47.9855 97.8436 47.6015C97.5876 47.2015 97.4596 46.6975 97.4596 46.0895C97.4596 45.6895 97.5396 45.2335 97.6996 44.7215C97.8596 44.1935 98.0676 43.6815 98.3236 43.1855C98.5796 42.6895 98.8436 42.2815 99.1156 41.9615C99.4036 41.6255 99.6676 41.4575 99.9076 41.4575ZM103.532 41.4575C103.772 41.4575 103.956 41.5615 104.084 41.7695C104.228 41.9775 104.244 42.2015 104.132 42.4415C103.86 43.0495 103.692 43.5615 103.628 43.9775C103.58 44.3935 103.58 44.7455 103.628 45.0335C103.676 45.3215 103.732 45.6015 103.796 45.8735C103.876 46.1455 103.916 46.4495 103.916 46.7855C103.916 47.1855 103.78 47.5215 103.508 47.7935C103.236 48.0495 102.916 48.1775 102.548 48.1775C102.084 48.1775 101.716 47.9855 101.444 47.6015C101.188 47.2015 101.06 46.6975 101.06 46.0895C101.06 45.6895 101.14 45.2335 101.3 44.7215C101.476 44.1935 101.684 43.6815 101.924 43.1855C102.18 42.6895 102.452 42.2815 102.74 41.9615C103.028 41.6255 103.292 41.4575 103.532 41.4575ZM107.974 61.3535C107.654 61.3535 107.382 61.2495 107.158 61.0415C106.95 60.8175 106.846 60.5455 106.846 60.2255V43.7375C106.846 43.4015 106.95 43.1295 107.158 42.9215C107.382 42.7135 107.654 42.6095 107.974 42.6095C108.31 42.6095 108.582 42.7135 108.79 42.9215C108.998 43.1295 109.102 43.4015 109.102 43.7375V50.8655H120.454V43.7375C120.454 43.4015 120.558 43.1295 120.766 42.9215C120.99 42.7135 121.262 42.6095 121.582 42.6095C121.918 42.6095 122.19 42.7135 122.398 42.9215C122.606 43.1295 122.71 43.4015 122.71 43.7375V60.2255C122.71 60.5455 122.606 60.8175 122.398 61.0415C122.19 61.2495 121.918 61.3535 121.582 61.3535C121.262 61.3535 120.99 61.2495 120.766 61.0415C120.558 60.8175 120.454 60.5455 120.454 60.2255V52.8575H109.102V60.2255C109.102 60.5455 108.998 60.8175 108.79 61.0415C108.582 61.2495 108.31 61.3535 107.974 61.3535ZM133.614 61.4495C132.286 61.4495 131.11 61.1695 130.086 60.6095C129.078 60.0335 128.286 59.2495 127.71 58.2575C127.134 57.2495 126.846 56.0975 126.846 54.8015C126.846 53.4895 127.118 52.3375 127.662 51.3455C128.206 50.3375 128.958 49.5535 129.918 48.9935C130.878 48.4175 131.99 48.1295 133.254 48.1295C134.486 48.1295 135.55 48.4095 136.446 48.9695C137.342 49.5135 138.03 50.2735 138.51 51.2495C138.99 52.2095 139.23 53.3215 139.23 54.5855C139.23 54.8575 139.134 55.0895 138.942 55.2815C138.766 55.4575 138.526 55.5455 138.222 55.5455H128.358V53.7695H138.246L137.262 54.4655C137.246 53.6175 137.078 52.8575 136.758 52.1855C136.438 51.5135 135.982 50.9855 135.39 50.6015C134.798 50.2175 134.086 50.0255 133.254 50.0255C132.342 50.0255 131.55 50.2335 130.878 50.6495C130.222 51.0655 129.718 51.6335 129.366 52.3535C129.014 53.0735 128.838 53.8895 128.838 54.8015C128.838 55.7135 129.038 56.5295 129.438 57.2495C129.854 57.9535 130.414 58.5135 131.118 58.9295C131.838 59.3455 132.67 59.5535 133.614 59.5535C134.126 59.5535 134.654 59.4575 135.198 59.2655C135.758 59.0735 136.198 58.8495 136.518 58.5935C136.742 58.4175 136.982 58.3295 137.238 58.3295C137.494 58.3135 137.718 58.3855 137.91 58.5455C138.15 58.7695 138.278 59.0175 138.294 59.2895C138.31 59.5455 138.198 59.7695 137.958 59.9615C137.414 60.3935 136.734 60.7535 135.918 61.0415C135.118 61.3135 134.35 61.4495 133.614 61.4495ZM145.593 61.3535C144.921 61.3535 144.321 61.1695 143.793 60.8015C143.265 60.4335 142.849 59.9295 142.545 59.2895C142.257 58.6335 142.113 57.8815 142.113 57.0335V43.6895C142.113 43.3695 142.209 43.1135 142.401 42.9215C142.609 42.7135 142.873 42.6095 143.193 42.6095C143.529 42.6095 143.793 42.7135 143.985 42.9215C144.193 43.1135 144.297 43.3695 144.297 43.6895V57.0335C144.297 57.6575 144.417 58.1695 144.657 58.5695C144.913 58.9695 145.225 59.1695 145.593 59.1695H146.193C146.497 59.1695 146.737 59.2735 146.913 59.4815C147.089 59.6735 147.177 59.9375 147.177 60.2735C147.177 60.5935 147.041 60.8575 146.769 61.0655C146.513 61.2575 146.177 61.3535 145.761 61.3535H145.593ZM152.865 61.3535C152.193 61.3535 151.593 61.1695 151.065 60.8015C150.537 60.4335 150.121 59.9295 149.817 59.2895C149.529 58.6335 149.385 57.8815 149.385 57.0335V43.6895C149.385 43.3695 149.481 43.1135 149.673 42.9215C149.881 42.7135 150.145 42.6095 150.465 42.6095C150.801 42.6095 151.065 42.7135 151.257 42.9215C151.465 43.1135 151.569 43.3695 151.569 43.6895V57.0335C151.569 57.6575 151.689 58.1695 151.929 58.5695C152.185 58.9695 152.497 59.1695 152.865 59.1695H153.465C153.769 59.1695 154.009 59.2735 154.185 59.4815C154.361 59.6735 154.449 59.9375 154.449 60.2735C154.449 60.5935 154.313 60.8575 154.041 61.0655C153.785 61.2575 153.449 61.3535 153.033 61.3535H152.865ZM162.361 61.4495C161.081 61.4495 159.937 61.1695 158.929 60.6095C157.937 60.0335 157.153 59.2495 156.577 58.2575C156.017 57.2495 155.737 56.0975 155.737 54.8015C155.737 53.4895 156.017 52.3375 156.577 51.3455C157.153 50.3375 157.937 49.5535 158.929 48.9935C159.937 48.4175 161.081 48.1295 162.361 48.1295C163.641 48.1295 164.777 48.4175 165.769 48.9935C166.777 49.5535 167.561 50.3375 168.121 51.3455C168.697 52.3375 168.993 53.4895 169.009 54.8015C169.009 56.0975 168.721 57.2495 168.145 58.2575C167.569 59.2495 166.785 60.0335 165.793 60.6095C164.801 61.1695 163.657 61.4495 162.361 61.4495ZM162.361 59.4815C163.241 59.4815 164.017 59.2815 164.689 58.8815C165.361 58.4815 165.889 57.9295 166.273 57.2255C166.657 56.5215 166.849 55.7135 166.849 54.8015C166.849 53.8895 166.657 53.0815 166.273 52.3775C165.889 51.6575 165.361 51.0975 164.689 50.6975C164.017 50.2975 163.241 50.0975 162.361 50.0975C161.497 50.0975 160.721 50.2975 160.033 50.6975C159.361 51.0975 158.833 51.6575 158.449 52.3775C158.065 53.0815 157.873 53.8895 157.873 54.8015C157.873 55.7135 158.065 56.5215 158.449 57.2255C158.833 57.9295 159.361 58.4815 160.033 58.8815C160.721 59.2815 161.497 59.4815 162.361 59.4815ZM97.6703 88.3535C97.4303 88.3535 97.2143 88.2895 97.0223 88.1615C96.8303 88.0175 96.6943 87.8415 96.6143 87.6335L92.9903 76.7615C92.8783 76.2975 92.8863 75.9295 93.0143 75.6575C93.1423 75.3695 93.4143 75.2255 93.8303 75.2255C94.1023 75.2255 94.3263 75.2975 94.5023 75.4415C94.6943 75.5855 94.8463 75.8255 94.9583 76.1615L98.1023 85.9055H97.3823L100.31 76.0655C100.39 75.8095 100.518 75.6095 100.694 75.4655C100.87 75.3055 101.11 75.2255 101.414 75.2255C101.702 75.2255 101.934 75.3055 102.11 75.4655C102.302 75.6095 102.43 75.8095 102.494 76.0655L105.062 85.4735H104.678L107.678 76.1615C107.87 75.5375 108.238 75.2255 108.782 75.2255C109.198 75.2255 109.478 75.3775 109.622 75.6815C109.766 75.9695 109.758 76.3295 109.598 76.7615L105.974 87.6335C105.91 87.8415 105.782 88.0175 105.59 88.1615C105.414 88.2895 105.198 88.3535 104.942 88.3535C104.718 88.3535 104.502 88.2895 104.294 88.1615C104.086 88.0175 103.958 87.8415 103.91 87.6335L101.222 78.1535H101.486L98.7263 87.6335C98.6623 87.8415 98.5263 88.0175 98.3183 88.1615C98.1263 88.2895 97.9103 88.3535 97.6703 88.3535ZM117.995 88.4495C116.715 88.4495 115.571 88.1695 114.563 87.6095C113.571 87.0335 112.787 86.2495 112.211 85.2575C111.651 84.2495 111.371 83.0975 111.371 81.8015C111.371 80.4895 111.651 79.3375 112.211 78.3455C112.787 77.3375 113.571 76.5535 114.563 75.9935C115.571 75.4175 116.715 75.1295 117.995 75.1295C119.275 75.1295 120.411 75.4175 121.403 75.9935C122.411 76.5535 123.195 77.3375 123.755 78.3455C124.331 79.3375 124.627 80.4895 124.643 81.8015C124.643 83.0975 124.355 84.2495 123.779 85.2575C123.203 86.2495 122.419 87.0335 121.427 87.6095C120.435 88.1695 119.291 88.4495 117.995 88.4495ZM117.995 86.4815C118.875 86.4815 119.651 86.2815 120.323 85.8815C120.995 85.4815 121.523 84.9295 121.907 84.2255C122.291 83.5215 122.483 82.7135 122.483 81.8015C122.483 80.8895 122.291 80.0815 121.907 79.3775C121.523 78.6575 120.995 78.0975 120.323 77.6975C119.651 77.2975 118.875 77.0975 117.995 77.0975C117.131 77.0975 116.355 77.2975 115.667 77.6975C114.995 78.0975 114.467 78.6575 114.083 79.3775C113.699 80.0815 113.507 80.8895 113.507 81.8015C113.507 82.7135 113.699 83.5215 114.083 84.2255C114.467 84.9295 114.995 85.4815 115.667 85.8815C116.355 86.2815 117.131 86.4815 117.995 86.4815ZM129.51 80.1935C129.542 79.2175 129.79 78.3455 130.254 77.5775C130.734 76.8095 131.366 76.2015 132.15 75.7535C132.934 75.3055 133.798 75.0815 134.742 75.0815C135.622 75.0815 136.278 75.2175 136.71 75.4895C137.158 75.7615 137.326 76.1055 137.214 76.5215C137.166 76.7615 137.07 76.9375 136.926 77.0495C136.782 77.1455 136.614 77.2015 136.422 77.2175C136.23 77.2175 136.022 77.2015 135.798 77.1695C134.822 77.0095 133.95 77.0335 133.182 77.2415C132.414 77.4495 131.806 77.8095 131.358 78.3215C130.91 78.8335 130.686 79.4575 130.686 80.1935H129.51ZM129.582 88.3535C129.246 88.3535 128.982 88.2655 128.79 88.0895C128.598 87.8975 128.502 87.6255 128.502 87.2735V76.3055C128.502 75.9695 128.598 75.7055 128.79 75.5135C128.982 75.3215 129.246 75.2255 129.582 75.2255C129.95 75.2255 130.222 75.3215 130.398 75.5135C130.59 75.6895 130.686 75.9535 130.686 76.3055V87.2735C130.686 87.6095 130.59 87.8735 130.398 88.0655C130.222 88.2575 129.95 88.3535 129.582 88.3535ZM143.133 88.3535C142.461 88.3535 141.861 88.1695 141.333 87.8015C140.805 87.4335 140.389 86.9295 140.085 86.2895C139.797 85.6335 139.653 84.8815 139.653 84.0335V70.6895C139.653 70.3695 139.749 70.1135 139.941 69.9215C140.149 69.7135 140.413 69.6095 140.733 69.6095C141.069 69.6095 141.333 69.7135 141.525 69.9215C141.733 70.1135 141.837 70.3695 141.837 70.6895V84.0335C141.837 84.6575 141.957 85.1695 142.197 85.5695C142.453 85.9695 142.765 86.1695 143.133 86.1695H143.733C144.037 86.1695 144.277 86.2735 144.453 86.4815C144.629 86.6735 144.717 86.9375 144.717 87.2735C144.717 87.5935 144.581 87.8575 144.309 88.0655C144.053 88.2575 143.717 88.3535 143.301 88.3535H143.133ZM152.629 88.4495C151.381 88.4495 150.253 88.1615 149.245 87.5855C148.253 86.9935 147.461 86.1935 146.869 85.1855C146.293 84.1775 146.005 83.0415 146.005 81.7775C146.005 80.5135 146.277 79.3855 146.821 78.3935C147.365 77.3855 148.109 76.5935 149.053 76.0175C149.997 75.4255 151.069 75.1295 152.269 75.1295C153.261 75.1295 154.165 75.3375 154.981 75.7535C155.813 76.1695 156.501 76.7295 157.045 77.4335V70.7135C157.045 70.3775 157.149 70.1135 157.357 69.9215C157.565 69.7135 157.829 69.6095 158.149 69.6095C158.485 69.6095 158.757 69.7135 158.965 69.9215C159.173 70.1135 159.277 70.3775 159.277 70.7135V81.8255C159.261 83.0735 158.957 84.2015 158.365 85.2095C157.789 86.2175 156.997 87.0095 155.989 87.5855C154.997 88.1615 153.877 88.4495 152.629 88.4495ZM152.629 86.4815C153.493 86.4815 154.261 86.2815 154.933 85.8815C155.605 85.4655 156.133 84.9055 156.517 84.2015C156.917 83.4815 157.117 82.6735 157.117 81.7775C157.117 80.8815 156.917 80.0815 156.517 79.3775C156.133 78.6735 155.605 78.1215 154.933 77.7215C154.261 77.3055 153.493 77.0975 152.629 77.0975C151.797 77.0975 151.037 77.3055 150.349 77.7215C149.661 78.1215 149.117 78.6735 148.717 79.3775C148.333 80.0815 148.141 80.8815 148.141 81.7775C148.141 82.6735 148.333 83.4815 148.717 84.2015C149.117 84.9055 149.661 85.4655 150.349 85.8815C151.037 86.2815 151.797 86.4815 152.629 86.4815ZM164.439 83.9855C164.119 83.9855 163.847 83.8735 163.623 83.6495C163.415 83.4255 163.311 83.1695 163.311 82.8815V70.7375C163.311 70.4175 163.415 70.1535 163.623 69.9455C163.847 69.7215 164.119 69.6095 164.439 69.6095C164.759 69.6095 165.023 69.7215 165.231 69.9455C165.439 70.1535 165.543 70.4175 165.543 70.7375V82.8815C165.543 83.1855 165.431 83.4495 165.207 83.6735C164.983 83.8815 164.727 83.9855 164.439 83.9855ZM164.439 88.3535C164.007 88.3535 163.639 88.2015 163.335 87.8975C163.031 87.5935 162.879 87.2255 162.879 86.7935C162.879 86.3455 163.031 85.9695 163.335 85.6655C163.639 85.3615 164.007 85.2095 164.439 85.2095C164.871 85.2095 165.239 85.3695 165.543 85.6895C165.847 85.9935 165.999 86.3615 165.999 86.7935C165.999 87.2255 165.839 87.5935 165.519 87.8975C165.215 88.2015 164.855 88.3535 164.439 88.3535ZM173.83 75.1775C173.462 75.1775 173.142 75.0495 172.87 74.7935C172.598 74.5215 172.462 74.1855 172.462 73.7855C172.462 73.4495 172.494 73.1535 172.558 72.8975C172.638 72.6255 172.702 72.3455 172.75 72.0575C172.798 71.7535 172.79 71.3935 172.726 70.9775C172.678 70.5615 172.526 70.0495 172.27 69.4415C172.158 69.2015 172.166 68.9775 172.294 68.7695C172.422 68.5615 172.606 68.4575 172.846 68.4575C173.102 68.4575 173.366 68.6255 173.638 68.9615C173.926 69.2815 174.19 69.6895 174.43 70.1855C174.686 70.6815 174.894 71.1935 175.054 71.7215C175.23 72.2335 175.318 72.6895 175.318 73.0895C175.318 73.6975 175.182 74.2015 174.91 74.6015C174.654 74.9855 174.294 75.1775 173.83 75.1775ZM170.302 75.1775C169.918 75.1775 169.59 75.0495 169.318 74.7935C169.062 74.5215 168.934 74.1855 168.934 73.7855C168.934 73.4495 168.966 73.1535 169.03 72.8975C169.094 72.6255 169.15 72.3455 169.198 72.0575C169.262 71.7535 169.262 71.3935 169.198 70.9775C169.134 70.5615 168.974 70.0495 168.718 69.4415C168.606 69.2015 168.614 68.9775 168.742 68.7695C168.886 68.5615 169.07 68.4575 169.294 68.4575C169.55 68.4575 169.814 68.6255 170.086 68.9615C170.374 69.2815 170.638 69.6895 170.878 70.1855C171.134 70.6815 171.342 71.1935 171.502 71.7215C171.678 72.2335 171.766 72.6895 171.766 73.0895C171.766 73.6975 171.638 74.2015 171.382 74.6015C171.126 74.9855 170.766 75.1775 170.302 75.1775Z" fill="#F6B17A"/>
<path d="M49.8706 28.4922H32.1706C28.0402 28.4922 25.975 28.4922 24.3974 29.3036C23.0097 30.0173 21.8815 31.1561 21.1744 32.5569C20.3706 34.1494 20.3706 36.234 20.3706 40.4033V83.5811C20.3706 87.7503 20.3706 89.8352 21.1744 91.4275C21.8815 92.8282 23.0097 93.9672 24.3974 94.6807C25.975 95.4922 28.0402 95.4922 32.1706 95.4922H64.2349M49.8706 28.4922L71.9956 50.8255M49.8706 28.4922V44.87C49.8706 46.9546 49.8706 47.9969 50.2725 48.7932C50.6262 49.4935 51.19 50.063 51.884 50.4198C52.6727 50.8255 53.7052 50.8255 55.7706 50.8255H71.9956M71.9956 50.8255V85.2074M35.1206 80.6033H44.3394M35.1206 65.7144H57.2456M35.1206 50.8255H38.8081" stroke="#F6B17A" stroke-width="3" stroke-linecap="round" stroke-linejoin="round"/>
<path d="M176.438 211V197.909H181.232C182.161 197.909 182.93 198.062 183.54 198.369C184.149 198.672 184.605 199.083 184.908 199.603C185.21 200.119 185.362 200.7 185.362 201.348C185.362 201.893 185.261 202.354 185.061 202.729C184.861 203.099 184.592 203.398 184.256 203.624C183.923 203.845 183.557 204.007 183.156 204.109V204.237C183.591 204.259 184.015 204.399 184.428 204.659C184.846 204.915 185.191 205.279 185.464 205.752C185.737 206.225 185.873 206.8 185.873 207.478C185.873 208.147 185.715 208.748 185.4 209.281C185.089 209.809 184.607 210.229 183.955 210.54C183.303 210.847 182.47 211 181.456 211H176.438ZM178.413 209.306H181.264C182.21 209.306 182.888 209.123 183.297 208.756C183.706 208.39 183.911 207.932 183.911 207.382C183.911 206.969 183.806 206.589 183.597 206.244C183.388 205.899 183.09 205.624 182.702 205.42C182.319 205.215 181.863 205.113 181.335 205.113H178.413V209.306ZM178.413 203.572H181.06C181.503 203.572 181.901 203.487 182.255 203.317C182.613 203.146 182.896 202.908 183.105 202.601C183.318 202.29 183.425 201.923 183.425 201.501C183.425 200.96 183.235 200.506 182.856 200.14C182.477 199.773 181.895 199.59 181.111 199.59H178.413V203.572ZM188.242 211V201.182H192.314C193.422 201.182 194.3 201.418 194.947 201.891C195.595 202.36 195.919 202.997 195.919 203.803C195.919 204.378 195.736 204.834 195.369 205.17C195.003 205.507 194.517 205.733 193.912 205.848C194.351 205.899 194.754 206.031 195.12 206.244C195.486 206.453 195.78 206.734 196.002 207.088C196.228 207.442 196.341 207.864 196.341 208.354C196.341 208.874 196.207 209.334 195.938 209.734C195.67 210.131 195.28 210.442 194.768 210.668C194.261 210.889 193.65 211 192.934 211H188.242ZM190.038 209.402H192.934C193.407 209.402 193.778 209.289 194.046 209.063C194.315 208.837 194.449 208.531 194.449 208.143C194.449 207.687 194.315 207.329 194.046 207.069C193.778 206.805 193.407 206.673 192.934 206.673H190.038V209.402ZM190.038 205.273H192.333C192.691 205.273 192.998 205.222 193.254 205.119C193.513 205.017 193.712 204.872 193.848 204.685C193.989 204.493 194.059 204.267 194.059 204.007C194.059 203.628 193.903 203.332 193.592 203.119C193.281 202.906 192.855 202.799 192.314 202.799H190.038V205.273ZM202.849 211.198C201.882 211.198 201.049 210.991 200.35 210.578C199.655 210.161 199.118 209.575 198.739 208.82C198.364 208.062 198.176 207.173 198.176 206.155C198.176 205.149 198.364 204.263 198.739 203.496C199.118 202.729 199.647 202.13 200.324 201.7C201.006 201.269 201.803 201.054 202.715 201.054C203.269 201.054 203.806 201.146 204.326 201.329C204.845 201.512 205.312 201.8 205.725 202.192C206.139 202.584 206.465 203.093 206.703 203.719C206.942 204.342 207.061 205.098 207.061 205.989V206.666H199.257V205.234H205.188C205.188 204.732 205.086 204.286 204.882 203.898C204.677 203.506 204.389 203.197 204.019 202.972C203.652 202.746 203.222 202.633 202.728 202.633C202.191 202.633 201.722 202.765 201.321 203.029C200.925 203.289 200.618 203.63 200.401 204.052C200.188 204.469 200.081 204.923 200.081 205.413V206.532C200.081 207.188 200.196 207.746 200.426 208.207C200.661 208.667 200.987 209.018 201.404 209.261C201.822 209.5 202.31 209.619 202.868 209.619C203.23 209.619 203.561 209.568 203.859 209.466C204.157 209.359 204.415 209.202 204.632 208.993C204.85 208.784 205.016 208.526 205.131 208.219L206.94 208.545C206.795 209.078 206.535 209.545 206.16 209.945C205.789 210.342 205.323 210.651 204.76 210.872C204.202 211.089 203.565 211.198 202.849 211.198ZM208.403 213.832V209.344H209.202C209.407 209.157 209.579 208.933 209.72 208.673C209.865 208.413 209.986 208.104 210.084 207.746C210.186 207.388 210.272 206.971 210.34 206.494C210.408 206.012 210.468 205.462 210.519 204.844L210.826 201.182H217.499V209.344H219.008V213.832H217.141V211H210.295V213.832H208.403ZM211.248 209.344H215.633V202.818H212.539L212.334 204.844C212.236 205.876 212.113 206.771 211.963 207.529C211.814 208.283 211.576 208.888 211.248 209.344ZM222.928 208.322L227.256 201.182H229.314V211H227.441V203.854L223.133 211H221.056V201.182H222.928V208.322ZM230.846 202.831V201.182H239.13V202.831H235.928V211H234.061V202.831H230.846ZM245.106 211.198C244.139 211.198 243.306 210.991 242.607 210.578C241.912 210.161 241.375 209.575 240.996 208.82C240.621 208.062 240.434 207.173 240.434 206.155C240.434 205.149 240.621 204.263 240.996 203.496C241.375 202.729 241.904 202.13 242.581 201.7C243.263 201.269 244.06 201.054 244.972 201.054C245.526 201.054 246.063 201.146 246.583 201.329C247.103 201.512 247.569 201.8 247.983 202.192C248.396 202.584 248.722 203.093 248.961 203.719C249.199 204.342 249.318 205.098 249.318 205.989V206.666H241.514V205.234H247.446C247.446 204.732 247.343 204.286 247.139 203.898C246.934 203.506 246.647 203.197 246.276 202.972C245.909 202.746 245.479 202.633 244.985 202.633C244.448 202.633 243.979 202.765 243.578 203.029C243.182 203.289 242.875 203.63 242.658 204.052C242.445 204.469 242.338 204.923 242.338 205.413V206.532C242.338 207.188 242.453 207.746 242.684 208.207C242.918 208.667 243.244 209.018 243.662 209.261C244.079 209.5 244.567 209.619 245.125 209.619C245.487 209.619 245.818 209.568 246.116 209.466C246.414 209.359 246.672 209.202 246.889 208.993C247.107 208.784 247.273 208.526 247.388 208.219L249.197 208.545C249.052 209.078 248.792 209.545 248.417 209.945C248.046 210.342 247.58 210.651 247.017 210.872C246.459 211.089 245.822 211.198 245.106 211.198ZM256.013 202.831V201.182H264.297V202.831H261.095V211H259.228V202.831H256.013ZM270.273 211.198C269.306 211.198 268.473 210.991 267.774 210.578C267.079 210.161 266.542 209.575 266.163 208.82C265.788 208.062 265.6 207.173 265.6 206.155C265.6 205.149 265.788 204.263 266.163 203.496C266.542 202.729 267.071 202.13 267.748 201.7C268.43 201.269 269.227 201.054 270.139 201.054C270.693 201.054 271.23 201.146 271.75 201.329C272.27 201.512 272.736 201.8 273.149 202.192C273.563 202.584 273.889 203.093 274.127 203.719C274.366 204.342 274.485 205.098 274.485 205.989V206.666H266.681V205.234H272.613C272.613 204.732 272.51 204.286 272.306 203.898C272.101 203.506 271.814 203.197 271.443 202.972C271.076 202.746 270.646 202.633 270.152 202.633C269.615 202.633 269.146 202.765 268.745 203.029C268.349 203.289 268.042 203.63 267.825 204.052C267.612 204.469 267.505 204.923 267.505 205.413V206.532C267.505 207.188 267.62 207.746 267.85 208.207C268.085 208.667 268.411 209.018 268.828 209.261C269.246 209.5 269.734 209.619 270.292 209.619C270.654 209.619 270.985 209.568 271.283 209.466C271.581 209.359 271.839 209.202 272.056 208.993C272.274 208.784 272.44 208.526 272.555 208.219L274.364 208.545C274.219 209.078 273.959 209.545 273.584 209.945C273.213 210.342 272.747 210.651 272.184 210.872C271.626 211.089 270.989 211.198 270.273 211.198ZM276.786 211V201.182H278.697V205.298H279.618L282.858 201.182H285.223L281.42 205.957L285.268 211H282.897L279.937 207.075H278.697V211H276.786ZM290.664 211.198C289.714 211.198 288.896 210.983 288.21 210.553C287.528 210.118 287.004 209.519 286.637 208.756C286.271 207.994 286.087 207.12 286.087 206.136C286.087 205.138 286.275 204.259 286.65 203.496C287.025 202.729 287.553 202.13 288.235 201.7C288.917 201.269 289.72 201.054 290.645 201.054C291.391 201.054 292.055 201.192 292.639 201.469C293.223 201.742 293.694 202.126 294.052 202.62C294.414 203.114 294.629 203.692 294.698 204.352H292.837C292.735 203.892 292.501 203.496 292.134 203.163C291.772 202.831 291.286 202.665 290.677 202.665C290.144 202.665 289.678 202.805 289.277 203.087C288.881 203.364 288.572 203.76 288.35 204.276C288.129 204.787 288.018 205.392 288.018 206.091C288.018 206.807 288.126 207.425 288.344 207.945C288.561 208.464 288.868 208.867 289.264 209.153C289.665 209.438 290.136 209.581 290.677 209.581C291.039 209.581 291.367 209.515 291.661 209.383C291.96 209.246 292.209 209.053 292.409 208.801C292.614 208.55 292.756 208.247 292.837 207.893H294.698C294.629 208.528 294.423 209.095 294.077 209.594C293.732 210.092 293.27 210.484 292.69 210.77C292.115 211.055 291.44 211.198 290.664 211.198ZM296.178 202.831V201.182H304.462V202.831H301.26V211H299.393V202.831H296.178ZM313.48 208.322L317.808 201.182H319.866V211H317.993V203.854L313.685 211H311.608V201.182H313.48V208.322ZM321.842 211L321.836 209.344H322.187C322.46 209.344 322.688 209.287 322.871 209.172C323.059 209.053 323.212 208.852 323.332 208.571C323.451 208.29 323.543 207.902 323.606 207.408C323.67 206.909 323.717 206.283 323.747 205.528L323.92 201.182H330.772V211H328.899V202.831H325.69L325.537 206.168C325.498 206.977 325.415 207.685 325.288 208.29C325.164 208.895 324.983 209.4 324.744 209.805C324.506 210.205 324.199 210.506 323.824 210.706C323.449 210.902 322.993 211 322.456 211H321.842ZM335.374 208.322L339.701 201.182H341.759V211H339.886V203.854L335.578 211H333.501V201.182H335.374V208.322ZM175.703 230.405H177.659C177.685 230.805 177.866 231.114 178.202 231.332C178.543 231.549 178.984 231.658 179.526 231.658C180.075 231.658 180.544 231.54 180.932 231.306C181.32 231.067 181.513 230.699 181.513 230.2C181.513 229.902 181.439 229.642 181.29 229.42C181.145 229.195 180.938 229.02 180.67 228.896C180.406 228.773 180.092 228.711 179.73 228.711H178.132V227.209H179.73C180.271 227.209 180.676 227.085 180.945 226.838C181.213 226.591 181.347 226.282 181.347 225.911C181.347 225.511 181.202 225.189 180.913 224.946C180.627 224.699 180.229 224.575 179.717 224.575C179.197 224.575 178.765 224.692 178.42 224.927C178.075 225.157 177.893 225.455 177.876 225.822H175.946C175.959 225.272 176.125 224.79 176.445 224.377C176.768 223.96 177.203 223.636 177.749 223.406C178.298 223.171 178.923 223.054 179.621 223.054C180.35 223.054 180.981 223.171 181.513 223.406C182.046 223.64 182.457 223.964 182.747 224.377C183.041 224.79 183.188 225.266 183.188 225.803C183.188 226.344 183.026 226.787 182.702 227.132C182.383 227.473 181.965 227.718 181.45 227.867V227.969C181.829 227.995 182.165 228.11 182.46 228.315C182.754 228.519 182.984 228.79 183.15 229.126C183.316 229.463 183.399 229.844 183.399 230.271C183.399 230.871 183.233 231.391 182.901 231.83C182.572 232.269 182.116 232.608 181.533 232.847C180.953 233.081 180.29 233.198 179.545 233.198C178.82 233.198 178.17 233.085 177.595 232.859C177.024 232.629 176.57 232.305 176.234 231.888C175.901 231.47 175.724 230.976 175.703 230.405ZM188.41 233.217C187.788 233.217 187.225 233.102 186.722 232.872C186.22 232.638 185.821 232.299 185.527 231.856C185.237 231.413 185.092 230.869 185.092 230.226C185.092 229.672 185.199 229.216 185.412 228.858C185.625 228.5 185.913 228.217 186.275 228.008C186.637 227.799 187.042 227.641 187.489 227.535C187.937 227.428 188.393 227.347 188.857 227.292C189.445 227.224 189.923 227.168 190.289 227.126C190.656 227.079 190.922 227.004 191.088 226.902C191.254 226.8 191.337 226.634 191.337 226.403V226.359C191.337 225.8 191.18 225.368 190.864 225.061C190.553 224.754 190.089 224.601 189.471 224.601C188.828 224.601 188.32 224.744 187.95 225.029C187.583 225.31 187.33 225.624 187.189 225.969L185.393 225.56C185.606 224.963 185.917 224.482 186.326 224.115C186.739 223.744 187.215 223.476 187.752 223.31C188.288 223.139 188.853 223.054 189.445 223.054C189.837 223.054 190.253 223.101 190.692 223.195C191.135 223.284 191.548 223.45 191.932 223.693C192.32 223.936 192.637 224.283 192.884 224.735C193.132 225.183 193.255 225.764 193.255 226.48V233H191.389V231.658H191.312C191.188 231.905 191.003 232.148 190.756 232.386C190.509 232.625 190.191 232.823 189.803 232.981C189.416 233.138 188.951 233.217 188.41 233.217ZM188.825 231.683C189.354 231.683 189.806 231.579 190.181 231.37C190.56 231.161 190.847 230.888 191.043 230.552C191.244 230.211 191.344 229.847 191.344 229.459V228.193C191.276 228.261 191.144 228.325 190.948 228.385C190.756 228.44 190.536 228.489 190.289 228.532C190.042 228.57 189.801 228.607 189.567 228.641C189.333 228.67 189.136 228.696 188.979 228.717C188.608 228.764 188.269 228.843 187.962 228.954C187.66 229.065 187.417 229.224 187.234 229.433C187.055 229.638 186.965 229.911 186.965 230.251C186.965 230.724 187.14 231.082 187.489 231.325C187.839 231.564 188.284 231.683 188.825 231.683ZM202.258 223.182V224.831H197.866V233H195.981V223.182H202.258ZM204.458 236.682V223.182H206.324V224.773H206.484C206.595 224.569 206.754 224.332 206.963 224.064C207.172 223.795 207.462 223.561 207.833 223.361C208.203 223.156 208.693 223.054 209.303 223.054C210.095 223.054 210.803 223.254 211.425 223.655C212.047 224.055 212.535 224.633 212.889 225.387C213.247 226.141 213.426 227.049 213.426 228.11C213.426 229.171 213.249 230.081 212.895 230.839C212.541 231.594 212.056 232.175 211.438 232.585C210.82 232.989 210.115 233.192 209.322 233.192C208.725 233.192 208.237 233.092 207.858 232.891C207.483 232.691 207.189 232.457 206.976 232.188C206.763 231.92 206.599 231.681 206.484 231.472H206.369V236.682H204.458ZM206.33 228.091C206.33 228.781 206.431 229.386 206.631 229.906C206.831 230.426 207.121 230.833 207.5 231.127C207.879 231.417 208.344 231.562 208.894 231.562C209.465 231.562 209.942 231.411 210.326 231.108C210.709 230.801 210.999 230.386 211.195 229.862C211.395 229.337 211.495 228.747 211.495 228.091C211.495 227.443 211.397 226.862 211.201 226.346C211.009 225.83 210.72 225.423 210.332 225.125C209.948 224.827 209.469 224.678 208.894 224.678C208.34 224.678 207.871 224.82 207.487 225.106C207.108 225.391 206.821 225.79 206.625 226.301C206.428 226.812 206.33 227.409 206.33 228.091ZM216.621 236.682C216.336 236.682 216.076 236.658 215.841 236.612C215.607 236.569 215.432 236.522 215.317 236.471L215.777 234.905C216.127 234.999 216.438 235.039 216.711 235.026C216.983 235.013 217.224 234.911 217.433 234.719C217.646 234.528 217.833 234.214 217.995 233.78L218.232 233.128L214.64 223.182H216.685L219.172 230.801H219.274L221.76 223.182H223.812L219.766 234.31C219.578 234.822 219.34 235.254 219.05 235.608C218.76 235.966 218.415 236.234 218.015 236.413C217.614 236.592 217.15 236.682 216.621 236.682ZM225.207 230.405H227.163C227.188 230.805 227.369 231.114 227.706 231.332C228.047 231.549 228.488 231.658 229.029 231.658C229.579 231.658 230.048 231.54 230.435 231.306C230.823 231.067 231.017 230.699 231.017 230.2C231.017 229.902 230.942 229.642 230.793 229.42C230.648 229.195 230.442 229.02 230.173 228.896C229.909 228.773 229.596 228.711 229.234 228.711H227.636V227.209H229.234C229.775 227.209 230.18 227.085 230.448 226.838C230.717 226.591 230.851 226.282 230.851 225.911C230.851 225.511 230.706 225.189 230.416 224.946C230.131 224.699 229.732 224.575 229.221 224.575C228.701 224.575 228.268 224.692 227.923 224.927C227.578 225.157 227.397 225.455 227.38 225.822H225.45C225.462 225.272 225.629 224.79 225.948 224.377C226.272 223.96 226.707 223.636 227.252 223.406C227.802 223.171 228.426 223.054 229.125 223.054C229.854 223.054 230.484 223.171 231.017 223.406C231.55 223.64 231.961 223.964 232.251 224.377C232.545 224.79 232.692 225.266 232.692 225.803C232.692 226.344 232.53 226.787 232.206 227.132C231.886 227.473 231.469 227.718 230.953 227.867V227.969C231.332 227.995 231.669 228.11 231.963 228.315C232.257 228.519 232.487 228.79 232.653 229.126C232.82 229.463 232.903 229.844 232.903 230.271C232.903 230.871 232.736 231.391 232.404 231.83C232.076 232.269 231.62 232.608 231.036 232.847C230.457 233.081 229.794 233.198 229.048 233.198C228.324 233.198 227.674 233.085 227.099 232.859C226.528 232.629 226.074 232.305 225.737 231.888C225.405 231.47 225.228 230.976 225.207 230.405ZM236.929 230.322L241.256 223.182H243.315V233H241.442V225.854L237.134 233H235.056V223.182H236.929V230.322ZM244.847 224.831V223.182H253.131V224.831H249.928V233H248.062V224.831H244.847ZM259.107 233.198C258.139 233.198 257.306 232.991 256.607 232.578C255.913 232.161 255.376 231.575 254.997 230.82C254.622 230.062 254.434 229.173 254.434 228.155C254.434 227.149 254.622 226.263 254.997 225.496C255.376 224.729 255.904 224.13 256.582 223.7C257.264 223.269 258.061 223.054 258.972 223.054C259.526 223.054 260.063 223.146 260.583 223.329C261.103 223.512 261.57 223.8 261.983 224.192C262.397 224.584 262.722 225.093 262.961 225.719C263.2 226.342 263.319 227.098 263.319 227.989V228.666H255.514V227.234H261.446C261.446 226.732 261.344 226.286 261.139 225.898C260.935 225.506 260.647 225.197 260.276 224.972C259.91 224.746 259.48 224.633 258.985 224.633C258.448 224.633 257.98 224.765 257.579 225.029C257.183 225.289 256.876 225.63 256.659 226.052C256.446 226.469 256.339 226.923 256.339 227.413V228.532C256.339 229.188 256.454 229.746 256.684 230.207C256.919 230.667 257.245 231.018 257.662 231.261C258.08 231.5 258.568 231.619 259.126 231.619C259.488 231.619 259.818 231.568 260.117 231.466C260.415 231.359 260.673 231.202 260.89 230.993C261.107 230.784 261.274 230.526 261.389 230.219L263.198 230.545C263.053 231.078 262.793 231.545 262.418 231.945C262.047 232.342 261.58 232.651 261.018 232.872C260.46 233.089 259.823 233.198 259.107 233.198ZM274.788 236.343V219.909H276.7V236.343H274.788ZM274.788 233.198C274.094 233.198 273.461 233.079 272.89 232.84C272.319 232.597 271.827 232.252 271.413 231.805C271 231.357 270.681 230.822 270.455 230.2C270.233 229.578 270.122 228.89 270.122 228.136C270.122 227.373 270.233 226.68 270.455 226.058C270.681 225.436 271 224.901 271.413 224.454C271.827 224.006 272.319 223.661 272.89 223.418C273.461 223.175 274.094 223.054 274.788 223.054H275.261V233.198H274.788ZM274.788 231.587H275.057V224.665H274.788C274.328 224.665 273.928 224.759 273.587 224.946C273.246 225.129 272.962 225.383 272.737 225.707C272.511 226.026 272.34 226.395 272.225 226.812C272.114 227.23 272.059 227.671 272.059 228.136C272.059 228.758 272.159 229.331 272.359 229.855C272.56 230.375 272.862 230.795 273.267 231.114C273.672 231.43 274.179 231.587 274.788 231.587ZM276.7 233.198H276.22V223.054H276.7C277.394 223.054 278.027 223.175 278.598 223.418C279.169 223.661 279.659 224.006 280.068 224.454C280.482 224.901 280.799 225.436 281.021 226.058C281.247 226.68 281.359 227.373 281.359 228.136C281.359 228.89 281.247 229.578 281.021 230.2C280.799 230.822 280.482 231.357 280.068 231.805C279.659 232.252 279.169 232.597 278.598 232.84C278.027 233.079 277.394 233.198 276.7 233.198ZM276.7 231.587C277.16 231.587 277.56 231.498 277.901 231.319C278.242 231.136 278.526 230.884 278.752 230.565C278.977 230.241 279.146 229.872 279.257 229.459C279.367 229.041 279.423 228.6 279.423 228.136C279.423 227.518 279.323 226.947 279.122 226.423C278.926 225.894 278.626 225.47 278.221 225.151C277.816 224.827 277.309 224.665 276.7 224.665H276.425V231.587H276.7ZM286.52 233.217C285.898 233.217 285.336 233.102 284.833 232.872C284.33 232.638 283.932 232.299 283.638 231.856C283.348 231.413 283.203 230.869 283.203 230.226C283.203 229.672 283.31 229.216 283.523 228.858C283.736 228.5 284.023 228.217 284.386 228.008C284.748 227.799 285.153 227.641 285.6 227.535C286.047 227.428 286.503 227.347 286.968 227.292C287.556 227.224 288.033 227.168 288.4 227.126C288.766 227.079 289.033 227.004 289.199 226.902C289.365 226.8 289.448 226.634 289.448 226.403V226.359C289.448 225.8 289.29 225.368 288.975 225.061C288.664 224.754 288.199 224.601 287.582 224.601C286.938 224.601 286.431 224.744 286.06 225.029C285.694 225.31 285.44 225.624 285.3 225.969L283.503 225.56C283.717 224.963 284.028 224.482 284.437 224.115C284.85 223.744 285.325 223.476 285.862 223.31C286.399 223.139 286.964 223.054 287.556 223.054C287.948 223.054 288.364 223.101 288.802 223.195C289.246 223.284 289.659 223.45 290.043 223.693C290.43 223.936 290.748 224.283 290.995 224.735C291.242 225.183 291.366 225.764 291.366 226.48V233H289.499V231.658H289.422C289.299 231.905 289.114 232.148 288.866 232.386C288.619 232.625 288.302 232.823 287.914 232.981C287.526 233.138 287.062 233.217 286.52 233.217ZM286.936 231.683C287.464 231.683 287.916 231.579 288.291 231.37C288.67 231.161 288.958 230.888 289.154 230.552C289.354 230.211 289.454 229.847 289.454 229.459V228.193C289.386 228.261 289.254 228.325 289.058 228.385C288.866 228.44 288.647 228.489 288.4 228.532C288.153 228.57 287.912 228.607 287.677 228.641C287.443 228.67 287.247 228.696 287.089 228.717C286.719 228.764 286.38 228.843 286.073 228.954C285.77 229.065 285.528 229.224 285.344 229.433C285.165 229.638 285.076 229.911 285.076 230.251C285.076 230.724 285.251 231.082 285.6 231.325C285.949 231.564 286.395 231.683 286.936 231.683ZM295.964 230.322L300.292 223.182H302.35V233H300.477V225.854L296.169 233H294.091V223.182H295.964V230.322ZM299.473 219.858H301.046C301.046 220.578 300.79 221.164 300.279 221.616C299.772 222.063 299.086 222.287 298.221 222.287C297.36 222.287 296.676 222.063 296.169 221.616C295.662 221.164 295.408 220.578 295.408 219.858H296.974C296.974 220.178 297.068 220.461 297.255 220.708C297.443 220.951 297.765 221.072 298.221 221.072C298.668 221.072 298.988 220.951 299.179 220.708C299.375 220.465 299.473 220.182 299.473 219.858ZM304.326 233L304.32 231.344H304.671C304.944 231.344 305.172 231.287 305.355 231.172C305.543 231.053 305.696 230.852 305.815 230.571C305.935 230.29 306.026 229.902 306.09 229.408C306.154 228.909 306.201 228.283 306.231 227.528L306.403 223.182H313.256V233H311.383V224.831H308.174L308.021 228.168C307.982 228.977 307.899 229.685 307.771 230.29C307.648 230.895 307.467 231.4 307.228 231.805C306.989 232.205 306.683 232.506 306.308 232.706C305.933 232.902 305.477 233 304.94 233H304.326Z" fill="#FAE5D1"/>
<rect x="152" y="242" width="292" height="48" rx="19" stroke="#FAE5D1" stroke-opacity="0.2" stroke-width="2"/>
<path d="M172.908 264V262.773C172.908 262.411 172.976 262.029 173.112 261.629C173.249 261.228 173.438 260.844 173.681 260.478C173.924 260.112 174.21 259.798 174.538 259.538L175.484 260.216C175.224 260.595 175.002 260.991 174.819 261.405C174.636 261.818 174.544 262.268 174.544 262.754V264H172.908ZM176.168 264V262.773C176.168 262.411 176.236 262.029 176.372 261.629C176.509 261.228 176.698 260.844 176.941 260.478C177.184 260.112 177.469 259.798 177.798 259.538L178.744 260.216C178.484 260.595 178.262 260.991 178.079 261.405C177.896 261.818 177.804 262.268 177.804 262.754V264H176.168ZM180.72 273V259.909H182.695V265.598H189.221V259.909H191.203V273H189.221V267.292H182.695V273H180.72ZM198.337 273.198C197.37 273.198 196.537 272.991 195.838 272.578C195.143 272.161 194.606 271.575 194.227 270.82C193.852 270.062 193.665 269.173 193.665 268.155C193.665 267.149 193.852 266.263 194.227 265.496C194.606 264.729 195.135 264.13 195.812 263.7C196.494 263.269 197.291 263.054 198.203 263.054C198.757 263.054 199.294 263.146 199.814 263.329C200.334 263.512 200.8 263.8 201.214 264.192C201.627 264.584 201.953 265.093 202.192 265.719C202.43 266.342 202.55 267.098 202.55 267.989V268.666H194.745V267.234H200.677C200.677 266.732 200.574 266.286 200.37 265.898C200.165 265.506 199.878 265.197 199.507 264.972C199.141 264.746 198.71 264.633 198.216 264.633C197.679 264.633 197.21 264.765 196.81 265.029C196.413 265.289 196.106 265.63 195.889 266.052C195.676 266.469 195.57 266.923 195.57 267.413V268.532C195.57 269.188 195.685 269.746 195.915 270.207C196.149 270.667 196.475 271.018 196.893 271.261C197.31 271.5 197.798 271.619 198.356 271.619C198.719 271.619 199.049 271.568 199.347 271.466C199.646 271.359 199.903 271.202 200.121 270.993C200.338 270.784 200.504 270.526 200.619 270.219L202.428 270.545C202.283 271.078 202.023 271.545 201.648 271.945C201.278 272.342 200.811 272.651 200.248 272.872C199.69 273.089 199.053 273.198 198.337 273.198ZM206.761 259.909V273H204.85V259.909H206.761ZM211.424 259.909V273H209.513V259.909H211.424ZM218.311 273.198C217.39 273.198 216.587 272.987 215.901 272.565C215.215 272.143 214.682 271.553 214.303 270.795C213.924 270.036 213.734 269.15 213.734 268.136C213.734 267.117 213.924 266.227 214.303 265.464C214.682 264.701 215.215 264.109 215.901 263.687C216.587 263.265 217.39 263.054 218.311 263.054C219.231 263.054 220.034 263.265 220.72 263.687C221.407 264.109 221.939 264.701 222.319 265.464C222.698 266.227 222.887 267.117 222.887 268.136C222.887 269.15 222.698 270.036 222.319 270.795C221.939 271.553 221.407 272.143 220.72 272.565C220.034 272.987 219.231 273.198 218.311 273.198ZM218.317 271.594C218.914 271.594 219.408 271.436 219.8 271.121C220.192 270.805 220.482 270.386 220.669 269.862C220.861 269.337 220.957 268.76 220.957 268.129C220.957 267.503 220.861 266.928 220.669 266.403C220.482 265.875 220.192 265.451 219.8 265.131C219.408 264.812 218.914 264.652 218.317 264.652C217.716 264.652 217.218 264.812 216.821 265.131C216.429 265.451 216.137 265.875 215.946 266.403C215.758 266.928 215.664 267.503 215.664 268.129C215.664 268.76 215.758 269.337 215.946 269.862C216.137 270.386 216.429 270.805 216.821 271.121C217.218 271.436 217.716 271.594 218.317 271.594ZM232.273 273L229.384 263.182H231.359L233.283 270.392H233.379L235.309 263.182H237.284L239.202 270.36H239.298L241.209 263.182H243.184L240.301 273H238.352L236.357 265.911H236.21L234.216 273H232.273ZM249.015 273.198C248.094 273.198 247.291 272.987 246.605 272.565C245.919 272.143 245.386 271.553 245.007 270.795C244.628 270.036 244.438 269.15 244.438 268.136C244.438 267.117 244.628 266.227 245.007 265.464C245.386 264.701 245.919 264.109 246.605 263.687C247.291 263.265 248.094 263.054 249.015 263.054C249.935 263.054 250.738 263.265 251.425 263.687C252.111 264.109 252.643 264.701 253.023 265.464C253.402 266.227 253.591 267.117 253.591 268.136C253.591 269.15 253.402 270.036 253.023 270.795C252.643 271.553 252.111 272.143 251.425 272.565C250.738 272.987 249.935 273.198 249.015 273.198ZM249.021 271.594C249.618 271.594 250.112 271.436 250.504 271.121C250.896 270.805 251.186 270.386 251.373 269.862C251.565 269.337 251.661 268.76 251.661 268.129C251.661 267.503 251.565 266.928 251.373 266.403C251.186 265.875 250.896 265.451 250.504 265.131C250.112 264.812 249.618 264.652 249.021 264.652C248.42 264.652 247.922 264.812 247.525 265.131C247.133 265.451 246.841 265.875 246.65 266.403C246.462 266.928 246.368 267.503 246.368 268.129C246.368 268.76 246.462 269.337 246.65 269.862C246.841 270.386 247.133 270.805 247.525 271.121C247.922 271.436 248.42 271.594 249.021 271.594ZM255.905 273V263.182H257.752V264.741H257.854C258.033 264.213 258.349 263.798 258.8 263.495C259.256 263.188 259.772 263.035 260.347 263.035C260.467 263.035 260.607 263.039 260.769 263.048C260.935 263.056 261.065 263.067 261.159 263.08V264.908C261.082 264.886 260.946 264.863 260.75 264.837C260.554 264.808 260.358 264.793 260.162 264.793C259.71 264.793 259.308 264.888 258.954 265.08C258.604 265.268 258.327 265.53 258.123 265.866C257.918 266.199 257.816 266.578 257.816 267.004V273H255.905ZM264.904 259.909V273H262.993V259.909H264.904ZM271.331 273.192C270.538 273.192 269.831 272.989 269.209 272.585C268.591 272.175 268.105 271.594 267.751 270.839C267.402 270.081 267.227 269.171 267.227 268.11C267.227 267.049 267.404 266.141 267.758 265.387C268.116 264.633 268.606 264.055 269.228 263.655C269.85 263.254 270.555 263.054 271.344 263.054C271.953 263.054 272.443 263.156 272.814 263.361C273.189 263.561 273.479 263.795 273.683 264.064C273.892 264.332 274.054 264.569 274.169 264.773H274.284V259.909H276.195V273H274.329V271.472H274.169C274.054 271.681 273.888 271.92 273.67 272.188C273.457 272.457 273.163 272.691 272.788 272.891C272.413 273.092 271.927 273.192 271.331 273.192ZM271.753 271.562C272.302 271.562 272.767 271.417 273.146 271.127C273.53 270.833 273.819 270.426 274.016 269.906C274.216 269.386 274.316 268.781 274.316 268.091C274.316 267.409 274.218 266.812 274.022 266.301C273.826 265.79 273.538 265.391 273.159 265.106C272.78 264.82 272.311 264.678 271.753 264.678C271.177 264.678 270.698 264.827 270.315 265.125C269.931 265.423 269.641 265.83 269.445 266.346C269.253 266.862 269.158 267.443 269.158 268.091C269.158 268.747 269.256 269.337 269.452 269.862C269.648 270.386 269.937 270.801 270.321 271.108C270.709 271.411 271.186 271.562 271.753 271.562ZM281.513 259.909L281.347 269.235H279.576L279.41 259.909H281.513ZM280.465 273.121C280.111 273.121 279.808 272.998 279.557 272.751C279.305 272.499 279.182 272.197 279.186 271.843C279.182 271.494 279.305 271.195 279.557 270.948C279.808 270.697 280.111 270.571 280.465 270.571C280.81 270.571 281.108 270.697 281.359 270.948C281.611 271.195 281.739 271.494 281.743 271.843C281.739 272.077 281.677 272.293 281.558 272.489C281.442 272.68 281.289 272.834 281.097 272.949C280.906 273.064 280.695 273.121 280.465 273.121ZM286.217 259.909V261.136C286.217 261.499 286.149 261.88 286.012 262.281C285.88 262.677 285.693 263.058 285.45 263.425C285.207 263.791 284.921 264.107 284.593 264.371L283.647 263.693C283.899 263.327 284.116 262.937 284.299 262.523C284.487 262.11 284.58 261.654 284.58 261.156V259.909H286.217ZM289.47 259.909V261.136C289.47 261.499 289.402 261.88 289.266 262.281C289.134 262.677 288.946 263.058 288.703 263.425C288.46 263.791 288.175 264.107 287.847 264.371L286.901 263.693C287.152 263.327 287.369 262.937 287.553 262.523C287.74 262.11 287.834 261.654 287.834 261.156V259.909H289.47Z" fill="white"/>
<path d="M401.739 113.244C401.739 144.42 408.79 203.982 364.2 223.667M401.739 113.244L386.448 132.409M401.739 113.244L419.433 132.409" stroke="#FAE5D1" stroke-width="5" stroke-linecap="round" stroke-linejoin="round"/>
<defs>
<clipPath id="clip0_655_477">
<rect x="256" y="28" width="229" height="71" rx="20" fill="white"/>
</clipPath>
</defs>
</svg>
