<svg width="485" height="300" fill="none" xmlns="http://www.w3.org/2000/svg">
  <g clip-path="url(#a)">
    <path d="M311.259 57.1703c-.121-.4475-.299-.8416-.533-1.1826a3.415 3.415 0 0 0-.863-.8842c-.341-.2415-.732-.4226-1.172-.5433-.44-.1278-.923-.1918-1.449-.1918-1.058 0-1.974.2557-2.748.7671-.767.5113-1.36 1.2571-1.78 2.2372-.419.973-.628 2.1555-.628 3.5476 0 1.3991.202 2.5923.607 3.5795.405.9872.991 1.7401 1.758 2.2585.767.5185 1.697.7777 2.791.7777.966 0 1.783-.1562 2.45-.4687.675-.3196 1.187-.7706 1.535-1.353.348-.5824.522-1.2677.522-2.0561l.98.1172h-5.306v-3.8459h9.407v2.8871c0 1.9531-.415 3.6257-1.246 5.0177-.824 1.3921-1.96 2.461-3.409 3.2067-1.442.7458-3.1 1.1186-4.975 1.1186-2.081 0-3.91-.451-5.487-1.353-1.577-.9019-2.805-2.1875-3.686-3.8565-.881-1.6761-1.321-3.6648-1.321-5.9659 0-1.7898.266-3.3771.799-4.7621.533-1.392 1.275-2.571 2.227-3.5369.958-.9659 2.066-1.6975 3.323-2.1946 1.265-.4972 2.625-.7457 4.081-.7457 1.264 0 2.439.1811 3.526.5433 1.094.3622 2.06.8736 2.898 1.5341.845.6605 1.53 1.4453 2.056 2.3544.525.9091.852 1.9069.98 2.9936h-5.337Zm25.036 14.9893c-1.662 0-3.136-.2841-4.421-.8522-1.279-.5753-2.287-1.3672-3.026-2.3758-.739-1.0085-1.115-2.1697-1.129-3.4836h5.305c.021.4758.174.8984.458 1.2677.284.3622.671.6463 1.162.8523.49.206 1.047.309 1.672.309s1.176-.1101 1.651-.3303c.483-.2273.86-.5362 1.13-.9268.27-.3978.401-.8523.394-1.3637.007-.5113-.139-.9659-.437-1.3636-.298-.3977-.721-.7067-1.268-.9269-.54-.2201-1.179-.3302-1.917-.3302h-2.12v-3.75h2.12c.646 0 1.214-.1066 1.704-.3196.497-.2131.884-.5114 1.161-.8949.277-.3906.412-.8381.405-1.3423.007-.4901-.11-.9198-.351-1.2891-.235-.3764-.565-.6676-.991-.8736-.419-.206-.906-.3089-1.46-.3089-.582 0-1.111.1029-1.587.3089-.469.206-.842.4972-1.119.8736-.277.3764-.422.8132-.436 1.3104h-5.039c.014-1.2998.376-2.4432 1.086-3.4304.71-.9944 1.676-1.7721 2.898-2.3331 1.229-.5611 2.628-.8416 4.197-.8416 1.563 0 2.937.2734 4.123.8203 1.186.5468 2.11 1.2926 2.77 2.2372.661.9375.991 1.9993.991 3.1853.007 1.2287-.394 2.2408-1.204 3.0363-.802.7954-1.836 1.2855-3.1 1.4701v.1705c1.69.1989 2.965.7457 3.825 1.6406.866.8949 1.296 2.0135 1.289 3.3558 0 1.2642-.373 2.3864-1.119 3.3665-.739.973-1.768 1.7401-3.09 2.3012-1.313.5539-2.823.8309-4.527.8309Zm28.163 0c-1.591 0-3.004-.2876-4.24-.8629-1.236-.5753-2.213-1.3672-2.93-2.3757-.71-1.0085-1.079-2.1662-1.108-3.473h5.114c.042.8025.369 1.4488.98 1.9389.611.483 1.339.7244 2.184.7244.66 0 1.246-.1456 1.758-.4368.511-.2912.912-.6995 1.203-1.2251.292-.5327.434-1.1435.427-1.8324.007-.7031-.139-1.3175-.437-1.843-.291-.5256-.696-.934-1.215-1.2252-.511-.2983-1.101-.4474-1.768-.4474-.632-.0071-1.232.1314-1.801.4155-.561.2841-.987.6711-1.278 1.1612l-4.656-.8736.949-11.7614h13.998v4.2508h-9.662l-.501 5.1456h.128c.362-.6037.944-1.1009 1.747-1.4915.81-.3978 1.729-.5966 2.759-.5966 1.307 0 2.472.3054 3.494.9162 1.03.6037 1.84 1.4417 2.429 2.5142.597 1.0724.895 2.3011.895 3.6861 0 1.4985-.355 2.8267-1.065 3.9843-.703 1.1577-1.69 2.0668-2.962 2.7273-1.264.6534-2.745.9801-4.442.9801Zm28.371-22.1165h5.198v15.0853c-.007 1.4133-.344 2.6491-1.012 3.7074-.667 1.0511-1.591 1.8679-2.77 2.4502-1.171.5824-2.528.8736-4.069.8736-1.364 0-2.603-.2379-3.718-.7138-1.108-.4758-1.992-1.2144-2.653-2.2159-.653-1.0014-.976-2.2833-.969-3.8458h5.252c.021.561.128 1.0404.319 1.4382.199.3906.473.6853.821.8842.348.1989.763.2983 1.246.2983.504 0 .931-.1065 1.279-.3196.348-.2202.61-.5433.788-.9695.185-.4261.28-.9552.288-1.5873V50.0431Zm26.655 0v21.8182h-5.263V54.965h-.127l-4.88 2.983v-4.5597l5.38-3.3452h4.89Zm23.012 0v21.8182h-5.263V54.965h-.127l-4.88 2.983v-4.5597l5.38-3.3452h4.89Z" fill="#F6B17A"/>
  </g>
  <rect x="257" y="29" width="227" height="69" rx="19" stroke="#FAE5D1" stroke-width="2"/>
  <path d="M334.563 20.2988V7.2079h4.794c.929 0 1.698.1534 2.308.4602.609.3026 1.065.7138 1.368 1.2337.302.5156.454 1.0973.454 1.745 0 .5455-.101 1.0057-.301 1.3807-.2.3708-.469.6691-.805.8949-.333.2216-.699.3835-1.1.4858v.1278c.435.0214.859.162 1.272.4219.418.2557.763.62 1.036 1.0931.273.473.409 1.0483.409 1.7258 0 .669-.158 1.2699-.473 1.8026-.311.5284-.793.9481-1.445 1.2592-.652.3068-1.485.4602-2.499.4602h-5.018Zm1.975-1.6939h2.851c.946 0 1.624-.1832 2.033-.5497.409-.3665.614-.8246.614-1.3743 0-.4133-.105-.7926-.314-1.1378-.208-.3451-.507-.62-.895-.8245-.383-.2046-.839-.3068-1.367-.3068h-2.922v4.1931Zm0-5.7336h2.647c.443 0 .841-.0853 1.195-.2557.358-.1705.641-.4091.85-.7159.213-.3111.32-.6776.32-1.0995 0-.5411-.19-.995-.569-1.3615-.379-.3664-.961-.5497-1.745-.5497h-2.698v3.9823Zm12.686 7.6449c-.622 0-1.184-.1151-1.687-.3452-.503-.2344-.901-.5732-1.195-1.0163-.29-.4432-.435-.9866-.435-1.63 0-.554.106-1.01.32-1.3679.213-.358.5-.6414.862-.8502.363-.2088.768-.3664 1.215-.473.447-.1065.903-.1875 1.368-.2429.588-.0682 1.065-.1235 1.432-.1662.366-.0468.633-.1214.799-.2237.166-.1023.249-.2684.249-.4986v-.0447c0-.5582-.158-.9908-.473-1.2976-.311-.3068-.776-.4602-1.393-.4602-.644 0-1.151.1427-1.522.4282-.366.2813-.62.5945-.76.9397l-1.797-.4091c.213-.5966.525-1.0781.934-1.4446.413-.3708.888-.6392 1.425-.8054.537-.1705 1.102-.2557 1.694-.2557.392 0 .807.0469 1.246.1406.444.0895.857.2557 1.24.4986.388.2429.706.5902.953 1.0419.247.4475.371 1.0291.371 1.745v6.5199h-1.867v-1.3423h-.077c-.123.2472-.309.4901-.556.7287-.247.2386-.564.4368-.952.5945-.388.1576-.852.2365-1.394.2365Zm.416-1.5341c.528 0 .98-.1044 1.355-.3132.379-.2089.667-.4816.863-.8182.2-.3409.3-.7053.3-1.0931V15.492c-.068.0682-.2.1321-.396.1918-.192.0554-.411.1044-.658.147-.247.0383-.488.0746-.723.1087-.234.0298-.43.0554-.588.0767-.37.0468-.709.1257-1.016.2365-.303.1108-.545.2706-.729.4794-.179.2045-.268.4772-.268.8181 0 .4731.175.831.524 1.0739.349.2386.795.358 1.336.358Zm7.155-8.5015h1.873v8.1627h3.394v-8.1627h1.873v8.1627h3.394v-8.1627h1.873v9.8182h-12.407v-9.8182Zm20.083 9.8182v-9.8182h1.911v4.1165h.921l3.24-4.1165h2.365l-3.803 4.7749 3.848 5.0433h-2.371l-2.96-3.9247h-1.24v3.9247h-1.911Zm13.878.1982c-.92 0-1.724-.211-2.41-.6328-.686-.4219-1.219-1.0121-1.598-1.7706-.379-.7586-.569-1.6449-.569-2.6591 0-1.0185.19-1.9091.569-2.6719.379-.7628.912-1.3551 1.598-1.777.686-.4219 1.49-.6328 2.41-.6328.92 0 1.724.2109 2.41.6328.686.4219 1.219 1.0142 1.598 1.777.379.7628.569 1.6534.569 2.6719 0 1.0142-.19 1.9005-.569 2.6591-.379.7585-.912 1.3487-1.598 1.7706-.686.4218-1.49.6328-2.41.6328Zm.006-1.6044c.597 0 1.091-.1577 1.483-.473.392-.3154.682-.7351.87-1.2593.191-.5241.287-1.1015.287-1.7322 0-.6264-.096-1.2017-.287-1.7259-.188-.5284-.478-.9524-.87-1.272s-.886-.4794-1.483-.4794c-.6 0-1.099.1598-1.495.4794-.392.3196-.684.7436-.876 1.272-.188.5242-.281 1.0995-.281 1.7259 0 .6307.093 1.2081.281 1.7322.192.5242.484.9439.876 1.2593.396.3153.895.473 1.495.473Zm5.925 4.2379v-4.4872h.799c.205-.1875.377-.4112.518-.6712.145-.2599.266-.5689.364-.9268.103-.358.188-.7756.256-1.2529.068-.4815.128-1.0312.179-1.6491l.307-3.6627h6.673v8.1627h1.509v4.4872h-1.867v-2.8317h-6.846v2.8317h-1.892Zm2.845-4.4872h4.385V12.117h-3.094l-.205 2.0263c-.098 1.0312-.221 1.9261-.37 2.6846-.149.7543-.388 1.3594-.716 1.8154Z" fill="#FAE5D1"/>
  <path d="M74.3999 116.978c-.0001 39.581-.7524 107.496 59.1771 126.375m0 0-28.696 8.156m28.696-8.156-13.191-24.469" stroke="#FAE5D1" stroke-width="5" stroke-linecap="round" stroke-linejoin="round"/>
  <path d="M99.9076 41.4575c.2564 0 .4484.104.5764.312.128.208.136.432.024.672-.256.608-.416 1.12-.48 1.536-.0644.416-.0724.768-.024 1.056.048.288.104.568.168.84.08.272.12.576.12.912 0 .4-.136.736-.4084 1.008-.256.256-.576.384-.96.384-.464 0-.824-.192-1.08-.576-.256-.4-.384-.904-.384-1.512 0-.4.08-.856.24-1.368.16-.528.368-1.04.624-1.536s.52-.904.792-1.224c.288-.336.552-.504.792-.504Zm3.6244 0c.24 0 .424.104.552.312.144.208.16.432.048.672-.272.608-.44 1.12-.504 1.536-.048.416-.048.768 0 1.056.048.288.104.568.168.84.08.272.12.576.12.912 0 .4-.136.736-.408 1.008-.272.256-.592.384-.96.384-.464 0-.832-.192-1.104-.576-.256-.4-.384-.904-.384-1.512 0-.4.08-.856.24-1.368.176-.528.384-1.04.624-1.536.256-.496.528-.904.816-1.224.288-.336.552-.504.792-.504Zm4.442 19.896c-.32 0-.592-.104-.816-.312-.208-.224-.312-.496-.312-.816v-16.488c0-.336.104-.608.312-.816.224-.208.496-.312.816-.312.336 0 .608.104.816.312.208.208.312.48.312.816v7.128h11.352v-7.128c0-.336.104-.608.312-.816.224-.208.496-.312.816-.312.336 0 .608.104.816.312.208.208.312.48.312.816v16.488c0 .32-.104.592-.312.816-.208.208-.48.312-.816.312-.32 0-.592-.104-.816-.312-.208-.224-.312-.496-.312-.816v-7.368h-11.352v7.368c0 .32-.104.592-.312.816-.208.208-.48.312-.816.312Zm25.64.096c-1.328 0-2.504-.28-3.528-.84-1.008-.576-1.8-1.36-2.376-2.352-.576-1.008-.864-2.16-.864-3.456 0-1.312.272-2.464.816-3.456.544-1.008 1.296-1.792 2.256-2.352.96-.576 2.072-.864 3.336-.864 1.232 0 2.296.28 3.192.84.896.544 1.584 1.304 2.064 2.28.48.96.72 2.072.72 3.336 0 .272-.096.504-.288.696-.176.176-.416.264-.72.264h-9.864v-1.776h9.888l-.984.696c-.016-.848-.184-1.608-.504-2.28-.32-.672-.776-1.2-1.368-1.584-.592-.384-1.304-.576-2.136-.576-.912 0-1.704.208-2.376.624-.656.416-1.16.984-1.512 1.704-.352.72-.528 1.536-.528 2.448 0 .912.2 1.728.6 2.448.416.704.976 1.264 1.68 1.68.72.416 1.552.624 2.496.624.512 0 1.04-.096 1.584-.288.56-.192 1-.416 1.32-.672.224-.176.464-.264.72-.264.256-.016.48.056.672.216.24.224.368.472.384.744.016.256-.096.48-.336.672-.544.432-1.224.792-2.04 1.08-.8.272-1.568.408-2.304.408Zm11.979-.096c-.672 0-1.272-.184-1.8-.552-.528-.368-.944-.872-1.248-1.512-.288-.656-.432-1.408-.432-2.256v-13.344c0-.32.096-.576.288-.768.208-.208.472-.312.792-.312.336 0 .6.104.792.312.208.192.312.448.312.768v13.344c0 .624.12 1.136.36 1.536.256.4.568.6.936.6h.6c.304 0 .544.104.72.312.176.192.264.456.264.792 0 .32-.136.584-.408.792-.256.192-.592.288-1.008.288h-.168Zm7.272 0c-.672 0-1.272-.184-1.8-.552-.528-.368-.944-.872-1.248-1.512-.288-.656-.432-1.408-.432-2.256v-13.344c0-.32.096-.576.288-.768.208-.208.472-.312.792-.312.336 0 .6.104.792.312.208.192.312.448.312.768v13.344c0 .624.12 1.136.36 1.536.256.4.568.6.936.6h.6c.304 0 .544.104.72.312.176.192.264.456.264.792 0 .32-.136.584-.408.792-.256.192-.592.288-1.008.288h-.168Zm9.496.096c-1.28 0-2.424-.28-3.432-.84-.992-.576-1.776-1.36-2.352-2.352-.56-1.008-.84-2.16-.84-3.456 0-1.312.28-2.464.84-3.456.576-1.008 1.36-1.792 2.352-2.352 1.008-.576 2.152-.864 3.432-.864 1.28 0 2.416.288 3.408.864 1.008.56 1.792 1.344 2.352 2.352.576.992.872 2.144.888 3.456 0 1.296-.288 2.448-.864 3.456-.576.992-1.36 1.776-2.352 2.352-.992.56-2.136.84-3.432.84Zm0-1.968c.88 0 1.656-.2 2.328-.6.672-.4 1.2-.952 1.584-1.656.384-.704.576-1.512.576-2.424 0-.912-.192-1.72-.576-2.424-.384-.72-.912-1.28-1.584-1.68-.672-.4-1.448-.6-2.328-.6-.864 0-1.64.2-2.328.6-.672.4-1.2.96-1.584 1.68-.384.704-.576 1.512-.576 2.424 0 .912.192 1.72.576 2.424.384.704.912 1.256 1.584 1.656.688.4 1.464.6 2.328.6Zm-64.6907 28.872c-.24 0-.456-.064-.648-.192-.192-.144-.328-.32-.408-.528l-3.624-10.872c-.112-.464-.104-.832.024-1.104.128-.288.4-.432.816-.432.272 0 .496.072.672.216.192.144.344.384.456.72l3.144 9.744h-.72l2.9277-9.84c.08-.256.208-.456.384-.6.176-.16.416-.24.72-.24.288 0 .52.08.696.24.192.144.32.344.384.6l2.568 9.408h-.384l3-9.312c.192-.624.56-.936 1.104-.936.416 0 .696.152.84.456.144.288.136.648-.024 1.08l-3.624 10.872c-.064.208-.192.384-.384.528-.176.128-.392.192-.648.192-.224 0-.44-.064-.648-.192-.208-.144-.336-.32-.384-.528l-2.688-9.48h.264l-2.7597 9.48c-.064.208-.2.384-.408.528-.192.128-.408.192-.648.192Zm20.3247.096c-1.28 0-2.424-.28-3.432-.84-.992-.576-1.776-1.36-2.352-2.352-.56-1.008-.84-2.16-.84-3.456 0-1.312.28-2.464.84-3.456.576-1.008 1.36-1.792 2.352-2.352 1.008-.576 2.152-.864 3.432-.864 1.28 0 2.416.288 3.408.864 1.008.56 1.792 1.344 2.352 2.352.576.992.872 2.144.888 3.456 0 1.296-.288 2.448-.864 3.456-.576.992-1.36 1.776-2.352 2.352-.992.56-2.136.84-3.432.84Zm0-1.968c.88 0 1.656-.2 2.328-.6.672-.4 1.2-.952 1.584-1.656.384-.704.576-1.512.576-2.424 0-.912-.192-1.72-.576-2.424-.384-.72-.912-1.28-1.584-1.68-.672-.4-1.448-.6-2.328-.6-.864 0-1.64.2-2.328.6-.672.4-1.2.96-1.584 1.68-.384.704-.576 1.512-.576 2.424 0 .912.192 1.72.576 2.424.384.704.912 1.256 1.584 1.656.688.4 1.464.6 2.328.6Zm11.515-6.288c.032-.976.28-1.848.744-2.616.48-.768 1.112-1.376 1.896-1.824.784-.448 1.648-.672 2.592-.672.88 0 1.536.136 1.968.408.448.272.616.616.504 1.032-.048.24-.144.416-.288.528-.144.096-.312.152-.504.168-.192 0-.4-.016-.624-.048-.976-.16-1.848-.136-2.616.072-.768.208-1.376.568-1.824 1.08-.448.512-.672 1.136-.672 1.872h-1.176Zm.072 8.16c-.336 0-.6-.088-.792-.264-.192-.192-.288-.464-.288-.816v-10.968c0-.336.096-.6.288-.792.192-.192.456-.288.792-.288.368 0 .64.096.816.288.192.176.288.44.288.792v10.968c0 .336-.096.6-.288.792-.176.192-.448.288-.816.288Zm13.551 0c-.672 0-1.272-.184-1.8-.552-.528-.368-.944-.872-1.248-1.512-.288-.656-.432-1.408-.432-2.256v-13.344c0-.32.096-.576.288-.768.208-.208.472-.312.792-.312.336 0 .6.104.792.312.208.192.312.448.312.768v13.344c0 .624.12 1.136.36 1.536.256.4.568.6.936.6h.6c.304 0 .544.104.72.312.176.192.264.456.264.792 0 .32-.136.584-.408.792-.256.192-.592.288-1.008.288h-.168Zm9.496.096c-1.248 0-2.376-.288-3.384-.864-.992-.592-1.784-1.392-2.376-2.4-.576-1.008-.864-2.144-.864-3.408 0-1.264.272-2.392.816-3.384.544-1.008 1.288-1.8 2.232-2.376.944-.592 2.016-.888 3.216-.888.992 0 1.896.208 2.712.624.832.416 1.52.976 2.064 1.68v-6.72c0-.336.104-.6.312-.792.208-.208.472-.312.792-.312.336 0 .608.104.816.312.208.192.312.456.312.792v11.112c-.016 1.248-.32 2.376-.912 3.384-.576 1.008-1.368 1.8-2.376 2.376-.992.576-2.112.864-3.36.864Zm0-1.968c.864 0 1.632-.2 2.304-.6.672-.416 1.2-.976 1.584-1.68.4-.72.6-1.528.6-2.424 0-.896-.2-1.696-.6-2.4-.384-.704-.912-1.256-1.584-1.656-.672-.416-1.44-.624-2.304-.624-.832 0-1.592.208-2.28.624-.688.4-1.232.952-1.632 1.656-.384.704-.576 1.504-.576 2.4 0 .896.192 1.704.576 2.424.4.704.944 1.264 1.632 1.68.688.4 1.448.6 2.28.6Zm11.81-2.496c-.32 0-.592-.112-.816-.336-.208-.224-.312-.48-.312-.768v-12.144c0-.32.104-.584.312-.792.224-.224.496-.336.816-.336.32 0 .584.112.792.336.208.208.312.472.312.792v12.144c0 .304-.112.568-.336.792-.224.208-.48.312-.768.312Zm0 4.368c-.432 0-.8-.152-1.104-.456-.304-.304-.456-.672-.456-1.104 0-.448.152-.824.456-1.128.304-.304.672-.456 1.104-.456.432 0 .8.16 1.104.48.304.304.456.672.456 1.104 0 .432-.16.8-.48 1.104-.304.304-.664.456-1.08.456Zm9.391-13.176c-.368 0-.688-.128-.96-.384-.272-.272-.408-.608-.408-1.008 0-.336.032-.632.096-.888.08-.272.144-.552.192-.84.048-.304.04-.664-.024-1.08-.048-.416-.2-.928-.456-1.536-.112-.24-.104-.464.024-.672.128-.208.312-.312.552-.312.256 0 .52.168.792.504.288.32.552.728.792 1.224.256.496.464 1.008.624 1.536.176.512.264.968.264 1.368 0 .608-.136 1.112-.408 1.512-.256.384-.616.576-1.08.576Zm-3.528 0c-.384 0-.712-.128-.984-.384-.256-.272-.384-.608-.384-1.008 0-.336.032-.632.096-.888.064-.272.12-.552.168-.84.064-.304.064-.664 0-1.08-.064-.416-.224-.928-.48-1.536-.112-.24-.104-.464.024-.672.144-.208.328-.312.552-.312.256 0 .52.168.792.504.288.32.552.728.792 1.224.256.496.464 1.008.624 1.536.176.512.264.968.264 1.368 0 .608-.128 1.112-.384 1.512-.256.384-.616.576-1.08.576Z" fill="#F6B17A"/>
  <path d="M49.8706 28.4922h-17.7c-4.1304 0-6.1956 0-7.7732.8114-1.3877.7137-2.5159 1.8525-3.223 3.2533-.8038 1.5925-.8038 3.6771-.8038 7.8464v43.1778c0 4.1692 0 6.2541.8038 7.8464.7071 1.4007 1.8353 2.5397 3.223 3.2532 1.5776.8115 3.6428.8115 7.7732.8115h32.0643m-14.3643-67 22.125 22.3333m-22.125-22.3333V44.87c0 2.0846 0 3.1269.4019 3.9232a3.705 3.705 0 0 0 1.6115 1.6266c.7887.4057 1.8212.4057 3.8866.4057h16.225m0 0v34.3819m-36.875-4.6041h9.2188m-9.2188-14.8889h22.125m-22.125-14.8889h3.6875" stroke="#F6B17A" stroke-width="3" stroke-linecap="round" stroke-linejoin="round"/>
  <path d="M176.438 211v-13.091h4.794c.929 0 1.698.153 2.308.46.609.303 1.065.714 1.368 1.234.302.516.454 1.097.454 1.745 0 .545-.101 1.006-.301 1.381-.2.37-.469.669-.805.895-.333.221-.699.383-1.1.485v.128c.435.022.859.162 1.272.422.418.256.763.62 1.036 1.093s.409 1.048.409 1.726c0 .669-.158 1.27-.473 1.803-.311.528-.793.948-1.445 1.259-.652.307-1.485.46-2.499.46h-5.018Zm1.975-1.694h2.851c.946 0 1.624-.183 2.033-.55.409-.366.614-.824.614-1.374 0-.413-.105-.793-.314-1.138-.209-.345-.507-.62-.895-.824-.383-.205-.839-.307-1.367-.307h-2.922v4.193Zm0-5.734h2.647c.443 0 .841-.085 1.195-.255.358-.171.641-.409.85-.716.213-.311.32-.678.32-1.1 0-.541-.19-.995-.569-1.361-.379-.367-.961-.55-1.745-.55h-2.698v3.982Zm9.829 7.428v-9.818h4.072c1.108 0 1.986.236 2.633.709.648.469.972 1.106.972 1.912 0 .575-.183 1.031-.55 1.367-.366.337-.852.563-1.457.678.439.051.842.183 1.208.396.366.209.66.49.882.844.226.354.339.776.339 1.266 0 .52-.134.98-.403 1.38-.268.397-.658.708-1.17.934-.507.221-1.118.332-1.834.332h-4.692Zm1.796-1.598h2.896c.473 0 .844-.113 1.112-.339.269-.226.403-.532.403-.92 0-.456-.134-.814-.403-1.074-.268-.264-.639-.396-1.112-.396h-2.896v2.729Zm0-4.129h2.295c.358 0 .665-.051.921-.154.259-.102.458-.247.594-.434.141-.192.211-.418.211-.678 0-.379-.156-.675-.467-.888-.311-.213-.737-.32-1.278-.32h-2.276v2.474Zm12.811 5.925c-.967 0-1.8-.207-2.499-.62-.695-.417-1.232-1.003-1.611-1.758-.375-.758-.563-1.647-.563-2.665 0-1.006.188-1.892.563-2.659.379-.767.908-1.366 1.585-1.796.682-.431 1.479-.646 2.391-.646.554 0 1.091.092 1.611.275.519.183.986.471 1.399.863.414.392.74.901.978 1.527.239.623.358 1.379.358 2.27v.677h-7.804v-1.432h5.931c0-.502-.102-.948-.306-1.336-.205-.392-.493-.701-.863-.926-.367-.226-.797-.339-1.291-.339-.537 0-1.006.132-1.407.396-.396.26-.703.601-.92 1.023-.213.417-.32.871-.32 1.361v1.119c0 .656.115 1.214.345 1.675.235.46.561.811.978 1.054.418.239.906.358 1.464.358.362 0 .693-.051.991-.153.298-.107.556-.264.773-.473.218-.209.384-.467.499-.774l1.809.326c-.145.533-.405 1-.78 1.4-.371.397-.837.706-1.4.927-.558.217-1.195.326-1.911.326Zm5.554 2.634v-4.488h.799c.205-.187.377-.411.518-.671.145-.26.266-.569.364-.927.102-.358.188-.775.256-1.252.068-.482.128-1.032.179-1.65l.307-3.662h6.673v8.162h1.509v4.488h-1.867V211h-6.846v2.832h-1.892Zm2.845-4.488h4.385v-6.526h-3.094l-.205 2.026c-.098 1.032-.221 1.927-.371 2.685-.149.754-.387 1.359-.715 1.815Zm11.68-1.022 4.328-7.14h2.058V211h-1.873v-7.146L223.133 211h-2.077v-9.818h1.872v7.14Zm7.918-5.491v-1.649h8.284v1.649h-3.202V211h-1.867v-8.169h-3.215Zm14.26 8.367c-.967 0-1.8-.207-2.499-.62-.695-.417-1.232-1.003-1.611-1.758-.375-.758-.562-1.647-.562-2.665 0-1.006.187-1.892.562-2.659.379-.767.908-1.366 1.585-1.796.682-.431 1.479-.646 2.391-.646.554 0 1.091.092 1.611.275.52.183.986.471 1.4.863.413.392.739.901.978 1.527.238.623.357 1.379.357 2.27v.677h-7.804v-1.432h5.932c0-.502-.103-.948-.307-1.336-.205-.392-.492-.701-.863-.926-.367-.226-.797-.339-1.291-.339-.537 0-1.006.132-1.407.396-.396.26-.703.601-.92 1.023-.213.417-.32.871-.32 1.361v1.119c0 .656.115 1.214.346 1.675.234.46.56.811.978 1.054.417.239.905.358 1.463.358.362 0 .693-.051.991-.153.298-.107.556-.264.773-.473.218-.209.384-.467.499-.774l1.809.326c-.145.533-.405 1-.78 1.4-.371.397-.837.706-1.4.927-.558.217-1.195.326-1.911.326Zm10.907-8.367v-1.649h8.284v1.649h-3.202V211h-1.867v-8.169h-3.215Zm14.26 8.367c-.967 0-1.8-.207-2.499-.62-.695-.417-1.232-1.003-1.611-1.758-.375-.758-.563-1.647-.563-2.665 0-1.006.188-1.892.563-2.659.379-.767.908-1.366 1.585-1.796.682-.431 1.479-.646 2.391-.646.554 0 1.091.092 1.611.275.52.183.986.471 1.399.863.414.392.74.901.978 1.527.239.623.358 1.379.358 2.27v.677h-7.804v-1.432h5.932c0-.502-.103-.948-.307-1.336-.205-.392-.492-.701-.863-.926-.367-.226-.797-.339-1.291-.339-.537 0-1.006.132-1.407.396-.396.26-.703.601-.92 1.023-.213.417-.32.871-.32 1.361v1.119c0 .656.115 1.214.345 1.675.235.46.561.811.978 1.054.418.239.906.358 1.464.358.362 0 .693-.051.991-.153.298-.107.556-.264.773-.473.218-.209.384-.467.499-.774l1.809.326c-.145.533-.405 1-.78 1.4-.371.397-.837.706-1.4.927-.558.217-1.195.326-1.911.326Zm6.513-.198v-9.818h1.911v4.116h.921l3.24-4.116h2.365l-3.803 4.775 3.848 5.043h-2.371l-2.96-3.925h-1.24V211h-1.911Zm13.878.198c-.95 0-1.768-.215-2.454-.645-.682-.435-1.206-1.034-1.573-1.797-.366-.762-.55-1.636-.55-2.62 0-.998.188-1.877.563-2.64.375-.767.903-1.366 1.585-1.796.682-.431 1.485-.646 2.41-.646.746 0 1.41.138 1.994.415.584.273 1.055.657 1.413 1.151.362.494.577 1.072.646 1.732h-1.861c-.102-.46-.336-.856-.703-1.189-.362-.332-.848-.498-1.457-.498-.533 0-.999.14-1.4.422-.396.277-.705.673-.927 1.189-.221.511-.332 1.116-.332 1.815 0 .716.108 1.334.326 1.854.217.519.524.922.92 1.208.401.285.872.428 1.413.428.362 0 .69-.066.984-.198.299-.137.548-.33.748-.582.205-.251.347-.554.428-.908h1.861c-.069.635-.275 1.202-.621 1.701-.345.498-.807.89-1.387 1.176-.575.285-1.25.428-2.026.428Zm5.514-8.367v-1.649h8.284v1.649h-3.202V211h-1.867v-8.169h-3.215Zm17.302 5.491 4.328-7.14h2.058V211h-1.873v-7.146L313.685 211h-2.077v-9.818h1.872v7.14Zm8.362 2.678-.006-1.656h.351c.273 0 .501-.057.684-.172.188-.119.341-.32.461-.601.119-.281.211-.669.274-1.163.064-.499.111-1.125.141-1.88l.173-4.346h6.852V211h-1.873v-8.169h-3.209l-.153 3.337c-.039.809-.122 1.517-.249 2.122-.124.605-.305 1.11-.544 1.515-.238.4-.545.701-.92.901-.375.196-.831.294-1.368.294h-.614Zm13.532-2.678 4.327-7.14h2.058V211h-1.873v-7.146L335.578 211h-2.077v-9.818h1.873v7.14Zm-159.671 22.083h1.956c.026.4.207.709.543.927.341.217.782.326 1.324.326.549 0 1.018-.118 1.406-.352.388-.239.581-.607.581-1.106 0-.298-.074-.558-.223-.78-.145-.225-.352-.4-.62-.524-.264-.123-.578-.185-.94-.185h-1.598v-1.502h1.598c.541 0 .946-.124 1.215-.371.268-.247.402-.556.402-.927 0-.4-.145-.722-.434-.965-.286-.247-.684-.371-1.196-.371-.52 0-.952.117-1.297.352-.345.23-.527.528-.544.895h-1.93c.013-.55.179-1.032.499-1.445.323-.417.758-.741 1.304-.971.549-.235 1.174-.352 1.872-.352.729 0 1.36.117 1.892.352.533.234.944.558 1.234.971.294.413.441.889.441 1.426 0 .541-.162.984-.486 1.329-.319.341-.737.586-1.252.735v.102c.379.026.715.141 1.01.346.294.204.524.475.69.811.166.337.249.718.249 1.145 0 .6-.166 1.12-.498 1.559-.329.439-.785.778-1.368 1.017-.58.234-1.243.351-1.988.351-.725 0-1.375-.113-1.95-.339-.571-.23-1.025-.554-1.361-.971-.333-.418-.51-.912-.531-1.483Zm12.707 2.812c-.622 0-1.185-.115-1.688-.345-.502-.234-.901-.573-1.195-1.016-.29-.443-.435-.987-.435-1.63 0-.554.107-1.01.32-1.368.213-.358.501-.641.863-.85.362-.209.767-.367 1.214-.473.448-.107.904-.188 1.368-.243.588-.068 1.066-.124 1.432-.166.367-.047.633-.122.799-.224.166-.102.249-.268.249-.499v-.044c0-.559-.157-.991-.473-1.298-.311-.307-.775-.46-1.393-.46-.643 0-1.151.143-1.521.428-.367.281-.62.595-.761.94l-1.796-.409c.213-.597.524-1.078.933-1.445.413-.371.889-.639 1.426-.805.536-.171 1.101-.256 1.693-.256.392 0 .808.047 1.247.141.443.089.856.255 1.24.498.388.243.705.59.952 1.042.248.448.371 1.029.371 1.745V233h-1.866v-1.342h-.077c-.124.247-.309.49-.556.728-.247.239-.565.437-.953.595-.387.157-.852.236-1.393.236Zm.415-1.534c.529 0 .981-.104 1.356-.313.379-.209.666-.482.862-.818.201-.341.301-.705.301-1.093v-1.266c-.068.068-.2.132-.396.192-.192.055-.412.104-.659.147-.247.038-.488.075-.722.109-.234.029-.431.055-.588.076-.371.047-.71.126-1.017.237-.302.111-.545.27-.728.479-.179.205-.269.478-.269.818 0 .473.175.831.524 1.074.35.239.795.358 1.336.358Zm13.433-8.501v1.649h-4.392V233h-1.885v-9.818h6.277Zm2.2 13.5v-13.5h1.866v1.591h.16c.111-.204.27-.441.479-.709.209-.269.499-.503.87-.703.37-.205.86-.307 1.47-.307.792 0 1.5.2 2.122.601.622.4 1.11.978 1.464 1.732.358.754.537 1.662.537 2.723s-.177 1.971-.531 2.729c-.354.755-.839 1.336-1.457 1.746-.618.404-1.323.607-2.116.607-.597 0-1.085-.1-1.464-.301-.375-.2-.669-.434-.882-.703-.213-.268-.377-.507-.492-.716h-.115v5.21h-1.911Zm1.872-8.591c0 .69.101 1.295.301 1.815.2.52.49.927.869 1.221.379.29.844.435 1.394.435.571 0 1.048-.151 1.432-.454.383-.307.673-.722.869-1.246.2-.525.3-1.115.3-1.771 0-.648-.098-1.229-.294-1.745-.192-.516-.481-.923-.869-1.221-.384-.298-.863-.447-1.438-.447-.554 0-1.023.142-1.407.428-.379.285-.666.684-.862 1.195-.197.511-.295 1.108-.295 1.79Zm10.291 8.591c-.285 0-.545-.024-.78-.07-.234-.043-.409-.09-.524-.141l.46-1.566c.35.094.661.134.934.121.272-.013.513-.115.722-.307.213-.191.4-.505.562-.939l.237-.652-3.592-9.946h2.045l2.487 7.619h.102l2.486-7.619h2.052l-4.046 11.128c-.188.512-.426.944-.716 1.298-.29.358-.635.626-1.035.805-.401.179-.865.269-1.394.269Zm8.586-6.277h1.956c.025.4.206.709.543.927.341.217.782.326 1.323.326.55 0 1.019-.118 1.406-.352.388-.239.582-.607.582-1.106 0-.298-.075-.558-.224-.78-.145-.225-.351-.4-.62-.524-.264-.123-.577-.185-.939-.185h-1.598v-1.502h1.598c.541 0 .946-.124 1.214-.371.269-.247.403-.556.403-.927 0-.4-.145-.722-.435-.965-.285-.247-.684-.371-1.195-.371-.52 0-.953.117-1.298.352-.345.23-.526.528-.543.895h-1.93c.012-.55.179-1.032.498-1.445.324-.417.759-.741 1.304-.971.55-.235 1.174-.352 1.873-.352.729 0 1.359.117 1.892.352.533.234.944.558 1.234.971.294.413.441.889.441 1.426 0 .541-.162.984-.486 1.329-.32.341-.737.586-1.253.735v.102c.379.026.716.141 1.01.346.294.204.524.475.69.811.167.337.25.718.25 1.145 0 .6-.167 1.12-.499 1.559-.328.439-.784.778-1.368 1.017-.579.234-1.242.351-1.988.351-.724 0-1.374-.113-1.949-.339-.571-.23-1.025-.554-1.362-.971-.332-.418-.509-.912-.53-1.483Zm11.722-.083 4.327-7.14h2.059V233h-1.873v-7.146L237.134 233h-2.078v-9.818h1.873v7.14Zm7.918-5.491v-1.649h8.284v1.649h-3.203V233h-1.866v-8.169h-3.215Zm14.26 8.367c-.968 0-1.801-.207-2.5-.62-.694-.417-1.231-1.003-1.61-1.758-.375-.758-.563-1.647-.563-2.665 0-1.006.188-1.892.563-2.659.379-.767.907-1.366 1.585-1.796.682-.431 1.479-.646 2.39-.646.554 0 1.091.092 1.611.275.52.183.987.471 1.4.863.414.392.739.901.978 1.527.239.623.358 1.379.358 2.27v.677h-7.805v-1.432h5.932c0-.502-.102-.948-.307-1.336-.204-.392-.492-.701-.863-.926-.366-.226-.796-.339-1.291-.339-.537 0-1.005.132-1.406.396-.396.26-.703.601-.92 1.023-.213.417-.32.871-.32 1.361v1.119c0 .656.115 1.214.345 1.675.235.46.561.811.978 1.054.418.239.906.358 1.464.358.362 0 .692-.051.991-.153.298-.107.556-.264.773-.473.217-.209.384-.467.499-.774l1.809.326c-.145.533-.405 1-.78 1.4-.371.397-.838.706-1.4.927-.558.217-1.195.326-1.911.326Zm15.681 3.145v-16.434h1.912v16.434h-1.912Zm0-3.145c-.694 0-1.327-.119-1.898-.358-.571-.243-1.063-.588-1.477-1.035-.413-.448-.732-.983-.958-1.605-.222-.622-.333-1.31-.333-2.064 0-.763.111-1.456.333-2.078.226-.622.545-1.157.958-1.604.414-.448.906-.793 1.477-1.036.571-.243 1.204-.364 1.898-.364h.473v10.144h-.473Zm0-1.611h.269v-6.922h-.269c-.46 0-.86.094-1.201.281-.341.183-.625.437-.85.761-.226.319-.397.688-.512 1.105-.111.418-.166.859-.166 1.324 0 .622.1 1.195.3 1.719.201.52.503.94.908 1.259.405.316.912.473 1.521.473Zm1.912 1.611h-.48v-10.144h.48c.694 0 1.327.121 1.898.364s1.061.588 1.47 1.036c.414.447.731.982.953 1.604.226.622.338 1.315.338 2.078 0 .754-.112 1.442-.338 2.064-.222.622-.539 1.157-.953 1.605-.409.447-.899.792-1.47 1.035-.571.239-1.204.358-1.898.358Zm0-1.611c.46 0 .86-.089 1.201-.268.341-.183.625-.435.851-.754.225-.324.394-.693.505-1.106.11-.418.166-.859.166-1.323 0-.618-.1-1.189-.301-1.713-.196-.529-.496-.953-.901-1.272-.405-.324-.912-.486-1.521-.486h-.275v6.922h.275Zm9.82 1.63c-.622 0-1.184-.115-1.687-.345-.503-.234-.901-.573-1.195-1.016-.29-.443-.435-.987-.435-1.63 0-.554.107-1.01.32-1.368.213-.358.5-.641.863-.85.362-.209.767-.367 1.214-.473.447-.107.903-.188 1.368-.243.588-.068 1.065-.124 1.432-.166.366-.047.633-.122.799-.224.166-.102.249-.268.249-.499v-.044c0-.559-.158-.991-.473-1.298-.311-.307-.776-.46-1.393-.46-.644 0-1.151.143-1.522.428-.366.281-.62.595-.76.94l-1.797-.409c.214-.597.525-1.078.934-1.445.413-.371.888-.639 1.425-.805.537-.171 1.102-.256 1.694-.256.392 0 .808.047 1.246.141.444.089.857.255 1.241.498.387.243.705.59.952 1.042.247.448.371 1.029.371 1.745V233h-1.867v-1.342h-.077c-.123.247-.308.49-.556.728-.247.239-.564.437-.952.595-.388.157-.852.236-1.394.236Zm.416-1.534c.528 0 .98-.104 1.355-.313.379-.209.667-.482.863-.818.2-.341.3-.705.3-1.093v-1.266c-.068.068-.2.132-.396.192-.192.055-.411.104-.658.147-.247.038-.488.075-.723.109-.234.029-.43.055-.588.076-.37.047-.709.126-1.016.237-.303.111-.545.27-.729.479-.179.205-.268.478-.268.818 0 .473.175.831.524 1.074.349.239.795.358 1.336.358Zm9.028-1.361 4.328-7.14h2.058V233h-1.873v-7.146L296.169 233h-2.078v-9.818h1.873v7.14Zm3.509-10.464h1.573c0 .72-.256 1.306-.767 1.758-.507.447-1.193.671-2.058.671-.861 0-1.545-.224-2.052-.671-.507-.452-.761-1.038-.761-1.758h1.566c0 .32.094.603.281.85.188.243.51.364.966.364.447 0 .767-.121.958-.364.196-.243.294-.526.294-.85ZM304.326 233l-.006-1.656h.351c.273 0 .501-.057.684-.172.188-.119.341-.32.46-.601.12-.281.211-.669.275-1.163.064-.499.111-1.125.141-1.88l.172-4.346h6.853V233h-1.873v-8.169h-3.209l-.153 3.337c-.039.809-.122 1.517-.25 2.122-.123.605-.304 1.11-.543 1.515-.239.4-.545.701-.92.901-.375.196-.831.294-1.368.294h-.614Z" fill="#FAE5D1"/>
  <rect x="152" y="242" width="292" height="48" rx="19" stroke="#FAE5D1" stroke-opacity=".2" stroke-width="2"/>
  <path d="M172.908 264v-1.227c0-.362.068-.744.204-1.144.137-.401.326-.785.569-1.151.243-.366.529-.68.857-.94l.946.678c-.26.379-.482.775-.665 1.189-.183.413-.275.863-.275 1.349V264h-1.636Zm3.26 0v-1.227c0-.362.068-.744.204-1.144.137-.401.326-.785.569-1.151.243-.366.528-.68.857-.94l.946.678c-.26.379-.482.775-.665 1.189-.183.413-.275.863-.275 1.349V264h-1.636Zm4.552 9v-13.091h1.975v5.689h6.526v-5.689h1.982V273h-1.982v-5.708h-6.526V273h-1.975Zm17.617.198c-.967 0-1.8-.207-2.499-.62-.695-.417-1.232-1.003-1.611-1.758-.375-.758-.562-1.647-.562-2.665 0-1.006.187-1.892.562-2.659.379-.767.908-1.366 1.585-1.796.682-.431 1.479-.646 2.391-.646.554 0 1.091.092 1.611.275.52.183.986.471 1.4.863.413.392.739.901.978 1.527.238.623.358 1.379.358 2.27v.677h-7.805v-1.432h5.932c0-.502-.103-.948-.307-1.336-.205-.392-.492-.701-.863-.926-.366-.226-.797-.339-1.291-.339-.537 0-1.006.132-1.406.396-.397.26-.704.601-.921 1.023-.213.417-.319.871-.319 1.361v1.119c0 .656.115 1.214.345 1.675.234.46.56.811.978 1.054.417.239.905.358 1.463.358.363 0 .693-.051.991-.153.299-.107.556-.264.774-.473.217-.209.383-.467.498-.774l1.809.326c-.145.533-.405 1-.78 1.4-.37.397-.837.706-1.4.927-.558.217-1.195.326-1.911.326Zm8.424-13.289V273h-1.911v-13.091h1.911Zm4.663 0V273h-1.911v-13.091h1.911Zm6.887 13.289c-.921 0-1.724-.211-2.41-.633-.686-.422-1.219-1.012-1.598-1.77-.379-.759-.569-1.645-.569-2.659 0-1.019.19-1.909.569-2.672.379-.763.912-1.355 1.598-1.777.686-.422 1.489-.633 2.41-.633.92 0 1.723.211 2.409.633.687.422 1.219 1.014 1.599 1.777.379.763.568 1.653.568 2.672 0 1.014-.189 1.9-.568 2.659-.38.758-.912 1.348-1.599 1.77-.686.422-1.489.633-2.409.633Zm.006-1.604c.597 0 1.091-.158 1.483-.473.392-.316.682-.735.869-1.259.192-.525.288-1.102.288-1.733 0-.626-.096-1.201-.288-1.726-.187-.528-.477-.952-.869-1.272-.392-.319-.886-.479-1.483-.479-.601 0-1.099.16-1.496.479-.392.32-.684.744-.875 1.272-.188.525-.282 1.1-.282 1.726 0 .631.094 1.208.282 1.733.191.524.483.943.875 1.259.397.315.895.473 1.496.473ZM232.273 273l-2.889-9.818h1.975l1.924 7.21h.096l1.93-7.21h1.975l1.918 7.178h.096l1.911-7.178h1.975L240.301 273h-1.949l-1.995-7.089h-.147L234.216 273h-1.943Zm16.742.198c-.921 0-1.724-.211-2.41-.633-.686-.422-1.219-1.012-1.598-1.77-.379-.759-.569-1.645-.569-2.659 0-1.019.19-1.909.569-2.672.379-.763.912-1.355 1.598-1.777.686-.422 1.489-.633 2.41-.633.92 0 1.723.211 2.41.633.686.422 1.218 1.014 1.598 1.777.379.763.568 1.653.568 2.672 0 1.014-.189 1.9-.568 2.659-.38.758-.912 1.348-1.598 1.77-.687.422-1.49.633-2.41.633Zm.006-1.604c.597 0 1.091-.158 1.483-.473.392-.316.682-.735.869-1.259.192-.525.288-1.102.288-1.733 0-.626-.096-1.201-.288-1.726-.187-.528-.477-.952-.869-1.272-.392-.319-.886-.479-1.483-.479-.601 0-1.099.16-1.496.479-.392.32-.684.744-.875 1.272-.188.525-.282 1.1-.282 1.726 0 .631.094 1.208.282 1.733.191.524.483.943.875 1.259.397.315.895.473 1.496.473Zm6.884 1.406v-9.818h1.847v1.559h.102c.179-.528.495-.943.946-1.246.456-.307.972-.46 1.547-.46.12 0 .26.004.422.013.166.008.296.019.39.032v1.828c-.077-.022-.213-.045-.409-.071a4.0129 4.0129 0 0 0-.588-.044c-.452 0-.854.095-1.208.287-.35.188-.627.45-.831.786-.205.333-.307.712-.307 1.138V273h-1.911Zm8.999-13.091V273h-1.911v-13.091h1.911Zm6.427 13.283c-.793 0-1.5-.203-2.122-.607-.618-.41-1.104-.991-1.458-1.746-.349-.758-.524-1.668-.524-2.729 0-1.061.177-1.969.531-2.723.358-.754.848-1.332 1.47-1.732.622-.401 1.327-.601 2.116-.601.609 0 1.099.102 1.47.307.375.2.665.434.869.703.209.268.371.505.486.709h.115v-4.864h1.911V273h-1.866v-1.528h-.16c-.115.209-.281.448-.499.716-.213.269-.507.503-.882.703-.375.201-.861.301-1.457.301Zm.422-1.63c.549 0 1.014-.145 1.393-.435.384-.294.673-.701.87-1.221.2-.52.3-1.125.3-1.815 0-.682-.098-1.279-.294-1.79-.196-.511-.484-.91-.863-1.195-.379-.286-.848-.428-1.406-.428-.576 0-1.055.149-1.438.447-.384.298-.674.705-.87 1.221-.192.516-.287 1.097-.287 1.745 0 .656.098 1.246.294 1.771.196.524.485.939.869 1.246.388.303.865.454 1.432.454Zm9.76-11.653-.166 9.326h-1.771l-.166-9.326h2.103Zm-1.048 13.212c-.354 0-.657-.123-.908-.37-.252-.252-.375-.554-.371-.908-.004-.349.119-.648.371-.895.251-.251.554-.377.908-.377.345 0 .643.126.894.377.252.247.38.546.384.895-.004.234-.066.45-.185.646-.116.191-.269.345-.461.46-.191.115-.402.172-.632.172Zm5.752-13.212v1.227c0 .363-.068.744-.205 1.145-.132.396-.319.777-.562 1.144-.243.366-.529.682-.857.946l-.946-.678c.252-.366.469-.756.652-1.17.188-.413.281-.869.281-1.367v-1.247h1.637Zm3.253 0v1.227c0 .363-.068.744-.204 1.145-.132.396-.32.777-.563 1.144-.243.366-.528.682-.856.946l-.946-.678c.251-.366.468-.756.652-1.17.187-.413.281-.869.281-1.367v-1.247h1.636Z" fill="#fff"/>
  <path d="M401.739 113.244c0 31.176 7.051 90.738-37.539 110.423m37.539-110.423-15.291 19.165m15.291-19.165 17.694 19.165" stroke="#FAE5D1" stroke-width="5" stroke-linecap="round" stroke-linejoin="round"/>
  <defs>
    <clipPath id="a">
      <rect x="256" y="28" width="229" height="71" rx="20" fill="#fff"/>
    </clipPath>
  </defs>
</svg>
