<svg width="130" height="130" fill="none" xmlns="http://www.w3.org/2000/svg">
  <path d="M42.0356 101.299c0-12.6826 10.2815-22.9641 22.9644-22.9641 12.6829 0 22.9644 10.2815 22.9644 22.9641m-9.8419-45.9285c0 7.2474-5.8753 13.1225-13.1225 13.1225-7.2474 0-13.1225-5.8751-13.1225-13.1225 0-7.2473 5.8751-13.1225 13.1225-13.1225 7.2472 0 13.1225 5.8752 13.1225 13.1225Z" stroke="#F6B17A" stroke-width="5" stroke-linecap="round" stroke-linejoin="round"/>
  <path d="M61.7551 29.1609a4.5036 4.5036 0 0 0 6.4897 0c12.3565-12.8384 25.3598-14.0099 35.0372-9.5864 9.961 4.5534 17.259 15.3837 17.259 28.2986 0 13.1942-5.399 23.3639-13.139 32.08-7.895 8.8896-17.8462 15.8957-26.9466 23.0699-3.1589 2.49-5.9762 4.675-8.692 6.262-2.717 1.588-4.9045 2.313-6.7635 2.313-1.8589 0-4.0464-.725-6.7634-2.313-2.7158-1.587-5.5332-3.772-8.6918-6.262-4.779-3.7673-9.6357-7.3592-14.5634-11.4146-1.9204-1.5804-4.7585-1.3048-6.339.6155-1.5805 1.9202-1.3049 4.7585.6155 6.3389 4.9853 4.1032 10.2515 8.0182 14.711 11.5332 3.0757 2.425 6.3775 5.01 9.7235 6.965 3.3451 1.955 7.1622 3.544 11.3076 3.544 4.1455 0 7.9626-1.589 11.3076-3.544 3.3463-1.955 6.6476-4.54 9.7237-6.965 8.566-6.753 19.5158-14.4904 28.1048-24.1624 8.744-9.8455 15.412-22.0556 15.412-38.0605 0-16.2846-9.215-30.4078-22.522-36.49-12.5979-5.7588-28.1433-4.0214-42.0261 8.3992-13.8827-12.4206-29.4282-14.158-42.0267-8.3992C9.667 17.4653.4519 31.5885.4519 47.8731c0 9.8323 2.5216 18.2872 6.5568 25.6655 1.1934 2.182 3.9298 2.9836 6.1119 1.7899 2.1822-1.1937 2.9836-3.9299 1.7901-6.112-3.3697-6.1611-5.452-13.1401-5.452-21.3434 0-12.9149 7.2976-23.7452 17.2589-28.2986 9.6775-4.4235 22.6807-3.252 35.0375 9.5864Z" fill="#F6B17A"/>
</svg>
